<svg width="40" height="40" viewBox="0 0 40 40" fill="none" xmlns="http://www.w3.org/2000/svg">
<g clip-path="url(#clip0_122_2021)">
<path d="M20 40C31.0457 40 40 31.0457 40 20C40 8.9543 31.0457 0 20 0C8.9543 0 0 8.9543 0 20C0 31.0457 8.9543 40 20 40Z" fill="#333333"/>
<path d="M15.132 22.308V20.364H13.212V19.236H15.132V17.292H16.308V19.236H18.228V20.364H16.308V22.308H15.132ZM23.0894 24.168C22.4734 24.168 21.9254 24.056 21.4454 23.832C20.9654 23.608 20.5894 23.284 20.3174 22.86C20.0534 22.436 19.9214 21.932 19.9214 21.348V21.132H21.1814V21.324C21.1814 21.852 21.3534 22.272 21.6974 22.584C22.0494 22.888 22.5134 23.04 23.0894 23.04C23.6654 23.04 24.1134 22.896 24.4334 22.608C24.7534 22.32 24.9134 21.956 24.9134 21.516V21.408C24.9134 21.096 24.8374 20.844 24.6854 20.652C24.5334 20.46 24.3294 20.32 24.0734 20.232C23.8174 20.136 23.5294 20.088 23.2094 20.088H21.6854V18.636L24.6374 16.896V16.728H20.1254V15.6H26.0054V17.304L23.1854 18.984V19.152H23.7014C24.1254 19.152 24.5254 19.232 24.9014 19.392C25.2774 19.552 25.5814 19.796 25.8134 20.124C26.0534 20.452 26.1734 20.868 26.1734 21.372V21.516C26.1734 22.052 26.0454 22.52 25.7894 22.92C25.5334 23.312 25.1734 23.62 24.7094 23.844C24.2454 24.06 23.7054 24.168 23.0894 24.168Z" fill="white"/>
</g>
<rect x="1" y="1" width="38" height="38" rx="19" stroke="#060609" stroke-width="2"/>
<defs>
<clipPath id="clip0_122_2021">
<rect width="40" height="40" rx="20" fill="white"/>
</clipPath>
</defs>
</svg>
