<svg width="16" height="16" viewBox="0 0 16 16" fill="none" xmlns="http://www.w3.org/2000/svg">
<g id="a-b" clip-path="url(#clip0_2407_10156)">
<path id="Vector" d="M2 10.6666V6.99992C2 6.55789 2.17559 6.13397 2.48816 5.82141C2.80072 5.50885 3.22464 5.33325 3.66667 5.33325C4.10869 5.33325 4.53262 5.50885 4.84518 5.82141C5.15774 6.13397 5.33333 6.55789 5.33333 6.99992V10.6666M5.33333 7.99992H2" stroke="black" stroke-linecap="round" stroke-linejoin="round"/>
<path id="Vector_2" d="M8 4V12" stroke="black" stroke-linecap="round" stroke-linejoin="round"/>
<path id="Vector_3" d="M10.6665 10.6666V5.33325H12.6665C13.0201 5.33325 13.3593 5.47373 13.6093 5.72378C13.8594 5.97383 13.9998 6.31296 13.9998 6.66659C13.9998 7.02021 13.8594 7.35935 13.6093 7.60939C13.3593 7.85944 13.0201 7.99992 12.6665 7.99992H10.6665M12.6665 7.99992C13.0201 7.99992 13.3593 8.14039 13.6093 8.39044C13.8594 8.64049 13.9998 8.97963 13.9998 9.33325C13.9998 9.68687 13.8594 10.026 13.6093 10.2761C13.3593 10.5261 13.0201 10.6666 12.6665 10.6666H10.6665" stroke="black" stroke-linecap="round" stroke-linejoin="round"/>
</g>
<defs>
<clipPath id="clip0_2407_10156">
<rect width="16" height="16" fill="white"/>
</clipPath>
</defs>
</svg>
