<svg width="38" height="35" viewBox="0 0 38 35" fill="none" xmlns="http://www.w3.org/2000/svg">
<path d="M16.5723 20.9793V18.583" stroke="white" stroke-miterlimit="10" stroke-linecap="round" stroke-linejoin="round"/>
<path d="M21.6499 21.997C20.238 23.0882 18.1849 23.0871 16.7744 21.9937" stroke="white" stroke-miterlimit="10" stroke-linecap="round" stroke-linejoin="round"/>
<path d="M21.8564 18.583V20.9793" stroke="white" stroke-miterlimit="10" stroke-linecap="round" stroke-linejoin="round"/>
<path d="M23.6348 5.63037C24.373 5.63037 24.9716 6.18853 24.9716 6.87698V14.0364C24.9716 16.7753 22.5906 18.9957 19.6535 18.9957H18.7753C15.8383 18.9957 13.4573 16.7754 13.4573 14.0364V13.0309" stroke="white" stroke-miterlimit="10" stroke-linecap="round" stroke-linejoin="round"/>
<path d="M6.14404 30.2045V34.4875H19.2144L16.5725 20.9795L8.39185 23.1727C7.05375 23.5658 6.14404 24.723 6.14404 26.0308V27.97" stroke="white" stroke-miterlimit="10" stroke-linecap="round" stroke-linejoin="round"/>
<path d="M9.98706 34.4871V29.0869" stroke="white" stroke-miterlimit="10" stroke-linecap="round" stroke-linejoin="round"/>
<path d="M13.4576 21.8145L12.7339 25.8823L14.2497 26.958L13.3296 28.4038L19.2146 34.4874" stroke="white" stroke-miterlimit="10" stroke-linecap="round" stroke-linejoin="round"/>
<path d="M23.6522 34.4875H19.2153L21.8574 20.9795L30.038 23.1727C31.3761 23.5658 32.2858 24.723 32.2858 26.0308V34.4875H26.0483" stroke="white" stroke-miterlimit="10" stroke-linecap="round" stroke-linejoin="round"/>
<path d="M28.4429 34.4871V29.0869" stroke="white" stroke-miterlimit="10" stroke-linecap="round" stroke-linejoin="round"/>
<path d="M24.9723 21.8145L25.6961 25.8823L24.1802 26.958L25.1003 28.4038L19.2153 34.4874" stroke="white" stroke-miterlimit="10" stroke-linecap="round" stroke-linejoin="round"/>
<path d="M22.9609 1.30713C25.2757 1.30713 27.3672 3.05706 27.3672 5.21564V9.40464" stroke="white" stroke-miterlimit="10" stroke-linecap="round" stroke-linejoin="round"/>
<path d="M15.5733 6.64995C15.3752 6.63102 15.1733 6.60921 14.9678 6.58433C14.167 6.48746 13.4563 7.06688 13.4563 7.81992V13.0312" stroke="white" stroke-miterlimit="10" stroke-linecap="round" stroke-linejoin="round"/>
<path d="M11.0203 9.53655V6.00118C11.0203 2.96996 13.6553 0.512695 16.9057 0.512695H21.1586C22.447 0.512695 23.4913 1.48662 23.4913 2.68804V5.6306C23.4913 5.6306 21.6473 6.69182 17.973 6.74972" stroke="white" stroke-miterlimit="10" stroke-linecap="round" stroke-linejoin="round"/>
<path d="M13.4573 8.93213H12.3051C11.422 8.93213 10.7063 9.59966 10.7063 10.423V11.5402C10.7063 12.3637 11.4221 13.0312 12.3051 13.0312H13.4573" stroke="white" stroke-miterlimit="10" stroke-linecap="round" stroke-linejoin="round"/>
<path d="M24.9714 8.93213H26.1237C27.0067 8.93213 27.7225 9.59966 27.7225 10.423V11.5402C27.7225 12.3637 27.0066 13.0312 26.1237 13.0312H24.9714" stroke="white" stroke-miterlimit="10" stroke-linecap="round" stroke-linejoin="round"/>
<path d="M21.6807 10.9814V11.5126" stroke="white" stroke-miterlimit="10" stroke-linecap="round" stroke-linejoin="round"/>
<path d="M16.7258 10.9814V11.5126" stroke="white" stroke-miterlimit="10" stroke-linecap="round" stroke-linejoin="round"/>
<path d="M21.2797 16.2157H19.7403C19.1115 16.2157 18.6018 15.7403 18.6018 15.154C18.6018 14.5676 19.1116 14.0923 19.7403 14.0923H21.2797C21.9085 14.0923 22.4181 14.5677 22.4181 15.154C22.4181 15.7403 21.9085 16.2157 21.2797 16.2157Z" stroke="white" stroke-miterlimit="10" stroke-linecap="round" stroke-linejoin="round"/>
<path d="M26.878 13.0312V13.9555C26.878 14.6175 26.3025 15.1542 25.5926 15.1542H22.4182" stroke="white" stroke-miterlimit="10" stroke-linecap="round" stroke-linejoin="round"/>
<path d="M37.4312 27.3947C37.4312 27.9818 36.9208 28.4578 36.2911 28.4578C35.6615 28.4578 35.1511 27.9818 35.1511 27.3947V25.6945C35.1511 25.1073 35.6615 24.6313 36.2911 24.6313C36.9208 24.6313 37.4312 25.1073 37.4312 25.6945V27.3947Z" stroke="white" stroke-miterlimit="10" stroke-linecap="round" stroke-linejoin="round"/>
<path d="M1 24.7065H1.84263V28.383" stroke="white" stroke-miterlimit="10" stroke-linecap="round" stroke-linejoin="round"/>
<path d="M6.27051 18.6768H7.11314V22.3533" stroke="white" stroke-miterlimit="10" stroke-linecap="round" stroke-linejoin="round"/>
<path d="M3.28004 21.3649C3.28004 21.9521 2.76963 22.428 2.14002 22.428C1.51041 22.428 1 21.9521 1 21.3649V19.6647C1 19.0775 1.51041 18.6016 2.14002 18.6016C2.76963 18.6016 3.28004 19.0775 3.28004 19.6647V21.3649Z" stroke="white" stroke-miterlimit="10" stroke-linecap="round" stroke-linejoin="round"/>
<path d="M11.1692 22.4256C10.5764 22.3877 10.1082 21.9273 10.1082 21.3649V19.6647C10.1082 19.0775 10.6186 18.6016 11.2482 18.6016C11.8778 18.6016 12.3882 19.0775 12.3882 19.6647V21.3649C12.3882 21.6901 12.2317 21.9812 11.985 22.1762" stroke="white" stroke-miterlimit="10" stroke-linecap="round" stroke-linejoin="round"/>
<path d="M36.5879 18.6768H37.4305V22.3533" stroke="white" stroke-miterlimit="10" stroke-linecap="round" stroke-linejoin="round"/>
<path d="M33.5967 21.3649C33.5967 21.9521 33.0863 22.428 32.4567 22.428C31.8271 22.428 31.3167 21.9521 31.3167 21.3649V19.6647C31.3167 19.0775 31.8271 18.6016 32.4567 18.6016C33.0863 18.6016 33.5967 19.0775 33.5967 19.6647V21.3649Z" stroke="white" stroke-miterlimit="10" stroke-linecap="round" stroke-linejoin="round"/>
<path d="M26.0732 22.1167C25.8669 21.9243 25.7393 21.6585 25.7393 21.3649V19.6647C25.7393 19.0775 26.2497 18.6016 26.8793 18.6016C27.5089 18.6016 28.0193 19.0775 28.0193 19.6647V21.3649C28.0193 21.8585 27.6586 22.2735 27.1696 22.3933" stroke="white" stroke-miterlimit="10" stroke-linecap="round" stroke-linejoin="round"/>
<path d="M36.5879 12.647H37.4305V16.3235" stroke="white" stroke-miterlimit="10" stroke-linecap="round" stroke-linejoin="round"/>
<path d="M33.5967 15.3351C33.5967 15.9223 33.0863 16.3983 32.4567 16.3983C31.8271 16.3983 31.3167 15.9223 31.3167 15.3351V13.6349C31.3167 13.0478 31.8271 12.5718 32.4567 12.5718C33.0863 12.5718 33.5967 13.0478 33.5967 13.6349V15.3351Z" stroke="white" stroke-miterlimit="10" stroke-linecap="round" stroke-linejoin="round"/>
<path d="M27.224 12.6211C27.6851 12.7573 28.0193 13.1597 28.0193 13.6348V15.335C28.0193 15.9222 27.5089 16.3982 26.8793 16.3982C26.2497 16.3982 25.7393 15.9222 25.7393 15.335V15.1458" stroke="white" stroke-miterlimit="10" stroke-linecap="round" stroke-linejoin="round"/>
<path d="M1 12.6826H1.84241V16.2871" stroke="white" stroke-miterlimit="10" stroke-linecap="round" stroke-linejoin="round"/>
<path d="M5.33081 12.6826H6.17322V16.2871" stroke="white" stroke-miterlimit="10" stroke-linecap="round" stroke-linejoin="round"/>
<path d="M11.8471 15.3185C11.8471 15.8942 11.3368 16.3608 10.7074 16.3608C10.0779 16.3608 9.56763 15.8942 9.56763 15.3185V13.6516C9.56763 13.076 10.0779 12.6094 10.7074 12.6094C11.3368 12.6094 11.8471 13.0761 11.8471 13.6516V15.3185Z" stroke="white" stroke-miterlimit="10" stroke-linecap="round" stroke-linejoin="round"/>
<path d="M6.27051 0.587891H7.11314V4.26433" stroke="white" stroke-miterlimit="10" stroke-linecap="round" stroke-linejoin="round"/>
<path d="M3.28004 3.27612C3.28004 3.86326 2.76963 4.33925 2.14002 4.33925C1.51041 4.33925 1 3.86326 1 3.27612V1.57582C1 0.988682 1.51041 0.512695 2.14002 0.512695C2.76963 0.512695 3.28004 0.988682 3.28004 1.57582V3.27612Z" stroke="white" stroke-miterlimit="10" stroke-linecap="round" stroke-linejoin="round"/>
<path d="M11.2482 4.33925C10.6186 4.33925 10.1082 3.86326 10.1082 3.27612V1.57582C10.1082 0.988682 10.6186 0.512695 11.2482 0.512695C11.8778 0.512695 12.3882 0.988682 12.3882 1.57582V2.48363" stroke="white" stroke-miterlimit="10" stroke-linecap="round" stroke-linejoin="round"/>
<path d="M36.5879 0.587891H37.4305V4.26433" stroke="white" stroke-miterlimit="10" stroke-linecap="round" stroke-linejoin="round"/>
<path d="M33.5964 3.27612C33.5964 3.86326 33.086 4.33925 32.4564 4.33925C31.8268 4.33925 31.3164 3.86326 31.3164 3.27612V1.57582C31.3164 0.988682 31.8268 0.512695 32.4564 0.512695C33.086 0.512695 33.5964 0.988682 33.5964 1.57582V3.27612Z" stroke="white" stroke-miterlimit="10" stroke-linecap="round" stroke-linejoin="round"/>
<path d="M25.7393 2.21813V1.57582C25.7393 0.988682 26.2497 0.512695 26.8793 0.512695C27.5089 0.512695 28.0193 0.988682 28.0193 1.57582V3.27605C28.0193 3.71643 27.7322 4.09425 27.323 4.25564" stroke="white" stroke-miterlimit="10" stroke-linecap="round" stroke-linejoin="round"/>
<path d="M3.28004 33.424C3.28004 34.0111 2.76963 34.4871 2.14002 34.4871C1.51041 34.4871 1 34.0111 1 33.424V31.7238C1 31.1366 1.51041 30.6606 2.14002 30.6606C2.76963 30.6606 3.28004 31.1366 3.28004 31.7238V33.424Z" stroke="white" stroke-miterlimit="10" stroke-linecap="round" stroke-linejoin="round"/>
<path d="M36.5879 30.7358H37.4305V34.4123" stroke="white" stroke-miterlimit="10" stroke-linecap="round" stroke-linejoin="round"/>
<path d="M31.3137 6.61768H32.1563V10.2942" stroke="white" stroke-miterlimit="10" stroke-linecap="round" stroke-linejoin="round"/>
<path d="M37.4304 9.30584C37.4304 9.89298 36.92 10.369 36.2904 10.369C35.6608 10.369 35.1504 9.89298 35.1504 9.30584V7.60561C35.1504 7.01847 35.6608 6.54248 36.2904 6.54248C36.92 6.54248 37.4304 7.01847 37.4304 7.60561V9.30584Z" stroke="white" stroke-miterlimit="10" stroke-linecap="round" stroke-linejoin="round"/>
<path d="M1 6.61768H1.84263V10.2942" stroke="white" stroke-miterlimit="10" stroke-linecap="round" stroke-linejoin="round"/>
<path d="M7.11696 9.30584C7.11696 9.89298 6.60654 10.369 5.97693 10.369C5.34733 10.369 4.83691 9.89298 4.83691 9.30584V7.60561C4.83691 7.01847 5.34733 6.54248 5.97693 6.54248C6.60654 6.54248 7.11696 7.01847 7.11696 7.60561V9.30584Z" stroke="white" stroke-miterlimit="10" stroke-linecap="round" stroke-linejoin="round"/>
</svg>
