<svg width="16" height="16" viewBox="0 0 16 16" fill="none" xmlns="http://www.w3.org/2000/svg">
<g id="icon/16/award">
<path id="icon" d="M12.4562 9.75C12.7117 9.58544 12.9881 9.3575 13.195 9.02812C13.5256 8.45719 13.4927 7.88219 13.4736 7.53781C13.4729 7.52499 13.472 7.51224 13.4712 7.49941C13.4762 7.49202 13.4811 7.48457 13.4861 7.47713C13.6781 7.15937 13.9719 6.67188 13.9719 6C13.9719 5.32812 13.6509 4.84094 13.4594 4.54969C13.4545 4.5423 13.4496 4.53498 13.4448 4.52772C13.4456 4.51496 13.4465 4.50226 13.4471 4.4895C13.4663 4.14543 13.4991 3.57012 13.1688 2.9995C12.8366 2.42512 12.3182 2.16387 12.0088 2.00856C11.999 2.00362 11.9891 1.99879 11.9793 1.99391C11.9744 1.98403 11.9695 1.97414 11.9646 1.96425C11.8092 1.65494 11.5483 1.13644 10.9736 0.803937C10.6361 0.608625 10.253 0.514344 9.80049 0.514344C9.69674 0.514344 9.59021 0.519472 9.48361 0.525391C9.47073 0.526062 9.45779 0.526856 9.44486 0.527587C9.43748 0.522644 9.43009 0.5177 9.42265 0.512816C9.15935 0.320938 8.67185 0 7.99998 0C7.3281 0 6.8406 0.320937 6.54998 0.5125C6.54373 0.5175 6.53435 0.522188 6.5281 0.527188C6.5156 0.52625 6.5031 0.525625 6.4906 0.524688C6.38123 0.519063 6.27498 0.51375 6.17185 0.51375C5.71966 0.51375 5.33685 0.607875 4.99935 0.803187C4.42466 1.13563 4.16372 1.65406 4.00841 1.96344C4.00347 1.97327 3.99865 1.98309 3.99382 1.99292C3.984 1.99774 3.97411 2.00256 3.96428 2.00751C3.65497 2.16281 3.13654 2.42375 2.80373 2.99844C2.47341 3.56875 2.50591 4.14375 2.52529 4.4875C2.52596 4.50026 2.52681 4.51307 2.52767 4.52578C2.52248 4.53437 2.51779 4.54063 2.51279 4.55C2.32091 4.84063 2 5.32812 2 6C2 6.67188 2.32094 7.15906 2.51281 7.45031C2.51748 7.45625 2.52248 7.46563 2.52716 7.47188C2.52654 7.48438 2.5256 7.49688 2.52498 7.50938C2.5056 7.85313 2.47279 8.42813 2.8031 9C3.01685 9.36906 3.30466 9.60125 3.56685 9.76625L2.05373 13.5381C1.95216 13.794 1.99807 14.0844 2.17482 14.2959C2.31916 14.4682 2.53076 14.5653 2.74951 14.5653C2.79863 14.5653 2.84813 14.5606 2.89738 14.5506L4.30957 14.2682L4.97926 15.5892C5.1081 15.8438 5.36247 16 5.64685 16C5.65759 16 5.6676 15.9996 5.67835 15.9991C5.97522 15.9874 6.22991 15.8091 6.3421 15.5341L7.76873 12H8.25779L9.65779 15.5344C9.7701 15.8093 10.0247 15.9875 10.3215 15.9994C10.3312 15.9719 10.3156 16 10.3531 16C10.6373 16 10.8915 15.8446 11.0203 15.5894L11.69 14.2681L13.1022 14.5505C13.1514 14.5605 13.2009 14.5652 13.25 14.5652C13.469 14.5652 13.6804 14.4681 13.8247 14.2958C14.0015 14.0844 14.0474 13.794 13.9458 13.538L12.4562 9.75ZM11.8969 8.25C11.7072 8.57781 11.1925 8.66063 10.9265 8.92688C10.6607 9.19281 10.5775 9.70719 10.2497 9.89688C10.1273 9.96769 9.98154 9.98538 9.82748 9.98538C9.67385 9.98538 9.51216 9.96773 9.35748 9.96773C9.25785 9.96773 9.16113 9.97506 9.07135 9.99905C8.7156 10.0938 8.38748 10.5 7.99998 10.5C7.6131 10.5 7.28435 10.0953 6.92747 9.99969C6.83747 9.975 6.7406 9.94063 6.6406 9.94063C6.48607 9.94063 6.32466 9.95814 6.17123 9.95814C6.0171 9.95814 5.87116 9.94044 5.74872 9.86958C5.42185 9.70625 5.33747 9.19375 5.07216 8.92813C4.80622 8.6625 4.29185 8.57812 4.10216 8.25C3.91529 7.92812 4.09873 7.44063 4.00029 7.07188C3.90498 6.71563 3.49997 6.3875 3.49997 6C3.49997 5.61312 3.90498 5.28437 4.00029 4.9275C4.09885 4.55844 3.91557 4.07219 4.10269 3.74906C4.29247 3.42188 4.80685 3.3375 5.0731 3.07219C5.33904 2.80631 5.42216 2.29187 5.74997 2.10219C5.87235 2.03137 6.0181 2.01369 6.17216 2.01369C6.32579 2.01369 6.48748 2.03133 6.64216 2.03133C6.74179 2.03133 6.83851 2.024 6.92829 2.00002C7.28435 1.90469 7.61248 1.5 7.99998 1.5C8.38716 1.5 8.7156 1.90469 9.07248 2.00031C9.16238 2.02436 9.25926 2.03169 9.35904 2.03169C9.51357 2.03169 9.67497 2.01417 9.82841 2.01417C9.98254 2.01417 10.1285 2.03187 10.2509 2.10273C10.5787 2.29236 10.6615 2.80711 10.9278 3.07305C11.1937 3.33905 11.7081 3.42211 11.8978 3.74992C12.0847 4.07305 11.9014 4.5593 12 4.92836C12.0969 5.28438 12.5 5.6125 12.5 6C12.5 6.38688 12.0953 6.71563 11.9997 7.0725C11.9 7.44063 12.0844 7.92812 11.8969 8.25ZM7.99998 4C6.89685 4 5.99997 4.89375 5.99997 6C5.99997 7.10406 6.89529 8 7.99998 8C9.10466 8 9.99998 7.10406 9.99998 6C9.99998 4.89375 9.1031 4 7.99998 4Z" fill="black"/>
</g>
</svg>
