<svg width="20" height="20" viewBox="0 0 20 20" fill="none" xmlns="http://www.w3.org/2000/svg">
<g id="Media / Icon/Filled/building-storefront">
<g id="Subtract">
<path d="M4.83684 3C4.45796 3 4.09459 3.15051 3.82669 3.41842L2.83684 4.40827C1.72105 5.52405 1.72105 7.33309 2.83684 8.44888C3.85562 9.46766 5.45237 9.55623 6.57165 8.71457C7.04891 9.07286 7.64265 9.28572 8.28571 9.28572C8.92887 9.28572 9.52271 9.0728 10 8.71441C10.4773 9.0728 11.0711 9.28572 11.7143 9.28572C12.3573 9.28572 12.9511 9.07286 13.4284 8.71457C14.5476 9.55623 16.1444 9.46766 17.1632 8.44888C18.2789 7.33309 18.2789 5.52405 17.1632 4.40827L16.1733 3.41842C15.9054 3.15051 15.542 3 15.1632 3L4.83684 3Z" fill="black"/>
<path fill-rule="evenodd" clip-rule="evenodd" d="M3.14286 16.7143V10.0439C4.22492 10.557 5.48944 10.5566 6.57176 10.0433C7.09154 10.2901 7.67323 10.4286 8.28571 10.4286C8.89833 10.4286 9.48013 10.29 10 10.0432C10.5199 10.29 11.1017 10.4286 11.7143 10.4286C12.3268 10.4286 12.9085 10.2901 13.4282 10.0433C14.5106 10.5566 15.7751 10.557 16.8571 10.0439V16.7143H17.4286C17.7442 16.7143 18 16.9701 18 17.2857C18 17.6013 17.7442 17.8571 17.4286 17.8571H2.57143C2.25584 17.8571 2 17.6013 2 17.2857C2 16.9701 2.25584 16.7143 2.57143 16.7143H3.14286ZM5.42857 12.1429C5.42857 11.8273 5.68441 11.5714 6 11.5714H8.28571C8.60131 11.5714 8.85714 11.8273 8.85714 12.1429V14.4286C8.85714 14.7442 8.60131 15 8.28571 15H6C5.68441 15 5.42857 14.7442 5.42857 14.4286V12.1429ZM11.7143 11.5714C11.3987 11.5714 11.1429 11.8273 11.1429 12.1429V16.1429C11.1429 16.4585 11.3987 16.7143 11.7143 16.7143H14C14.3156 16.7143 14.5714 16.4585 14.5714 16.1429V12.1429C14.5714 11.8273 14.3156 11.5714 14 11.5714H11.7143Z" fill="black"/>
</g>
</g>
</svg>
