<svg width="25" height="25" viewBox="0 0 25 25" fill="none" xmlns="http://www.w3.org/2000/svg">
<path d="M20.8888 9.38606V18.6103C20.8888 18.9559 20.6094 19.2353 20.2638 19.2353H4.73806C4.39247 19.2353 4.11307 18.9559 4.11307 18.6103V8.68386C4.11307 8.33827 4.39247 8.05886 4.73806 8.05886H12.9587V6.39709H4.05424C3.16821 6.39709 2.45129 7.11401 2.45129 8.00004V20.2758H22.5506V9.38606H20.8888Z" fill="black"/>
<path d="M24.2564 20.875C24.1241 20.6728 23.9035 20.5515 23.6608 20.5515H1.34099C1.09834 20.5515 0.877758 20.6728 0.745399 20.875C0.613051 21.0772 0.594662 21.3309 0.686574 21.5331L1.00643 22.6029C1.31158 23.2868 1.99173 23.7243 2.73805 23.7243H22.2601C23.0027 23.7243 23.6829 23.2868 23.9991 22.5882L24.3116 21.5404C24.4072 21.3235 24.3851 21.0735 24.2564 20.875ZM14.3998 22.5846H10.602C10.352 22.5846 10.1535 22.3824 10.1535 22.136C10.1535 21.8897 10.352 21.6875 10.602 21.6875H14.3998C14.6461 21.6875 14.8483 21.8897 14.8483 22.136C14.8483 22.3824 14.6461 22.5846 14.3998 22.5846Z" fill="black"/>
<path d="M9.4764 13.9597C8.38007 13.9597 7.48816 12.9314 7.48816 11.6671C7.48816 10.4031 8.38007 9.37482 9.4764 9.37482C10.5731 9.37482 11.4654 10.4031 11.4654 11.6671C11.4654 12.9314 10.5731 13.9597 9.4764 13.9597Z" fill="black"/>
<path d="M12.7624 17.9216H6.19111C6.08229 17.9216 5.97751 17.8761 5.90362 17.7966C5.82935 17.7169 5.79148 17.6091 5.79921 17.5007L5.92237 15.7816C5.99185 14.815 6.80472 14.058 7.77384 14.058H11.1797C12.1488 14.058 12.9617 14.815 13.0308 15.7816L13.154 17.5007C13.1617 17.6091 13.1238 17.7169 13.0499 17.7966C12.976 17.8761 12.8709 17.9216 12.7624 17.9216Z" fill="black"/>
<path d="M23.7381 1.56985C23.5469 1.3897 23.2895 1.27573 22.9991 1.27573H14.3153C13.7197 1.27573 13.2344 1.7647 13.2344 2.36028V8.02573C13.2344 8.08455 13.2381 8.1397 13.2491 8.19485C13.33 8.71322 13.7785 9.11028 14.3153 9.11028H14.3815C14.6829 9.11028 14.9256 9.35293 14.9256 9.65073V10.9632C14.9256 11.3456 15.3888 11.5441 15.6682 11.2721L17.6682 9.27205C17.7711 9.16911 17.9072 9.11028 18.0506 9.11028H22.9991C23.5983 9.11028 24.0836 8.62499 24.0836 8.02573V2.36028C24.0836 2.04779 23.9513 1.76837 23.7381 1.56985ZM15.8778 5.95587C15.4329 5.95587 15.0763 5.59558 15.0763 5.15073C15.0763 4.70587 15.4329 4.34926 15.8778 4.34926C16.3226 4.34926 16.6829 4.70587 16.6829 5.15073C16.6829 5.59558 16.3226 5.95587 15.8778 5.95587ZM18.6572 5.95587C18.2123 5.95587 17.8557 5.59558 17.8557 5.15073C17.8557 4.70587 18.2123 4.34926 18.6572 4.34926C19.102 4.34926 19.4623 4.70587 19.4623 5.15073C19.4623 5.59558 19.102 5.95587 18.6572 5.95587ZM21.4366 5.95587C20.9917 5.95587 20.6351 5.59558 20.6351 5.15073C20.6351 4.70587 20.9917 4.34926 21.4366 4.34926C21.8814 4.34926 22.2417 4.70587 22.2417 5.15073C22.2417 5.59558 21.8814 5.95587 21.4366 5.95587Z" fill="black"/>
</svg>
