<svg width="20" height="21" viewBox="0 0 20 21" fill="none" xmlns="http://www.w3.org/2000/svg">
<g id="Media / Icon/Filled/credit-card">
<g id="Subtract">
<path d="M3.75 3.625C2.36929 3.625 1.25 4.74429 1.25 6.125V6.75H18.75V6.125C18.75 4.74429 17.6307 3.625 16.25 3.625H3.75Z" fill="#1F2937"/>
<path fill-rule="evenodd" clip-rule="evenodd" d="M18.75 8.625H1.25V14.875C1.25 16.2557 2.36929 17.375 3.75 17.375H16.25C17.6307 17.375 18.75 16.2557 18.75 14.875V8.625ZM3.75 11.75C3.75 11.4048 4.02982 11.125 4.375 11.125H9.375C9.72018 11.125 10 11.4048 10 11.75C10 12.0952 9.72018 12.375 9.375 12.375H4.375C4.02982 12.375 3.75 12.0952 3.75 11.75ZM4.375 13.625C4.02982 13.625 3.75 13.9048 3.75 14.25C3.75 14.5952 4.02982 14.875 4.375 14.875H6.875C7.22018 14.875 7.5 14.5952 7.5 14.25C7.5 13.9048 7.22018 13.625 6.875 13.625H4.375Z" fill="#1F2937"/>
</g>
</g>
</svg>
