<svg width="20" height="21" viewBox="0 0 20 21" fill="none" xmlns="http://www.w3.org/2000/svg">
<path d="M17.6096 14.5083L19.6434 4.8546L18.5954 3.05402C18.5484 2.97331 18.4804 2.90688 18.3986 2.86183C18.3168 2.81678 18.2243 2.7948 18.131 2.79824C18.0376 2.80168 17.947 2.83042 17.8688 2.88137C17.7905 2.93232 17.7275 3.00358 17.6866 3.08753L16.703 5.1063L16.7036 5.10757C16.9331 5.57867 17.0019 6.11203 16.8994 6.62595C16.7969 7.13987 16.5287 7.606 16.1359 7.95294L13.8607 9.96277L12.314 7.87282C12.0712 7.54481 11.9231 7.15651 11.8856 6.75016C11.8482 6.3438 11.9229 5.93497 12.1017 5.56813L10.4632 2.20564C10.4209 2.11879 10.355 2.04559 10.2731 1.99438C10.1912 1.94317 10.0965 1.91602 9.99992 1.91602C9.90332 1.91602 9.80865 1.94317 9.72674 1.99438C9.64482 2.04559 9.57894 2.11879 9.53663 2.20564L7.89819 5.56813L7.89901 5.5698C8.07769 5.93649 8.15243 6.34516 8.1151 6.75136C8.07776 7.15757 7.92978 7.54576 7.68725 7.87375L6.14255 9.96277L3.86505 7.95212C3.47211 7.60521 3.20376 7.13903 3.10113 6.62501C2.9985 6.11099 3.06725 5.5775 3.29685 5.1063L2.31318 3.08753C2.27227 3.00358 2.20933 2.93233 2.13108 2.88137C2.05282 2.83042 1.96219 2.80169 1.86888 2.79825C1.77556 2.79481 1.68306 2.81679 1.60126 2.86184C1.51947 2.90688 1.45145 2.97331 1.40447 3.05402L0.356445 4.8546L2.39022 14.5083H17.6096ZM9.99991 7.70359L11.8799 10.4492L9.99991 13.1948L8.12 10.4492L9.99991 7.70359Z" fill="black"/>
<path d="M2.39043 16.3018L1.09668 19.0839H18.9036L17.6098 16.3018H2.39043Z" fill="black"/>
</svg>
