<svg width="20" height="21" viewBox="0 0 20 21" fill="none" xmlns="http://www.w3.org/2000/svg">
<g id="Group">
<path id="Vector" d="M10 20.5C15.5228 20.5 20 16.0228 20 10.5C20 4.97715 15.5228 0.5 10 0.5C4.47715 0.5 0 4.97715 0 10.5C0 16.0228 4.47715 20.5 10 20.5Z" fill="#627EEA"/>
<g id="Group_2">
<path id="Vector_2" d="M10.3105 3V8.54375L14.9962 10.6375L10.3105 3Z" fill="white" fill-opacity="0.602"/>
<path id="Vector_3" d="M10.3112 3L5.625 10.6375L10.3112 8.54375V3Z" fill="white"/>
<path id="Vector_4" d="M10.3105 14.2298V17.9966L14.9993 11.5098L10.3105 14.2298Z" fill="white" fill-opacity="0.602"/>
<path id="Vector_5" d="M10.3112 17.9966V14.2291L5.625 11.5098L10.3112 17.9966Z" fill="white"/>
<path id="Vector_6" d="M10.3105 13.358L14.9962 10.6374L10.3105 8.54492V13.358Z" fill="white" fill-opacity="0.2"/>
<path id="Vector_7" d="M5.625 10.6374L10.3112 13.358V8.54492L5.625 10.6374Z" fill="white" fill-opacity="0.602"/>
</g>
</g>
</svg>
