<svg width="47" height="48" viewBox="0 0 47 48" fill="none" xmlns="http://www.w3.org/2000/svg">
<path d="M47 12.4426C47 10.7405 45.6202 9.36062 43.918 9.36062C43.1774 9.36347 42.463 9.63537 41.9078 10.1257C39.6557 8.96998 36.6423 8.45529 33.1173 8.63713C30.8027 3.70675 27.4596 0.88521 23.8852 0.88521C22.7351 0.896068 21.6042 1.18247 20.5875 1.72042C19.4008 0.602072 17.5466 0.607168 16.366 1.73203C15.1853 2.85688 15.0906 4.70865 16.1503 5.94811C15.5843 6.8027 15.0846 7.69934 14.6555 8.63019C12.0771 8.43211 9.48526 8.75923 7.0369 9.59177C4.89498 10.2846 3.12953 11.8232 2.15044 13.8503C0.840608 16.8205 1.67505 20.438 4.14062 24.0331C1.87384 27.3408 1.06251 30.5746 1.82915 33.252C0.957682 33.9585 0.541258 35.0842 0.743209 36.1877C0.945161 37.2912 1.73329 38.1965 2.79846 38.5485C3.86363 38.9006 5.03601 38.6432 5.85574 37.8773C8.17506 38.9649 10.7183 39.4899 13.2787 39.4098C13.724 39.4098 14.1886 39.3844 14.6509 39.3605C16.9662 44.2916 20.3094 47.1147 23.8852 47.1147C27.4611 47.1147 30.802 44.2939 33.1157 39.3666C33.5734 39.3905 34.0311 39.4137 34.4741 39.4137C36.6035 39.4539 38.7231 39.1147 40.7336 38.412C42.8757 37.719 44.6411 36.1801 45.62 34.1527C46.9299 31.1825 46.0947 27.5658 43.6299 23.9707C45.8967 20.663 46.7118 17.43 45.9413 14.7517C46.6117 14.1714 46.9978 13.3292 47 12.4426ZM43.918 10.9016C44.7691 10.9016 45.459 11.5915 45.459 12.4426C45.459 13.2936 44.7691 13.9836 43.918 13.9836C43.067 13.9836 42.3771 13.2936 42.3771 12.4426C42.3771 11.5915 43.067 10.9016 43.918 10.9016ZM26.3154 36.6869C27.2076 36.3363 28.1037 35.9549 28.9959 35.5396C30.6021 34.7899 32.1629 33.9469 33.6705 33.0147C33.293 34.6418 32.7774 36.2337 32.1295 37.7733C30.1635 37.5815 28.218 37.2179 26.3154 36.6869ZM34.6721 24C34.6764 26.3155 34.4805 28.6271 34.0866 30.909C32.2575 32.1321 30.3377 33.2139 28.3441 34.145C26.8884 34.8251 25.3965 35.425 23.8752 35.9418C22.3614 35.4229 20.8765 34.8228 19.4272 34.1443C17.4363 33.2148 15.5174 32.1385 13.6862 30.9244C12.9045 26.3471 12.9045 21.6705 13.6862 17.0933C15.5153 15.8701 17.4351 14.7883 19.4287 13.8572C20.8806 13.1794 22.3683 12.5811 23.8852 12.065C27.4876 13.2897 30.9167 14.9746 34.0873 17.0779C34.4816 19.364 34.6773 21.68 34.6721 24ZM35.841 18.3145C38.049 19.9244 40.0284 21.8264 41.7252 23.9684C40.0375 26.1291 38.0583 28.0454 35.8441 29.6623C36.0925 27.7851 36.2158 25.8935 36.2131 24C36.216 22.0986 36.0917 20.1992 35.841 18.3145ZM15.6279 37.744C14.9879 36.2163 14.4789 34.637 14.1062 33.0232C15.6129 33.9491 17.1711 34.7888 18.773 35.5381C19.6683 35.9565 20.566 36.3294 21.4628 36.6815C19.5535 37.2093 17.6007 37.5648 15.6279 37.744ZM21.4443 11.3161C20.5552 11.6659 19.663 12.0458 18.7746 12.4595C17.1697 13.2096 15.6102 14.0529 14.1039 14.9852C14.4786 13.3621 14.9907 11.7737 15.6348 10.2374C17.5991 10.4268 19.5431 10.7872 21.4443 11.3161ZM11.9295 29.6854C9.72169 28.0753 7.74227 26.1734 6.04528 24.0316C7.73299 21.8708 9.71223 19.9546 11.9264 18.3376C11.4323 22.1041 11.4323 25.919 11.9264 29.6854H11.9295ZM28.9975 12.4618C28.1052 12.045 27.2107 11.6667 26.3161 11.3154C28.2228 10.789 30.1727 10.4344 32.1426 10.2559C32.7825 11.7834 33.2915 13.3624 33.6643 14.976C32.1574 14.0506 30.5993 13.2112 28.9975 12.4618ZM18.4918 2.42619C19.3429 2.42619 20.0328 3.11612 20.0328 3.96718C20.0328 4.81824 19.3429 5.50816 18.4918 5.50816C17.6407 5.50816 16.9508 4.81824 16.9508 3.96718C16.9508 3.11612 17.6407 2.42619 18.4918 2.42619ZM17.4062 6.84188C17.7524 6.9766 18.1203 7.04684 18.4918 7.04914C20.1939 7.04914 21.5738 5.6693 21.5738 3.96718C21.5695 3.64591 21.5143 3.32735 21.4104 3.02332C22.1791 2.63829 23.0256 2.43404 23.8852 2.42619C26.7199 2.42619 29.4497 4.72688 31.4761 8.77736C28.8957 9.06294 26.3526 9.62001 23.8891 10.4393C21.4227 9.61834 18.8777 9.05544 16.2951 8.75964C16.6258 8.0982 16.9969 7.45774 17.4062 6.84188ZM3.56044 14.4698C4.36858 12.819 5.82255 11.5753 7.57856 11.0326C9.42177 10.3884 11.365 10.078 13.3172 10.1157C13.5437 10.1157 13.7795 10.1342 14.0106 10.1404C13.2402 12.0948 12.6612 14.1194 12.2816 16.1856C9.58255 17.9969 7.16587 20.1971 5.1099 22.7148C3.17828 19.7338 2.52259 16.8167 3.56044 14.4698ZM3.85246 37.0983C3.0014 37.0983 2.31148 36.4084 2.31148 35.5573C2.31148 34.7063 3.0014 34.0164 3.85246 34.0164C4.70352 34.0164 5.39344 34.7063 5.39344 35.5573C5.39344 36.4084 4.70352 37.0983 3.85246 37.0983ZM6.74181 36.5952C6.8661 36.2631 6.93129 35.9119 6.93443 35.5573C6.93698 34.634 6.52428 33.7584 5.81045 33.1728C5.09662 32.5871 4.1573 32.3534 3.25225 32.5362C2.77762 30.4767 3.42715 27.9826 5.12146 25.3514C7.17997 27.8544 9.59414 30.0422 12.287 31.8451C12.6661 33.8971 13.2418 35.9078 14.006 37.8496C11.5193 38.0152 9.02896 37.5852 6.74181 36.5952ZM23.8852 45.5737C21.0506 45.5737 18.3208 43.273 16.2944 39.2226C18.8786 38.9352 21.4253 38.376 23.8922 37.5545C26.3541 38.3741 28.8944 38.9362 31.4723 39.2318C29.4459 43.2754 26.7176 45.5737 23.8852 45.5737ZM44.2101 33.5286C43.4021 35.1797 41.9481 36.4237 40.1919 36.9666C38.1239 37.6767 35.9388 37.983 33.7552 37.8688C34.5269 35.9121 35.1069 33.8853 35.4873 31.8166C38.1866 30.0053 40.6033 27.8048 42.659 25.2867C44.5922 28.2662 45.2479 31.1817 44.2101 33.5286ZM42.649 22.6485C40.5904 20.1455 38.1762 17.9575 35.4835 16.154C35.1045 14.1023 34.5288 12.0918 33.7645 10.1504C36.252 9.98414 38.7432 10.4142 41.031 11.4047C40.9059 11.7366 40.8399 12.0879 40.8361 12.4426C40.8335 13.3659 41.2462 14.2415 41.96 14.8272C42.6739 15.4128 43.6132 15.6466 44.5182 15.4637C44.9967 17.5232 44.3433 20.0173 42.649 22.6485Z" fill="#DBE64C"/>
<path d="M15.4098 19.3769V22.4589C15.4118 23.0293 15.6261 23.5787 16.0108 23.9999C15.6261 24.4211 15.4118 24.9704 15.4098 25.5408V28.6228C15.4098 29.8994 16.4447 30.9343 17.7213 30.9343H30.0492C31.3258 30.9343 32.3607 29.8994 32.3607 28.6228V25.5408C32.3586 24.9704 32.1444 24.4211 31.7597 23.9999C32.1444 23.5787 32.3586 23.0293 32.3607 22.4589V19.3769C32.3607 18.1003 31.3258 17.0654 30.0492 17.0654H17.7213C16.4447 17.0654 15.4098 18.1003 15.4098 19.3769ZM30.8197 28.6228C30.8197 29.0483 30.4747 29.3933 30.0492 29.3933H17.7213C17.2958 29.3933 16.9508 29.0483 16.9508 28.6228V25.5408C16.9508 25.1153 17.2958 24.7703 17.7213 24.7703H30.0492C30.4747 24.7703 30.8197 25.1153 30.8197 25.5408V28.6228ZM30.8197 19.3769V22.4589C30.8197 22.8844 30.4747 23.2294 30.0492 23.2294H17.7213C17.2958 23.2294 16.9508 22.8844 16.9508 22.4589V19.3769C16.9508 18.9514 17.2958 18.6064 17.7213 18.6064H30.0492C30.4747 18.6064 30.8197 18.9514 30.8197 19.3769Z" fill="#DBE64C"/>
<path d="M19.2623 21.6884H20.0328C20.4583 21.6884 20.8033 21.3435 20.8033 20.918C20.8033 20.4924 20.4583 20.1475 20.0328 20.1475H19.2623C18.8368 20.1475 18.4918 20.4924 18.4918 20.918C18.4918 21.3435 18.8368 21.6884 19.2623 21.6884Z" fill="#DBE64C"/>
<path d="M25.4262 21.6884H28.5082C28.9337 21.6884 29.2787 21.3435 29.2787 20.918C29.2787 20.4924 28.9337 20.1475 28.5082 20.1475H25.4262C25.0007 20.1475 24.6557 20.4924 24.6557 20.918C24.6557 21.3435 25.0007 21.6884 25.4262 21.6884Z" fill="#DBE64C"/>
<path d="M20.0328 26.3115H19.2623C18.8368 26.3115 18.4918 26.6565 18.4918 27.082C18.4918 27.5075 18.8368 27.8525 19.2623 27.8525H20.0328C20.4583 27.8525 20.8033 27.5075 20.8033 27.082C20.8033 26.6565 20.4583 26.3115 20.0328 26.3115Z" fill="#DBE64C"/>
<path d="M28.5082 26.3115H25.4262C25.0007 26.3115 24.6557 26.6565 24.6557 27.082C24.6557 27.5075 25.0007 27.8525 25.4262 27.8525H28.5082C28.9337 27.8525 29.2787 27.5075 29.2787 27.082C29.2787 26.6565 28.9337 26.3115 28.5082 26.3115Z" fill="#DBE64C"/>
</svg>
