<svg width="24" height="24" viewBox="0 0 24 24" fill="none" xmlns="http://www.w3.org/2000/svg">
<path d="M6.25356 16.2308C10.7231 17.9751 14.5267 18.3148 18.8369 15.5998C18.8053 15.6472 17.9527 16.9103 15.7106 17.5577C16.1843 18.2051 16.8317 18.9472 16.8317 18.9472C18.2685 18.9472 19.6738 18.5366 20.8895 17.7472C21.8369 17.1156 22.3737 16.0261 22.2632 14.8893C22.0737 12.9472 21.6158 11.0524 20.9053 9.23668C20.0053 6.86827 17.8422 5.22614 15.3317 4.98929C15.1106 4.97349 14.9527 4.97349 14.858 4.97349L14.6054 5.2261C17.4948 6.04716 18.9317 7.3261 18.9632 7.37349C14.5264 5.13136 9.28431 5.09982 4.81585 7.27875C4.81585 7.27875 6.23692 5.87349 9.37899 5.13136L9.18953 4.94189C8.85793 4.94189 8.54213 4.97349 8.21059 5.02083C5.88952 5.41557 3.94745 7.0103 3.11059 9.20504C2.38426 11.0998 1.91059 13.0892 1.73692 15.1103C1.64218 16.184 2.14745 17.2419 3.03165 17.8577C4.20006 18.6314 5.58952 19.0419 6.99479 19.0419C6.99479 19.0419 7.5632 18.2998 8.13165 17.6366C6.00006 17.005 5.13165 15.7419 5.11585 15.6945L5.51701 15.8993C5.75682 16.0219 6.00268 16.1329 6.25356 16.2308ZM8.73165 14.8577C7.70532 14.8261 6.90006 13.9577 6.93165 12.9156C6.96324 11.9366 7.75271 11.1472 8.73165 11.1156C9.75798 11.1472 10.5632 12.0156 10.5316 13.0577C10.4843 14.0367 9.71059 14.8261 8.73165 14.8577ZM15.1737 14.8577C14.1474 14.8261 13.3421 13.9577 13.3737 12.9156C13.4053 11.9366 14.1948 11.1472 15.1737 11.1156C16.2001 11.1472 17.0053 12.0156 16.9737 13.0577C16.9422 14.0367 16.1527 14.8261 15.1737 14.8577Z" fill="white"/>
</svg>
