<svg width="35" height="35" viewBox="0 0 35 35" fill="none" xmlns="http://www.w3.org/2000/svg">
<g clip-path="url(#clip0_52_1985)">
<path d="M17.5 34.6582C26.9762 34.6582 34.6582 26.9762 34.6582 17.5C34.6582 8.02379 26.9762 0.341797 17.5 0.341797C8.02379 0.341797 0.341797 8.02379 0.341797 17.5C0.341797 26.9762 8.02379 34.6582 17.5 34.6582Z" fill="#9CD3FC"/>
<path d="M17.5 31.2402C8.59961 31.2402 1.28516 24.4658 0.423828 15.791C0.369141 16.3516 0.341797 16.9258 0.341797 17.5C0.341797 26.9746 8.02539 34.6582 17.5 34.6582C26.9746 34.6582 34.6582 26.9746 34.6582 17.5C34.6582 16.9258 34.6309 16.3516 34.5762 15.791C33.7148 24.4658 26.4004 31.2402 17.5 31.2402Z" fill="#69BDFB"/>
<path d="M6.74023 17.5684C6.35742 15.8525 7.25293 14.1094 8.87305 13.4258L10.6641 12.667L13.6514 9.87109L14.1094 3.87598L10.6641 3.1377L10.0967 2.0166C7.18457 3.41113 4.72363 5.60547 3.00098 8.31934L3.00781 8.33984V13.4805C3.00781 14.2324 3.20605 14.9707 3.58203 15.6133L5.65332 19.1611C5.89258 19.5713 6.20703 19.9473 6.56934 20.2549C7.39648 20.959 7.91602 21.9434 8.03906 23.0234L8.26465 25.0742C8.42188 26.5371 9.33105 27.8154 10.6641 28.4443L11.252 28.7246C12.7354 29.4287 13.6787 30.9189 13.6787 32.5527V34.2275C14.3828 34.3848 15.1006 34.501 15.832 34.5762L18.7578 29.5996C19.1611 28.916 19.7559 28.3623 20.4736 28.0137L21.1094 27.6992C22.4971 27.0225 23.3789 25.6074 23.3789 24.0625L9.55664 20.4941L8.59961 19.9883C7.64941 19.4961 6.97266 18.6074 6.74023 17.5684Z" fill="#74C465"/>
<path d="M33.291 17.5C33.291 21.9912 22.5791 25.6348 9.36523 25.6348C9.36523 12.4209 13.0088 1.70898 17.5 1.70898C26.2227 1.70898 33.291 8.77734 33.291 17.5Z" fill="#DB3529"/>
<path d="M9.36523 25.6348C9.36523 12.4209 13.0088 1.70898 17.5 1.70898V17.5L9.36523 25.6348Z" fill="#B4271E"/>
<path d="M11.5049 23.4951C11.5049 13.6787 14.1914 5.72168 17.5 5.72168V17.5L11.5049 23.4951Z" fill="#B24E10"/>
<path d="M13.6514 21.3486C13.6514 14.9297 15.374 9.72754 17.5 9.72754V17.5L13.6514 21.3486Z" fill="#FFB234"/>
<path d="M11.5049 23.4951C21.3213 23.4951 29.2783 20.7812 29.2783 17.5H17.5L11.5049 23.4951Z" fill="#E36415"/>
<path d="M13.6514 21.3486C20.0703 21.3486 25.2725 19.6191 25.2725 17.5H17.5L13.6514 21.3486Z" fill="#F6F8ED"/>
<path d="M33.291 17.5C33.291 8.77734 26.2227 1.70898 17.5 1.70898V17.5H33.291Z" fill="#E25D56"/>
<path d="M29.2783 17.5C29.2783 10.9922 24.001 5.72168 17.5 5.72168V17.5H29.2783Z" fill="#EF8039"/>
<path d="M25.2725 17.5C25.2725 13.207 21.793 9.72754 17.5 9.72754V17.5H25.2725Z" fill="#F6F8ED"/>
<path d="M17.5 31.2402C16.0303 31.2402 14.6084 31.0557 13.248 30.707C13.5215 31.2744 13.6719 31.9033 13.6719 32.5527V34.2275C14.376 34.3848 15.0937 34.501 15.8252 34.5762L17.7871 31.2334C17.6914 31.2402 17.5957 31.2402 17.5 31.2402Z" fill="#74C465"/>
<path d="M21.2598 17.5C21.2598 18.457 18.8125 19.209 15.791 19.209C15.791 16.1875 16.5566 13.7402 17.5 13.7402C19.5781 13.7402 21.2598 15.4219 21.2598 17.5Z" fill="#FFDCA4"/>
</g>
<defs>
<clipPath id="clip0_52_1985">
<rect width="35" height="35" fill="white"/>
</clipPath>
</defs>
</svg>
