<svg width="64" height="64" viewBox="0 0 64 64" fill="none" xmlns="http://www.w3.org/2000/svg">
<path d="M63 39.74C61.4751 45.8868 58.1606 51.4429 53.4762 55.7048C48.7917 59.9668 42.948 62.7429 36.6848 63.6816C30.4216 64.6204 24.0208 63.6796 18.2926 60.9784C12.5645 58.2772 7.76665 53.937 4.50664 48.5074C1.24663 43.0777 -0.328959 36.8029 -0.0206391 30.4773C0.287681 24.1517 2.46605 18.0598 6.23864 12.973C10.0112 7.88613 15.2084 4.03311 21.1721 1.90176C27.1358 -0.229596 33.5978 -0.543432 39.74 0.999986C47.9548 3.06422 55.0161 8.30116 59.3762 15.563C63.7363 22.8248 65.0394 31.519 63 39.74Z" fill="#6E7CCA"/>
<g opacity="0.24">
<path d="M63.0001 39.7399C61.2776 46.6499 57.2994 52.7879 51.6953 57.1821C46.0912 61.5762 39.1815 63.9755 32.0601 63.9999C29.4291 63.9845 26.8098 63.6487 24.2601 62.9999C18.135 61.4584 12.6031 58.1387 8.36118 53.459C4.11926 48.7793 1.35707 42.949 0.422546 36.7024C-0.511982 30.4558 0.422948 24.0724 3.10957 18.3562C5.79619 12.6399 10.1143 7.8466 15.5201 4.57994C20.9435 1.33805 27.2054 -0.225708 33.5162 0.0857976C39.827 0.397303 45.9044 2.57013 50.9822 6.33037C56.0601 10.0906 59.911 15.27 62.0497 21.2155C64.1884 27.1611 64.5191 33.6067 63.0001 39.7399Z" fill="white"/>
</g>
<g opacity="0.3">
<path d="M62.09 21.1298L0.410027 37.1299C-0.863579 29.2616 0.845064 21.2013 5.20152 14.5266C9.55798 7.85186 16.2486 3.0432 23.9639 1.04184C31.6792 -0.959531 39.8636 -0.00953126 46.9153 3.70589C53.967 7.42132 59.3783 13.6347 62.09 21.1298Z" fill="white"/>
</g>
<path d="M57.2201 38.29C55.9775 43.2803 53.283 47.79 49.4772 51.2488C45.6715 54.7075 40.9255 56.96 35.8395 57.7213C30.7536 58.4826 25.5561 57.7186 20.9043 55.5258C16.2526 53.3331 12.3556 49.8101 9.70629 45.4024C7.05692 40.9947 5.77418 35.9003 6.02027 30.7636C6.26637 25.6269 8.03026 20.6785 11.0889 16.5442C14.1475 12.41 18.3634 9.27571 23.2034 7.53768C28.0435 5.79966 33.2902 5.53599 38.2801 6.78004C44.9696 8.44783 50.7229 12.7042 54.2747 18.6133C57.8265 24.5223 58.8859 31.6 57.2201 38.29Z" fill="#6E7CCA"/>
<path d="M32 39L32.26 39.25L43.92 32.36L32.28 13L32.02 13.86L32 39Z" fill="#FFFDFE"/>
<path d="M32.2801 39.25V13L20.6101 32.36L32.2801 39.25Z" fill="#B0E7FF"/>
<path d="M32.1299 50.5798L32.2799 50.9998L43.9999 34.5698L32.2799 41.4598L32.1299 41.6298V50.5798Z" fill="#FFFDFF"/>
<path d="M20.6101 34.5698L32.2801 50.9998V41.4598L20.6101 34.5698Z" fill="#B0E7FF"/>
<path d="M32.28 27.0601V39.2501L43.94 32.3601L32.28 27.0601Z" fill="#FFFDFF"/>
<path d="M32.2801 27.0601L20.6101 32.3601L32.2801 39.2501V27.0601Z" fill="#C8F7F7"/>
</svg>
