<svg width="64" height="64" viewBox="0 0 64 64" fill="none" xmlns="http://www.w3.org/2000/svg">
<path d="M63.0499 39.7498C61.526 45.8947 58.2136 51.4495 53.5318 55.7113C48.85 59.9731 43.0092 62.7504 36.7485 63.6917C30.4878 64.633 24.0886 63.696 18.3606 60.9994C12.6326 58.3027 7.83318 53.9676 4.56971 48.5424C1.30623 43.1173 -0.274648 36.8461 0.0270991 30.5222C0.328846 24.1983 2.49966 18.1061 6.26486 13.0164C10.0301 7.92661 15.2204 4.06811 21.1792 1.9291C27.1379 -0.20992 33.5973 -0.53332 39.7399 0.999819C47.9661 3.05301 55.0413 8.28693 59.4118 15.5523C63.7822 22.8177 65.0907 31.5205 63.0499 39.7498Z" fill="#0995FF"/>
<g opacity="0.24">
<path d="M31.9997 63.9998C29.3887 63.9815 26.7897 63.6457 24.2597 62.9998C16.0471 60.9355 8.98757 55.7001 4.62775 48.4406C0.26792 41.1811 -1.03669 32.4894 0.999725 24.2698C2.53239 18.1312 5.85042 12.5847 10.5345 8.33129C15.2185 4.07788 21.0584 1.30849 27.3159 0.373126C33.5735 -0.562242 39.9678 0.378396 45.691 3.07616C51.4141 5.77392 56.209 10.1077 59.4697 15.5298C62.3861 20.388 63.9602 25.9334 64.0311 31.5993C64.1021 37.2651 62.6673 42.8482 59.8735 47.7779C57.0796 52.7075 53.0269 56.8069 48.1296 59.657C43.2323 62.5072 37.666 64.0058 31.9997 63.9998ZM31.9997 5.99984C26.2002 6.00434 20.5687 7.94772 16.0007 11.5209C11.4327 15.0941 8.19053 20.092 6.78973 25.7198C5.8383 29.0724 5.57056 32.582 6.0024 36.04C6.43425 39.4981 7.55687 42.834 9.30355 45.8496C11.0502 48.8652 13.3853 51.4989 16.17 53.5941C18.9548 55.6894 22.1323 57.2034 25.5137 58.0462C28.8952 58.8891 32.4116 59.0436 35.8539 58.5005C39.2963 57.9574 42.5943 56.7278 45.552 54.8848C48.5097 53.0418 51.0668 50.623 53.0711 47.7722C55.0755 44.9214 56.4863 41.6967 57.2197 38.2898C58.8859 31.6012 57.8278 24.5247 54.278 18.6159C50.7283 12.7071 44.9774 8.44982 38.2897 6.77984C36.2322 6.26732 34.1202 6.00542 31.9997 5.99984Z" fill="white"/>
</g>
<g opacity="0.3">
<path d="M62.0898 21.1298L0.409783 37.1299C-0.863823 29.2616 0.84482 21.2013 5.20128 14.5266C9.55774 7.85186 16.2484 3.0432 23.9637 1.04184C31.6789 -0.959531 39.8634 -0.00953126 46.9151 3.70589C53.9668 7.42132 59.3781 13.6347 62.0898 21.1298Z" fill="white"/>
</g>
<path d="M57.2198 38.2899C55.9766 43.2804 53.2814 47.7901 49.475 51.2486C45.6686 54.707 40.922 56.959 35.8356 57.7195C30.7492 58.48 25.5515 57.715 20.8999 55.5212C16.2484 53.3274 12.3519 49.8033 9.70341 45.3947C7.05491 40.9862 5.77336 35.8912 6.02085 30.7542C6.26834 25.6172 8.03376 20.669 11.0938 16.5355C14.1538 12.4019 18.371 9.26877 23.2119 7.53227C28.0529 5.79578 33.3 5.53396 38.2898 6.77995C44.9775 8.44993 50.7283 12.7073 54.2781 18.616C57.8278 24.5248 58.8859 31.6013 57.2198 38.2899Z" fill="#0995FF"/>
<path fill-rule="evenodd" clip-rule="evenodd" d="M34.3598 28.8301L33.5498 33.1601L41.2898 34.2401L40.7598 36.3001L33.1598 35.2001C32.6198 36.9601 32.3398 38.8701 31.6698 40.4601C30.9998 42.0501 30.2298 44.2601 29.4798 46.0201C28.9951 47.1561 28.2296 48.1503 27.2554 48.9095C26.2811 49.6686 25.1299 50.1678 23.9098 50.3601C23.1696 50.532 22.4014 50.5461 21.6553 50.4014C20.9093 50.2566 20.2021 49.9564 19.5798 49.5201C19.3065 49.3584 19.0846 49.1227 18.9398 48.8401C18.7696 48.5172 18.7302 48.1412 18.8298 47.7901C18.885 47.5841 18.9728 47.3883 19.0898 47.2101C19.1887 47.0625 19.3252 46.944 19.4851 46.8666C19.6451 46.7893 19.8227 46.756 19.9998 46.7701H20.2598C20.5866 46.8225 20.8842 46.989 21.0998 47.2401C21.4073 47.5963 21.6693 47.9893 21.8798 48.4101C22.1595 48.8426 22.5953 49.1506 23.0964 49.2698C23.5975 49.389 24.1253 49.3103 24.5698 49.0501C24.6781 48.9848 24.7787 48.9076 24.8698 48.8201C26.0109 47.708 26.8091 46.292 27.1698 44.7401C27.9398 41.6601 28.7098 38.7401 29.3698 35.6501C29.4411 35.2944 29.4779 34.9328 29.4798 34.5701L22.2698 33.4901L22.5498 31.4901L29.9998 32.5501L30.9998 28.3501L23.2198 27.2001L23.5098 25.0001L31.5098 26.0901C31.7298 25.4201 31.8598 24.8501 32.0498 24.2901C32.1698 23.9701 32.2498 23.6301 32.3398 23.2901C32.9005 21.0087 33.8621 18.845 35.1798 16.9001C35.8438 15.8199 36.7845 14.9369 37.9045 14.3426C39.0245 13.7483 40.2831 13.4643 41.5498 13.5201C42.1586 13.4952 42.7655 13.603 43.3285 13.8361C43.8914 14.0692 44.3969 14.422 44.8098 14.8701C45.0094 15.0507 45.1489 15.2879 45.2098 15.5501C45.2602 15.9432 45.2085 16.3427 45.0598 16.7101C44.9983 16.8948 44.8841 17.0576 44.7313 17.1784C44.5785 17.2992 44.3938 17.3728 44.1998 17.3901C43.9839 17.4108 43.7663 17.3768 43.567 17.2911C43.3678 17.2055 43.1933 17.071 43.0598 16.9001C42.6998 16.5401 42.4398 16.1801 42.0598 15.8301C41.9738 15.735 41.8936 15.6349 41.8198 15.5301C41.6804 15.3331 41.5035 15.1657 41.2992 15.0375C41.0949 14.9092 40.8672 14.8226 40.6293 14.7826C40.3913 14.7426 40.1479 14.7501 39.9128 14.8046C39.6778 14.8591 39.4559 14.9595 39.2598 15.1001C39.1418 15.1834 39.0343 15.2808 38.9398 15.3901C38.2136 16.1471 37.6339 17.032 37.2298 18.0001C36.2298 20.8501 35.5998 23.8301 34.6698 26.7601L42.1298 27.8301L41.5898 29.8801L34.3898 28.7901" fill="white"/>
</svg>
