<svg width="16" height="16" viewBox="0 0 16 16" fill="none" xmlns="http://www.w3.org/2000/svg">
<g id="filter" clip-path="url(#clip0_2551_2415)">
<path id="Vector" d="M3.66674 3.33325H12.3334C12.4294 3.36692 12.5164 3.42213 12.5878 3.49463C12.6592 3.56713 12.7131 3.65501 12.7452 3.75153C12.7774 3.84806 12.7871 3.95066 12.7735 4.0515C12.7598 4.15233 12.7233 4.24871 12.6667 4.33325L9.3334 7.99992V12.6666L6.66674 10.6666V7.99992L3.3334 4.33325C3.2768 4.24871 3.2403 4.15233 3.22669 4.0515C3.21309 3.95066 3.22274 3.84806 3.25491 3.75153C3.28709 3.65501 3.34093 3.56713 3.41231 3.49463C3.4837 3.42213 3.57073 3.36692 3.66674 3.33325Z" stroke="black" stroke-linecap="round" stroke-linejoin="round"/>
</g>
<defs>
<clipPath id="clip0_2551_2415">
<rect width="16" height="16" fill="white"/>
</clipPath>
</defs>
</svg>
