<svg width="24" height="25" viewBox="0 0 24 25" fill="none" xmlns="http://www.w3.org/2000/svg">
<path fill-rule="evenodd" clip-rule="evenodd" d="M9 0.5H15V1.5H18V2.5H19V3.5H20V4.5H21V5.5H22V6.5H23V8.5V9.5H24V11.5V12.5V13.5V15.5H23V16.5V18.5H22V19.5H21V20.5H20V21.5H19V22.5H18V23.5H15V24.5H9V23.5H6V22.5H5V21.5H4V20.5H3V19.5H2V18.5H1V16.5V15.5H0V13.5V12.5V11.5V9.5H1V8.5V6.5H2V5.5H3V4.5H4V3.5H5V2.5H6V1.5H9V0.5ZM6 13.5V16.5H3V15.5H2V13.5H6ZM8 13.5H16V16.5H8V13.5ZM18 13.5V16.5H21V15.5H22V13.5H18ZM6 8.5V11.5H2V9.5H3V8.5H6ZM8 11.5H16V8.5H8V11.5ZM22 9.5V11.5H18V8.5H21V9.5H22ZM20 18.5H17V19.5V20.5H16V21.5H15V22.5H17V21.5H18V20.5H19V19.5H20V18.5ZM15 18.5H9V19.5V20.5H10V21.5H11V22.5H13V21.5H14V20.5H15V19.5V18.5ZM7 18.5H4V19.5H5V20.5H6V21.5H7V22.5H9V21.5H8V20.5H7V19.5V18.5ZM7 6.5H4V5.5H5V4.5H6V3.5H7V2.5H9V3.5H8V4.5H7V5.5V6.5ZM15 6.5H9V5.5V4.5H10V3.5H11V2.5H13V3.5H14V4.5H15V5.5V6.5ZM20 6.5H17V5.5V4.5H16V3.5H15V2.5H17V3.5H18V4.5H19V5.5H20V6.5Z" fill="#494A79"/>
</svg>
