<svg width="21" height="21" viewBox="0 0 21 21" fill="none" xmlns="http://www.w3.org/2000/svg">
<path d="M18.7262 11.2299C18.742 11.0231 18.75 10.8142 18.75 10.6034C18.75 9.33323 18.4586 8.13117 17.9389 7.06039C16.908 8.03901 15.681 8.81298 14.3228 9.31721C14.3574 9.74137 14.375 10.1703 14.375 10.6034C14.375 11.521 14.2959 12.4202 14.1441 13.2945C15.8052 12.8765 17.3515 12.1694 18.7262 11.2299Z" fill="#001F3E"/>
<path d="M12.8203 13.5618C13.02 12.607 13.125 11.6175 13.125 10.6034C13.125 10.2964 13.1154 9.99165 13.0964 9.68944C12.3034 9.87836 11.4759 9.97838 10.625 9.97838C9.77413 9.97838 8.94662 9.87836 8.15358 9.68944C8.13462 9.99165 8.125 10.2964 8.125 10.6034C8.125 11.6175 8.23001 12.607 8.42975 13.5618C9.14548 13.6715 9.8786 13.7284 10.625 13.7284C11.3714 13.7284 12.1045 13.6715 12.8203 13.5618Z" fill="#001F3E"/>
<path d="M8.76853 14.8692C9.37732 14.9413 9.99683 14.9784 10.625 14.9784C11.2532 14.9784 11.8727 14.9413 12.4815 14.8692C12.0533 16.2489 11.4229 17.5397 10.625 18.7067C9.82706 17.5397 9.19668 16.2489 8.76853 14.8692Z" fill="#001F3E"/>
<path d="M7.10588 13.2945C6.95411 12.4202 6.875 11.521 6.875 10.6034C6.875 10.1703 6.89262 9.74137 6.92718 9.31721C5.56905 8.81298 4.34199 8.03901 3.31111 7.06039C2.79145 8.13117 2.5 9.33323 2.5 10.6034C2.5 10.8142 2.50803 11.0231 2.5238 11.2299C3.89855 12.1694 5.44478 12.8765 7.10588 13.2945Z" fill="#001F3E"/>
<path d="M18.4217 12.8972C17.5753 15.7788 15.1748 17.9955 12.1896 18.5779C12.9116 17.3637 13.4738 16.0433 13.847 14.6458C15.4802 14.3034 17.0196 13.706 18.4217 12.8972Z" fill="#001F3E"/>
<path d="M2.82829 12.8972C4.23035 13.706 5.76977 14.3034 7.40297 14.6458C7.77622 16.0433 8.33835 17.3637 9.06035 18.5779C6.07523 17.9955 3.6747 15.7788 2.82829 12.8972Z" fill="#001F3E"/>
<path d="M12.1896 2.6289C14.291 3.03881 16.1026 4.2586 17.2864 5.95009C16.4043 6.8408 15.3448 7.55553 14.1652 8.03691C13.8434 6.08912 13.1613 4.26287 12.1896 2.6289Z" fill="#001F3E"/>
<path d="M10.625 2.5C11.8156 4.24133 12.6331 6.25791 12.9625 8.43463C12.2153 8.6264 11.432 8.72838 10.625 8.72838C9.81796 8.72838 9.03475 8.6264 8.28753 8.43463C8.61692 6.25791 9.43444 4.24133 10.625 2.5Z" fill="#001F3E"/>
<path d="M9.06035 2.62889C8.08873 4.26287 7.40663 6.08912 7.08476 8.03691C5.90524 7.55553 4.84574 6.8408 3.96362 5.95009C5.14741 4.2586 6.95904 3.03881 9.06035 2.62889Z" fill="#001F3E"/>
</svg>
