<svg width="24" height="24" viewBox="0 0 24 24" fill="none" xmlns="http://www.w3.org/2000/svg">
<g id="icon.ico">
<path id="Icon" fill-rule="evenodd" clip-rule="evenodd" d="M9 0H15V1H18V2H19V3H20V4H21V5H22V6H23V8V9H24V11V12V13V15H23V16V18H22V19H21V20H20V21H19V22H18V23H15V24H9V23H6V22H5V21H4V20H3V19H2V18H1V16V15H0V13V12V11V9H1V8V6H2V5H3V4H4V3H5V2H6V1H9V0ZM6 13V16H3V15H2V13H6ZM8 13H16V16H8V13ZM18 13V16H21V15H22V13H18ZM6 8V11H2V9H3V8H6ZM8 11H16V8H8V11ZM22 9V11H18V8H21V9H22ZM20 18H17V19V20H16V21H15V22H17V21H18V20H19V19H20V18ZM15 18H9V19V20H10V21H11V22H13V21H14V20H15V19V18ZM7 18H4V19H5V20H6V21H7V22H9V21H8V20H7V19V18ZM7 6H4V5H5V4H6V3H7V2H9V3H8V4H7V5V6ZM15 6H9V5V4H10V3H11V2H13V3H14V4H15V5V6ZM20 6H17V5V4H16V3H15V2H17V3H18V4H19V5H20V6Z" fill="#290D9B"/>
</g>
</svg>
