<svg width="15" height="15" viewBox="0 0 15 15" fill="none" xmlns="http://www.w3.org/2000/svg">
<g id="Info">
<path id="Icon" fill-rule="evenodd" clip-rule="evenodd" d="M13.125 2.5V3.125H13.75V11.875H13.125V12.5H12.5V13.125H11.875V13.75H3.125V13.125H2.5V12.5H1.875V11.875H1.25V3.125H1.875V2.5H2.5V1.875H3.125V1.25H11.875V1.875H12.5V2.5H13.125ZM11.875 10.625H12.5V4.375H11.875V3.75H11.25V3.125H10.625V2.5H4.375V3.125H3.75V3.75H3.125V4.375H2.5V10.625H3.125V11.25H3.75V11.875H4.375V12.5H10.625V11.875H11.25V11.25H11.875V10.625ZM8.125 3.75H6.875V5H8.125V3.75ZM8.125 6.25H6.875V11.25H8.125V6.25Z" fill="#171717"/>
</g>
</svg>
