<svg width="15" height="16" viewBox="0 0 15 16" fill="none" xmlns="http://www.w3.org/2000/svg">
<g clip-path="url(#clip0_52_2276)">
<path d="M8.81836 8C8.81836 8.77661 8.22807 9.40625 7.5 9.40625C6.77193 9.40625 6.18164 8.77661 6.18164 8C6.18164 7.22339 6.77193 6.59375 7.5 6.59375C8.22807 6.59375 8.81836 7.22339 8.81836 8Z" fill="#74C465"/>
<path d="M9.72656 3.75H5.27344C4.30412 3.75 3.51562 4.59106 3.51562 5.625V10.375C3.51562 11.4089 4.30412 12.25 5.27344 12.25H9.72656C10.6959 12.25 11.4844 11.4089 11.4844 10.375V5.625C11.4844 4.59106 10.6959 3.75 9.72656 3.75ZM7.5 10.3438C6.28841 10.3438 5.30273 9.29236 5.30273 8C5.30273 6.70764 6.28841 5.65625 7.5 5.65625C8.71159 5.65625 9.69727 6.70764 9.69727 8C9.69727 9.29236 8.71159 10.3438 7.5 10.3438ZM10.0195 5.78125C9.7768 5.78125 9.58008 5.57141 9.58008 5.3125C9.58008 5.05359 9.7768 4.84375 10.0195 4.84375C10.2623 4.84375 10.459 5.05359 10.459 5.3125C10.459 5.57141 10.2623 5.78125 10.0195 5.78125Z" fill="#74C465"/>
<path d="M11.0449 0H3.95508C1.77429 0 0 1.89258 0 4.21875V11.7812C0 14.1074 1.77429 16 3.95508 16H11.0449C13.2257 16 15 14.1074 15 11.7812V4.21875C15 1.89258 13.2257 0 11.0449 0ZM12.3633 10.375C12.3633 11.9258 11.1804 13.1875 9.72656 13.1875H5.27344C3.81958 13.1875 2.63672 11.9258 2.63672 10.375V5.625C2.63672 4.07422 3.81958 2.8125 5.27344 2.8125H9.72656C11.1804 2.8125 12.3633 4.07422 12.3633 5.625V10.375Z" fill="#74C465"/>
</g>
<defs>
<clipPath id="clip0_52_2276">
<rect width="15" height="16" fill="white"/>
</clipPath>
</defs>
</svg>
