<svg width="25" height="24" viewBox="0 0 25 24" fill="none" xmlns="http://www.w3.org/2000/svg">
<path fill-rule="evenodd" clip-rule="evenodd" d="M5.5 2H19.5V3H20.5V4H21.5V5H22.5V6V18V19H21.5V20H20.5V21H19.5V22H5.5V21H4.5V20H3.5V19H2.5V18V6V5H3.5V4H4.5V3H5.5V2ZM20.5 18V6H19.5V5H18.5V4H6.5V5H5.5V6H4.5V18H5.5V19H6.5V20H18.5V19H19.5V18H20.5ZM17.5 6H18.5V7H17.5V6ZM9.5 7H15.5V8H16.5V9H17.5V10V14V15H16.5V16H15.5V17H9.5V16H8.5V15H7.5V14V10V9H8.5V8H9.5V7ZM14.5 14V15H10.5V14H9.5V10H10.5V9H14.5V10H15.5V14H14.5Z" fill="#F6F8ED"/>
</svg>
