<svg width="13" height="13" viewBox="0 0 13 13" fill="none" xmlns="http://www.w3.org/2000/svg">
<path fill-rule="evenodd" clip-rule="evenodd" d="M4.432 0.151978C4.08579 0.151978 3.77366 0.360535 3.64117 0.680399C3.50867 1.00026 3.58191 1.36844 3.82672 1.61326L4.432 2.21854V5.43483C4.432 5.66186 4.34182 5.87958 4.18129 6.04011L0.757296 9.46411C-0.860449 11.0819 0.285302 13.8479 2.57314 13.8479H11.4269C13.7147 13.8479 14.8605 11.0819 13.2427 9.46411L9.81871 6.04011C9.65818 5.87958 9.56799 5.66186 9.56799 5.43483V2.21854L10.1733 1.61326C10.4181 1.36844 10.4913 1.00026 10.3588 0.680399C10.2263 0.360535 9.91421 0.151978 9.56799 0.151978H4.432ZM6.144 5.43483V1.86397H7.856V5.43483C7.856 6.11591 8.12655 6.76909 8.60815 7.25068L9.48773 8.13026C8.87412 7.98752 8.23076 8.01641 7.62919 8.21693L7.22672 8.35109C6.52389 8.58537 5.76403 8.58537 5.0612 8.35109L4.57974 8.1906C4.54714 8.17974 4.51437 8.1699 4.48146 8.16107L5.39185 7.25068C5.87345 6.76909 6.144 6.11591 6.144 5.43483Z" fill="#F9FAFB"/>
</svg>
