<svg width="57" height="55" viewBox="0 0 57 55" fill="none" xmlns="http://www.w3.org/2000/svg">
<g filter="url(#filter0_d_953_3748)">
<rect width="50" height="50" rx="6" fill="#71A9FD"/>
</g>
<path d="M8.17188 31V19.8281H10.3203L14.1094 28.3047L17.8203 19.8281H19.8906V31H17.9766V23.2188L14.9453 31H13.1797L10.0859 23.2188V31H8.17188ZM17.9759 19.8281H20.0775L21.2728 27.8516L24.1791 19.8281H26.1713L28.89 27.5391L30.1556 19.8281H32.1947L30.0931 31H28.1244L25.0541 22.2344L21.7572 31H19.8119L17.9759 19.8281ZM31.4284 31H29.3034L34.0456 19.8281H36.2722L41.1159 31H38.8894L37.6159 27.9531H33.905L34.6159 26.1562H36.8659L35.1081 21.9609L31.4284 31Z" fill="#FEFEFE"/>
<defs>
<filter id="filter0_d_953_3748" x="0" y="0" width="57" height="55" filterUnits="userSpaceOnUse" color-interpolation-filters="sRGB">
<feFlood flood-opacity="0" result="BackgroundImageFix"/>
<feColorMatrix in="SourceAlpha" type="matrix" values="0 0 0 0 0 0 0 0 0 0 0 0 0 0 0 0 0 0 127 0" result="hardAlpha"/>
<feOffset dx="7" dy="5"/>
<feComposite in2="hardAlpha" operator="out"/>
<feColorMatrix type="matrix" values="0 0 0 0 0.0509804 0 0 0 0 0.0509804 0 0 0 0 0.101961 0 0 0 1 0"/>
<feBlend mode="normal" in2="BackgroundImageFix" result="effect1_dropShadow_953_3748"/>
<feBlend mode="normal" in="SourceGraphic" in2="effect1_dropShadow_953_3748" result="shape"/>
</filter>
</defs>
</svg>
