<svg width="35" height="36" viewBox="0 0 35 36" fill="none" xmlns="http://www.w3.org/2000/svg">
<path fill-rule="evenodd" clip-rule="evenodd" d="M6.01562 4.875C4.50547 4.875 3.28125 6.09922 3.28125 7.60938V26.75C3.28125 29.1662 5.24 31.125 7.65625 31.125H29.5312C27.115 31.125 25.1562 29.1662 25.1562 26.75V7.60938C25.1562 6.09922 23.932 4.875 22.4219 4.875H6.01562ZM17.5 14.7188C16.8959 14.7188 16.4062 15.2084 16.4062 15.8125C16.4062 16.4166 16.8959 16.9062 17.5 16.9062H19.6875C20.2916 16.9062 20.7812 16.4166 20.7812 15.8125C20.7812 15.2084 20.2916 14.7188 19.6875 14.7188H17.5ZM16.4062 11.4375C16.4062 10.8334 16.8959 10.3438 17.5 10.3438H19.6875C20.2916 10.3438 20.7812 10.8334 20.7812 11.4375C20.7812 12.0416 20.2916 12.5312 19.6875 12.5312H17.5C16.8959 12.5312 16.4062 12.0416 16.4062 11.4375ZM8.75 19.0938C8.14594 19.0938 7.65625 19.5834 7.65625 20.1875C7.65625 20.7916 8.14594 21.2812 8.75 21.2812H19.6875C20.2916 21.2812 20.7812 20.7916 20.7812 20.1875C20.7812 19.5834 20.2916 19.0938 19.6875 19.0938H8.75ZM7.65625 24.5625C7.65625 23.9584 8.14594 23.4688 8.75 23.4688H19.6875C20.2916 23.4688 20.7812 23.9584 20.7812 24.5625C20.7812 25.1666 20.2916 25.6562 19.6875 25.6562H8.75C8.14594 25.6562 7.65625 25.1666 7.65625 24.5625ZM8.75 10.3438C8.14594 10.3438 7.65625 10.8334 7.65625 11.4375V15.8125C7.65625 16.4166 8.14594 16.9062 8.75 16.9062H13.125C13.7291 16.9062 14.2188 16.4166 14.2188 15.8125V11.4375C14.2188 10.8334 13.7291 10.3438 13.125 10.3438H8.75Z" fill="url(#paint0_linear_257_1696)"/>
<path d="M27.3438 10.3438H30.0781C30.9842 10.3438 31.7188 11.0783 31.7188 11.9844V26.75C31.7188 27.9581 30.7394 28.9375 29.5312 28.9375C28.3231 28.9375 27.3438 27.9581 27.3438 26.75V10.3438Z" fill="url(#paint1_linear_257_1696)"/>
<defs>
<linearGradient id="paint0_linear_257_1696" x1="4.10724" y1="4.875" x2="35.7789" y2="25.3451" gradientUnits="userSpaceOnUse">
<stop stop-color="#E6A940"/>
<stop offset="0.195469" stop-color="#FFFBE0"/>
<stop offset="0.360469" stop-color="#EDCB46"/>
<stop offset="0.650469" stop-color="#F9D998"/>
<stop offset="0.825469" stop-color="#816B36"/>
<stop offset="1" stop-color="#D0A72B"/>
</linearGradient>
<linearGradient id="paint1_linear_257_1696" x1="4.10724" y1="4.875" x2="35.7789" y2="25.3451" gradientUnits="userSpaceOnUse">
<stop stop-color="#E6A940"/>
<stop offset="0.195469" stop-color="#FFFBE0"/>
<stop offset="0.360469" stop-color="#EDCB46"/>
<stop offset="0.650469" stop-color="#F9D998"/>
<stop offset="0.825469" stop-color="#816B36"/>
<stop offset="1" stop-color="#D0A72B"/>
</linearGradient>
</defs>
</svg>
