<svg width="25" height="25" viewBox="0 0 25 25" fill="none" xmlns="http://www.w3.org/2000/svg">
<g clip-path="url(#clip0_1_21432)">
<path d="M6.66653 5.41702V3.75038C6.66653 3.52029 6.47997 3.33372 6.24988 3.33372H0.416658C0.18656 3.33372 0 3.52029 0 3.75038V5.41702H6.66653Z" fill="black"/>
<path d="M0 6.25034V20.0001H6.66653V6.25034H0ZM4.9999 11.6669H1.66663C1.43654 11.6669 1.24997 11.4803 1.24997 11.2502V7.91697C1.24997 7.68687 1.43654 7.50031 1.66663 7.50031H4.9999C5.23 7.50031 5.41656 7.68687 5.41656 7.91697V11.2502C5.41656 11.4803 5.23 11.6669 4.9999 11.6669Z" fill="black"/>
<path d="M0 22.5V24.5833C0 24.8134 0.18656 25 0.416658 25H6.24988C6.47997 25 6.66653 24.8134 6.66653 24.5833V22.5H0Z" fill="black"/>
<path d="M0 20.8334H6.66653V21.6667H0V20.8334Z" fill="black"/>
<path d="M7.49988 20.8334H12.9164V21.6667H7.49988V20.8334Z" fill="black"/>
<path d="M12.9164 1.66709V0.417116C12.9164 0.187018 12.7299 0.000457764 12.4998 0.000457764H7.91654C7.68644 0.000457764 7.49988 0.187018 7.49988 0.417116V1.66709H12.9164Z" fill="black"/>
<path d="M7.49988 4.58369H12.9164V20.0001H7.49988V4.58369Z" fill="black"/>
<path d="M7.49988 22.5V24.5833C7.49988 24.8134 7.68644 25 7.91654 25H12.4998C12.7299 25 12.9164 24.8134 12.9164 24.5833V22.5H7.49988Z" fill="black"/>
<path d="M7.49988 2.5004H12.9164V3.75037H7.49988V2.5004Z" fill="black"/>
<path d="M13.7397 8.62862L13.9627 9.48452L21.0191 7.60285L20.7959 6.74695L13.7397 8.62862Z" fill="black"/>
<path d="M17.2218 21.9763L24.2779 20.0947L23.8311 18.3818L16.7746 20.2635L17.2218 21.9763Z" fill="black"/>
<path d="M23.6207 17.5756L21.2296 8.4091L14.1731 10.2908L16.5642 19.4573L23.6207 17.5756Z" fill="black"/>
<path d="M13.5294 7.82236L20.5853 5.94089L19.9872 3.64622C19.9255 3.42405 19.6985 3.2912 19.4747 3.34634L13.2248 5.01297C13.0041 5.07339 12.8724 5.29942 12.9288 5.52118L13.5294 7.82236Z" fill="black"/>
<path d="M24.4882 20.9009L17.4317 22.7826L17.9287 24.6875C17.9576 24.7949 18.028 24.8864 18.1246 24.9418C18.1875 24.9798 18.2595 24.9999 18.333 24.9999C18.3694 24.9999 18.4058 24.9957 18.4412 24.9875L24.6911 23.3209C24.9118 23.2605 25.0434 23.0342 24.9871 22.8125L24.4882 20.9009Z" fill="black"/>
</g>
<defs>
<clipPath id="clip0_1_21432">
<rect width="25" height="25" fill="white"/>
</clipPath>
</defs>
</svg>
