<svg width="16" height="16" viewBox="0 0 16 16" fill="none" xmlns="http://www.w3.org/2000/svg">
<g id="live-photo" clip-path="url(#clip0_2551_1749)">
<path id="Vector" d="M8.00016 8.66671C8.36835 8.66671 8.66683 8.36823 8.66683 8.00004C8.66683 7.63185 8.36835 7.33337 8.00016 7.33337C7.63197 7.33337 7.3335 7.63185 7.3335 8.00004C7.3335 8.36823 7.63197 8.66671 8.00016 8.66671Z" stroke="black" stroke-linecap="round" stroke-linejoin="round"/>
<path id="Vector_2" d="M7.99984 11.3333C9.84079 11.3333 11.3332 9.84091 11.3332 7.99996C11.3332 6.15901 9.84079 4.66663 7.99984 4.66663C6.15889 4.66663 4.6665 6.15901 4.6665 7.99996C4.6665 9.84091 6.15889 11.3333 7.99984 11.3333Z" stroke="black" stroke-linecap="round" stroke-linejoin="round"/>
<path id="Vector_3" d="M10.6001 13.4066V13.4133" stroke="black" stroke-linecap="round" stroke-linejoin="round"/>
<path id="Vector_4" d="M12.6934 11.74V11.7467" stroke="black" stroke-linecap="round" stroke-linejoin="round"/>
<path id="Vector_5" d="M13.8467 9.33337V9.34004" stroke="black" stroke-linecap="round" stroke-linejoin="round"/>
<path id="Vector_6" d="M13.8467 6.66663V6.67329" stroke="black" stroke-linecap="round" stroke-linejoin="round"/>
<path id="Vector_7" d="M12.6934 4.26001V4.26668" stroke="black" stroke-linecap="round" stroke-linejoin="round"/>
<path id="Vector_8" d="M10.6001 2.59338V2.60005" stroke="black" stroke-linecap="round" stroke-linejoin="round"/>
<path id="Vector_9" d="M8 2V2.00667" stroke="black" stroke-linecap="round" stroke-linejoin="round"/>
<path id="Vector_10" d="M5.3999 2.59338V2.60005" stroke="black" stroke-linecap="round" stroke-linejoin="round"/>
<path id="Vector_11" d="M3.30664 4.26001V4.26668" stroke="black" stroke-linecap="round" stroke-linejoin="round"/>
<path id="Vector_12" d="M2.15332 6.66663V6.67329" stroke="black" stroke-linecap="round" stroke-linejoin="round"/>
<path id="Vector_13" d="M2.15332 9.33337V9.34004" stroke="black" stroke-linecap="round" stroke-linejoin="round"/>
<path id="Vector_14" d="M3.30664 11.74V11.7467" stroke="black" stroke-linecap="round" stroke-linejoin="round"/>
<path id="Vector_15" d="M5.3999 13.4066V13.4133" stroke="black" stroke-linecap="round" stroke-linejoin="round"/>
<path id="Vector_16" d="M8 14V14.0067" stroke="black" stroke-linecap="round" stroke-linejoin="round"/>
</g>
<defs>
<clipPath id="clip0_2551_1749">
<rect width="16" height="16" fill="white"/>
</clipPath>
</defs>
</svg>
