<svg width="15" height="15" viewBox="0 0 15 15" fill="none" xmlns="http://www.w3.org/2000/svg">
<g id="Media / Icon/Filled/lock-closed">
<path id="Icon" fill-rule="evenodd" clip-rule="evenodd" d="M4.1874 6.8876V5.6626C4.1874 3.97123 5.55853 2.6001 7.2499 2.6001C8.94127 2.6001 10.3124 3.97123 10.3124 5.6626V6.8876C10.989 6.8876 11.5374 7.43605 11.5374 8.1126V11.1751C11.5374 11.8516 10.989 12.4001 10.3124 12.4001H4.1874C3.51085 12.4001 2.9624 11.8516 2.9624 11.1751V8.1126C2.9624 7.43605 3.51085 6.8876 4.1874 6.8876ZM9.0874 5.6626V6.8876H5.4124V5.6626C5.4124 4.64777 6.23508 3.8251 7.2499 3.8251C8.26473 3.8251 9.0874 4.64777 9.0874 5.6626Z" fill="#E4E5FF"/>
</g>
</svg>
