<svg width="21" height="20" viewBox="0 0 21 20" fill="none" xmlns="http://www.w3.org/2000/svg">
<g id="Media / Icon/Filled/md-library">
<g id="Union">
<path d="M10.1534 1.97997C10.3633 1.84001 10.6368 1.84001 10.8468 1.97997L18.3468 6.97997C18.634 7.17144 18.7116 7.55948 18.5201 7.84669C18.3286 8.13389 17.9406 8.2115 17.6534 8.02003L10.5001 3.25116L3.34675 8.02003C3.05955 8.2115 2.67151 8.13389 2.48003 7.84669C2.28856 7.55948 2.36617 7.17144 2.65338 6.97997L10.1534 1.97997Z" fill="black"/>
<path fill-rule="evenodd" clip-rule="evenodd" d="M17.375 8.61042V16.875H18C18.3452 16.875 18.625 17.1548 18.625 17.5C18.625 17.8452 18.3452 18.125 18 18.125H3C2.65482 18.125 2.375 17.8452 2.375 17.5C2.375 17.1548 2.65482 16.875 3 16.875H3.625V8.61042C3.625 8.30264 3.84906 8.04068 4.15312 7.99297C6.22148 7.66843 8.34128 7.5 10.5 7.5C12.6587 7.5 14.7785 7.66843 16.8469 7.99297C17.1509 8.04068 17.375 8.30264 17.375 8.61042ZM11.125 10.625C11.125 10.2798 10.8452 10 10.5 10C10.1548 10 9.875 10.2798 9.875 10.625V16.25C9.875 16.5952 10.1548 16.875 10.5 16.875C10.8452 16.875 11.125 16.5952 11.125 16.25V10.625ZM13.625 10C13.9702 10 14.25 10.2798 14.25 10.625V16.25C14.25 16.5952 13.9702 16.875 13.625 16.875C13.2798 16.875 13 16.5952 13 16.25V10.625C13 10.2798 13.2798 10 13.625 10ZM8 10.625C8 10.2798 7.72018 10 7.375 10C7.02982 10 6.75 10.2798 6.75 10.625V16.25C6.75 16.5952 7.02982 16.875 7.375 16.875C7.72018 16.875 8 16.5952 8 16.25V10.625Z" fill="black"/>
<path d="M10.5 6.5625C11.0178 6.5625 11.4375 6.14277 11.4375 5.625C11.4375 5.10723 11.0178 4.6875 10.5 4.6875C9.98223 4.6875 9.5625 5.10723 9.5625 5.625C9.5625 6.14277 9.98223 6.5625 10.5 6.5625Z" fill="black"/>
</g>
</g>
</svg>
