<svg width="125" height="27" viewBox="0 0 125 27" fill="none" xmlns="http://www.w3.org/2000/svg">
<path d="M11.4332 0.167822V11.7475H10.2615V2.50055L6.14349 11.7475H5.28976L1.17178 2.53412V11.7475H0V0.167822H1.23874L5.70825 10.2036L10.1778 0.167822H11.4332ZM15.2632 0.973372V5.35353H19.6992V6.32689H15.2632V10.7742H20.2014V11.7475H14.0914V0H20.2014V0.973372H15.2632ZM31.3322 11.7475H30.1604L23.6821 1.87961V11.7475H22.5103V0.0167828H23.6821L30.1604 9.86794V0.0167828H31.3322V11.7475ZM40.8328 0.0167828V0.990155H37.5852V11.7475H36.4135V0.990155H33.1492V0.0167828H40.8328ZM49.4626 8.9617H44.1394L43.1183 11.7475H41.8795L46.1482 0.167822H47.4706L51.7225 11.7475H50.4838L49.4626 8.9617ZM49.1111 7.98834L46.801 1.64466L44.4909 7.98834H49.1111ZM54.7749 10.791H58.9766V11.7475H53.6031V0.0167828H54.7749V10.791ZM79.4378 0.0167828L76.1234 11.7475H74.8177L71.8715 1.74535L68.8583 11.7475L67.5861 11.7643L64.3386 0.0167828H65.5941L68.2724 10.3043L71.2688 0.0167828H72.5745L75.4873 10.3043L78.1824 0.0167828H79.4378ZM82.4021 0.973372V5.35353H86.8381V6.32689H82.4021V10.7742H87.3403V11.7475H81.2303V0H87.3403V0.973372H82.4021ZM96.4287 8.9617H91.1056L90.0844 11.7475H88.8457L93.114 0.167822H94.4371L98.6886 11.7475H97.4502L96.4287 8.9617ZM96.0767 7.98834L93.7675 1.64466L91.4571 7.98834H96.0767ZM101.741 10.791H105.942V11.7475H100.57V0.0167828H101.741V10.791ZM114.461 0.0167828V0.990155H111.214V11.7475H110.043V0.990155H106.778V0.0167828H114.461ZM125 0.0167828V11.7475H123.828V6.25976H117.483V11.7475H116.311V0.0167828H117.483V5.2864H123.828V0.0167828H125ZM27.4902 24.9861H23.3053L22.6692 26.9161H19.2208L23.5229 15.0846H27.3061L31.5914 26.9161H28.1263L27.4902 24.9861ZM26.67 22.4688L25.3977 18.6425L24.1423 22.4688H26.67ZM32.2591 20.9752C32.2591 19.8116 32.499 18.7767 32.9789 17.8705C33.4699 16.953 34.1619 16.2426 35.0546 15.7391C35.9474 15.2245 36.9741 14.9671 38.1348 14.9671C39.6079 14.9671 40.8466 15.3643 41.851 16.1587C42.8554 16.9419 43.5026 18.0103 43.7928 19.3641H40.2607C40.0487 18.9166 39.7529 18.5753 39.3735 18.3404C39.0052 18.1054 38.5756 17.9879 38.0845 17.9879C37.3257 17.9879 36.7175 18.2621 36.2599 18.8103C35.8135 19.3473 35.5903 20.0689 35.5903 20.9752C35.5903 21.8926 35.8135 22.6254 36.2599 23.1737C36.7175 23.7107 37.3257 23.9792 38.0845 23.9792C38.5756 23.9792 39.0052 23.8617 39.3735 23.6268C39.7529 23.3918 40.0487 23.0506 40.2607 22.6031H43.7928C43.5026 23.9568 42.8554 25.0309 41.851 25.8252C40.8466 26.6084 39.6079 27 38.1348 27C36.9741 27 35.9474 26.7483 35.0546 26.2448C34.1619 25.7301 33.4699 25.0197 32.9789 24.1135C32.499 23.196 32.2591 22.1499 32.2591 20.9752ZM52.8124 24.9861H48.6275L47.9914 26.9161H44.543L48.8451 15.0846H52.6283L56.9136 26.9161H53.4485L52.8124 24.9861ZM51.9922 22.4688L50.7199 18.6425L49.4645 22.4688H51.9922ZM62.6533 15.0846C63.8921 15.0846 64.9746 15.3364 65.9008 15.8398C66.8383 16.3321 67.5581 17.0258 68.0603 17.9208C68.5625 18.8159 68.8136 19.8396 68.8136 20.992C68.8136 22.1332 68.5569 23.1513 68.0435 24.0463C67.5413 24.9414 66.8215 25.6462 65.8841 26.1609C64.9578 26.6644 63.8809 26.9161 62.6533 26.9161H57.983V15.0846H62.6533ZM62.4022 24.0128C63.362 24.0128 64.1153 23.7498 64.6621 23.224C65.2089 22.6982 65.4824 21.9541 65.4824 20.992C65.4824 20.0186 65.2089 19.269 64.6621 18.7432C64.1153 18.2061 63.362 17.9376 62.4022 17.9376H61.2639V24.0128H62.4022ZM73.5736 17.7194V19.6494H77.34V22.1499H73.5736V24.2813H77.8422V26.9161H70.2926V15.0846H77.8422V17.7194H73.5736ZM93.2406 15.0846V26.9161H89.9593V20.3878L87.7329 26.9161H84.9876L82.7445 20.3375V26.9161H79.4635V15.0846H83.4308L86.3937 22.7709L89.2897 15.0846H93.2406ZM105.838 15.0846L101.687 23.1569V26.9161H98.3892V23.1569L94.2375 15.0846H97.9868L100.063 19.6494L102.138 15.0846H105.838Z" fill="white"/>
</svg>
