<svg width="40" height="40" viewBox="0 0 40 40" fill="none" xmlns="http://www.w3.org/2000/svg">
<g id="Media / Icon/Filled/menu">
<path id="Vector (Stroke)" fill-rule="evenodd" clip-rule="evenodd" d="M4 11.3333C4 10.597 4.59695 10 5.33333 10H34.6667C35.403 10 36 10.597 36 11.3333C36 12.0697 35.403 12.6667 34.6667 12.6667H5.33333C4.59695 12.6667 4 12.0697 4 11.3333ZM4 20.6667C4 19.9303 4.59695 19.3333 5.33333 19.3333H34.6667C35.403 19.3333 36 19.9303 36 20.6667C36 21.403 35.403 22 34.6667 22H5.33333C4.59695 22 4 21.403 4 20.6667ZM4 30C4 29.2636 4.59695 28.6667 5.33333 28.6667H34.6667C35.403 28.6667 36 29.2636 36 30C36 30.7364 35.403 31.3333 34.6667 31.3333H5.33333C4.59695 31.3333 4 30.7364 4 30Z" fill="#0F172A"/>
</g>
</svg>
