<svg width="20" height="20" viewBox="0 0 20 20" fill="none" xmlns="http://www.w3.org/2000/svg">
<g id="Media / Icon/Filled/menu-alt-2">
<path id="Vector (Stroke)" fill-rule="evenodd" clip-rule="evenodd" d="M2 5.66667C2 5.29848 2.29848 5 2.66667 5H17.3333C17.7015 5 18 5.29848 18 5.66667C18 6.03486 17.7015 6.33333 17.3333 6.33333H2.66667C2.29848 6.33333 2 6.03486 2 5.66667ZM2 10.3333C2 9.96514 2.29848 9.66667 2.66667 9.66667H17.3333C17.7015 9.66667 18 9.96514 18 10.3333C18 10.7015 17.7015 11 17.3333 11H2.66667C2.29848 11 2 10.7015 2 10.3333ZM2 15C2 14.6318 2.29848 14.3333 2.66667 14.3333H10C10.3682 14.3333 10.6667 14.6318 10.6667 15C10.6667 15.3682 10.3682 15.6667 10 15.6667H2.66667C2.29848 15.6667 2 15.3682 2 15Z" fill="#0F172A"/>
</g>
</svg>
