<svg width="16" height="16" viewBox="0 0 16 16" fill="none" xmlns="http://www.w3.org/2000/svg">
<g clip-path="url(#clip0_293_299)">
<path fill-rule="evenodd" clip-rule="evenodd" d="M13.9998 12V13.3333H15.3332V15.3333H13.9998V14.6666H12.6665V13.3333H11.3332V12H9.99984V10.6666H8.6665V9.33329H7.33317V7.99996H5.99984V6.66663H4.6665V5.33329H3.33317V3.99996H2.6665H1.99984V2.66663H0.666504V0.666626H1.99984V1.33329H3.33317V2.66663H4.6665V3.99996H5.99984V5.33329H7.33317V6.66663H8.6665V7.99996H9.99984V9.33329H11.3332V10.6666H12.6665V12H13.9998ZM8.6665 2.66663V3.33329H9.33317V5.99996H9.99984V6.66663H10.6665V1.99996H9.99984V1.33329H5.99984V1.99996V2.66663H8.6665ZM8.6665 12H7.99984V11.3333H5.33317V10.6666H4.6665V9.33329H3.33317V12H3.99984V12.6666H7.33317V13.3333H5.99984V14.6666H9.99984V13.3333H8.6665V12Z" fill="#F9FAFB"/>
</g>
<defs>
<clipPath id="clip0_293_299">
<rect width="16" height="16" fill="white"/>
</clipPath>
</defs>
</svg>
