<svg width="17" height="16" viewBox="0 0 17 16" fill="none" xmlns="http://www.w3.org/2000/svg">
<path d="M6.44428 3.8222C6.44428 2.5949 7.4392 1.59998 8.6665 1.59998C9.8938 1.59998 10.8887 2.5949 10.8887 3.8222V8.71109C10.8887 9.93839 9.8938 10.9333 8.6665 10.9333C7.4392 10.9333 6.44428 9.93839 6.44428 8.71109V3.8222Z" fill="white"/>
<path d="M5.11095 7.37775C5.35641 7.37775 5.55539 7.57674 5.55539 7.8222V8.71109C5.55539 10.4293 6.94828 11.8222 8.6665 11.8222C10.3847 11.8222 11.7776 10.4293 11.7776 8.71109V7.8222C11.7776 7.57674 11.9766 7.37775 12.2221 7.37775C12.4675 7.37775 12.6665 7.57674 12.6665 7.8222V8.71109C12.6665 10.77 11.1109 12.4656 9.11095 12.6867V14.0444H10.8887C11.1342 14.0444 11.3332 14.2434 11.3332 14.4889C11.3332 14.7343 11.1342 14.9333 10.8887 14.9333H6.44428C6.19882 14.9333 5.99984 14.7343 5.99984 14.4889C5.99984 14.2434 6.19882 14.0444 6.44428 14.0444H8.22206V12.6867C6.22208 12.4656 4.6665 10.77 4.6665 8.71109V7.8222C4.6665 7.57674 4.86549 7.37775 5.11095 7.37775Z" fill="white"/>
</svg>
