<svg width="300" height="403" viewBox="0 0 300 403" fill="none" xmlns="http://www.w3.org/2000/svg">
<path d="M27.9755 340.76C14.9116 333.218 8.37959 329.447 8.37959 324.76C8.37959 320.074 14.9116 316.303 27.9755 308.76L105.979 263.725C119.041 256.184 125.572 252.413 133.687 252.413C141.803 252.412 148.335 256.182 161.399 263.721L240.405 309.317C253.436 316.838 259.952 320.598 259.965 325.274C259.979 329.951 253.485 333.724 240.498 341.27L162.724 386.456C149.664 394.045 143.134 397.839 134.999 397.846C126.864 397.853 120.313 394.071 107.211 386.507L27.9755 340.76Z" fill="#6970FF"/>
<rect width="154.368" height="154.368" rx="16" transform="matrix(0.866025 -0.5 0.866025 0.5 0 281.56)" fill="url(#paint0_radial_221_2717)" stroke="#22A475" stroke-width="5"/>
<rect x="0.433013" y="0.75" width="150.609" height="150.609" transform="matrix(0.866025 0.5 0 1 6.49893 75.5882)" fill="black" fill-opacity="0.6" stroke="url(#paint1_linear_221_2717)"/>
<rect x="0.433013" y="0.25" width="150.609" height="150.609" transform="matrix(0.866025 -0.5 0 1 137.795 151.826)" fill="black" fill-opacity="0.6"/>
<rect x="0.433013" y="0.25" width="150.609" height="150.609" transform="matrix(0.866025 -0.5 0 1 137.795 151.826)" stroke="url(#paint2_linear_221_2717)"/>
<rect x="0.433013" y="0.25" width="150.609" height="150.609" transform="matrix(0.866025 -0.5 0 1 137.795 151.826)" stroke="white" stroke-opacity="0.2"/>
<rect x="0.866025" width="150.609" height="150.609" transform="matrix(0.866025 -0.5 0.866025 0.5 6.55694 76.2377)" fill="black" fill-opacity="0.6"/>
<rect x="0.866025" width="150.609" height="150.609" transform="matrix(0.866025 -0.5 0.866025 0.5 6.55694 76.2377)" stroke="url(#paint3_linear_221_2717)"/>
<rect x="0.866025" width="150.609" height="150.609" transform="matrix(0.866025 -0.5 0.866025 0.5 6.55694 76.2377)" stroke="white" stroke-opacity="0.2"/>
<rect x="0.433013" y="0.25" width="150.609" height="150.609" rx="5.5" transform="matrix(0.866025 -0.5 0 1 168.76 185.517)" fill="black" fill-opacity="0.6"/>
<rect x="0.433013" y="0.25" width="150.609" height="150.609" rx="5.5" transform="matrix(0.866025 -0.5 0 1 168.76 185.517)" stroke="url(#paint4_linear_221_2717)"/>
<rect x="0.433013" y="0.25" width="150.609" height="150.609" rx="5.5" transform="matrix(0.866025 -0.5 0 1 168.76 185.517)" stroke="white" stroke-opacity="0.2"/>
<path d="M201.223 189.746L177.373 203.516V227.842L201.223 214.072V189.746Z" fill="#494A79"/>
<path d="M180.599 200.334C180.168 200.04 180.506 198.975 181.147 198.605L202.59 186.225C202.998 185.989 203.33 186.176 203.33 186.643V214.743C203.33 215.21 202.998 215.78 202.59 216.016L181.147 228.395C180.506 228.766 180.168 228.091 180.599 227.299L190.831 208.476C191.087 208.007 191.087 207.516 190.831 207.341L180.599 200.334Z" fill="#3DE792"/>
<path d="M217.567 194.973L214.089 196.981V195.885L215.613 193.541C215.876 193.128 216.065 192.792 216.181 192.533C216.296 192.274 216.354 192.038 216.354 191.825V191.745C216.354 191.51 216.294 191.369 216.174 191.321C216.054 191.268 215.892 191.3 215.689 191.417C215.458 191.55 215.28 191.73 215.156 191.957C215.031 192.184 214.943 192.418 214.892 192.661L213.985 192.785C214.04 192.561 214.116 192.336 214.213 192.109C214.31 191.877 214.433 191.654 214.581 191.441C214.733 191.225 214.908 191.022 215.107 190.833C215.306 190.638 215.534 190.466 215.793 190.317C216.056 190.165 216.292 190.072 216.5 190.037C216.707 190.002 216.883 190.018 217.026 190.085C217.169 190.152 217.278 190.268 217.352 190.433C217.426 190.593 217.463 190.793 217.463 191.033C217.463 191.268 217.428 191.504 217.359 191.741C217.294 191.97 217.202 192.205 217.082 192.445C216.966 192.682 216.828 192.928 216.666 193.181C216.509 193.432 216.34 193.689 216.16 193.953L215.239 195.309L217.567 193.965V194.973ZM220.709 193.158V192.086L218.534 193.342V192.318L220.46 187.718L221.707 186.998V190.582L222.33 190.222V191.15L221.707 191.51V192.582L220.709 193.158ZM219.372 191.93L220.709 191.158V188.814L220.647 188.85L219.372 191.93ZM224.573 189.536L225.889 188.776L224.94 191.924L224.178 192.364L224.573 189.536ZM228.775 188.502L230.438 182.934L228.872 183.838V184.854L227.992 185.362V183.37L231.47 181.362V182.402L229.87 187.87L228.775 188.502ZM234.17 182.011C234.437 181.856 234.631 181.686 234.752 181.499C234.876 181.31 234.939 181.13 234.939 180.959V180.903C234.939 180.7 234.879 180.575 234.758 180.527C234.643 180.471 234.477 180.506 234.26 180.631C234.061 180.746 233.874 180.912 233.698 181.131C233.528 181.342 233.382 181.588 233.262 181.871L232.604 181.547C232.696 181.355 232.798 181.171 232.909 180.995C233.02 180.814 233.142 180.644 233.276 180.487C233.41 180.324 233.56 180.174 233.726 180.035C233.897 179.888 234.089 179.754 234.301 179.631C234.565 179.479 234.802 179.376 235.015 179.323C235.227 179.27 235.407 179.267 235.555 179.315C235.708 179.355 235.825 179.442 235.909 179.575C235.992 179.708 236.033 179.887 236.033 180.111C236.033 180.287 236.008 180.462 235.957 180.635C235.906 180.808 235.837 180.974 235.749 181.131C235.666 181.286 235.567 181.431 235.451 181.567C235.34 181.695 235.22 181.81 235.091 181.911V181.959C235.387 181.847 235.631 181.85 235.825 181.967C236.024 182.076 236.123 182.323 236.123 182.707C236.123 182.958 236.077 183.211 235.985 183.467C235.897 183.72 235.77 183.967 235.604 184.207C235.442 184.444 235.243 184.671 235.008 184.887C234.777 185.095 234.518 185.282 234.232 185.447C233.987 185.588 233.77 185.684 233.581 185.735C233.396 185.783 233.232 185.8 233.089 185.787C232.946 185.768 232.821 185.726 232.715 185.659C232.613 185.584 232.523 185.5 232.444 185.407L233.214 184.275C233.32 184.443 233.451 184.556 233.608 184.615C233.77 184.666 233.985 184.614 234.253 184.459C234.502 184.315 234.694 184.138 234.828 183.927C234.962 183.716 235.029 183.494 235.029 183.259V183.203C235.029 182.974 234.952 182.847 234.8 182.823C234.648 182.794 234.435 182.858 234.163 183.015L233.712 183.275V182.275L234.17 182.011ZM238.996 182.697C238.349 183.07 237.871 183.093 237.562 182.765C237.257 182.434 237.104 181.813 237.104 180.901C237.104 179.989 237.257 179.191 237.562 178.509C237.871 177.823 238.349 177.294 238.996 176.921C239.642 176.547 240.118 176.526 240.423 176.857C240.733 177.185 240.887 177.805 240.887 178.717C240.887 179.629 240.733 180.427 240.423 181.113C240.118 181.795 239.642 182.323 238.996 182.697ZM238.996 181.753C239.305 181.574 239.52 181.325 239.64 181.005C239.765 180.682 239.827 180.297 239.827 179.849V178.809C239.827 178.361 239.765 178.047 239.64 177.869C239.52 177.687 239.305 177.686 238.996 177.865C238.686 178.043 238.469 178.294 238.345 178.617C238.225 178.937 238.164 179.321 238.164 179.769V180.809C238.164 181.257 238.225 181.571 238.345 181.753C238.469 181.931 238.686 181.931 238.996 181.753ZM238.996 180.281C238.834 180.374 238.721 180.402 238.656 180.365C238.596 180.325 238.566 180.251 238.566 180.145V179.969C238.566 179.862 238.596 179.754 238.656 179.645C238.721 179.533 238.834 179.43 238.996 179.337C239.158 179.243 239.268 179.217 239.328 179.257C239.393 179.294 239.425 179.366 239.425 179.473V179.649C239.425 179.755 239.393 179.865 239.328 179.977C239.268 180.086 239.158 180.187 238.996 180.281ZM247.949 177.512C247.602 177.68 247.297 177.768 247.034 177.776C246.775 177.776 246.565 177.702 246.404 177.556L247.006 176.448C247.154 176.544 247.311 176.594 247.477 176.6C247.648 176.602 247.829 176.565 248.018 176.488V175.016L247.859 175.076C247.415 175.241 247.087 175.244 246.875 175.084C246.662 174.918 246.556 174.63 246.556 174.22C246.556 173.766 246.676 173.329 246.916 172.908C247.156 172.486 247.501 172.112 247.949 171.784V170.944L248.738 170.488V171.32C249.029 171.194 249.277 171.137 249.48 171.148C249.688 171.156 249.861 171.213 249.999 171.32L249.404 172.432C249.21 172.298 248.965 172.28 248.669 172.376V173.712L248.828 173.652C249.272 173.492 249.6 173.489 249.812 173.644C250.025 173.793 250.131 174.07 250.131 174.476C250.131 174.694 250.099 174.918 250.034 175.148C249.974 175.374 249.884 175.597 249.764 175.816C249.648 176.032 249.503 176.244 249.327 176.452C249.156 176.652 248.96 176.84 248.738 177.016V177.88L247.949 178.336V177.512ZM247.533 173.616C247.533 173.786 247.57 173.896 247.644 173.944C247.722 173.984 247.847 173.981 248.018 173.936V172.728C247.847 172.858 247.722 172.997 247.644 173.144C247.57 173.288 247.533 173.445 247.533 173.616ZM249.161 175.116C249.161 174.934 249.122 174.821 249.043 174.776C248.965 174.73 248.84 174.733 248.669 174.784V176.104C248.835 175.965 248.958 175.814 249.036 175.652C249.119 175.481 249.161 175.302 249.161 175.116ZM253.849 174.025L253.544 172.857L252.221 173.621L251.923 175.137L250.87 175.745L252.179 169.405L253.648 168.557L254.957 173.385L253.849 174.025ZM252.913 170.141L252.858 170.173L252.387 172.557L253.385 171.981L252.913 170.141ZM257.663 171.919C257.017 172.292 256.536 172.319 256.222 171.999C255.913 171.671 255.758 171.048 255.758 170.131C255.758 169.214 255.913 168.415 256.222 167.735C256.536 167.047 257.017 166.516 257.663 166.143C257.913 165.999 258.132 165.912 258.322 165.883C258.516 165.846 258.682 165.856 258.82 165.915C258.959 165.974 259.072 166.076 259.16 166.223C259.252 166.367 259.324 166.547 259.375 166.763L258.405 167.595C258.377 167.478 258.345 167.374 258.308 167.283C258.271 167.192 258.222 167.124 258.162 167.079C258.107 167.031 258.035 167.011 257.948 167.019C257.864 167.019 257.763 167.054 257.643 167.123C257.361 167.286 257.16 167.53 257.04 167.855C256.924 168.172 256.867 168.555 256.867 169.003V169.979C256.867 170.427 256.924 170.746 257.04 170.935C257.16 171.116 257.361 171.126 257.643 170.963C257.883 170.824 258.056 170.639 258.162 170.407C258.273 170.172 258.354 169.907 258.405 169.611L259.375 169.323C259.324 169.598 259.252 169.86 259.16 170.111C259.072 170.359 258.959 170.595 258.82 170.819C258.682 171.038 258.516 171.24 258.322 171.427C258.132 171.611 257.913 171.775 257.663 171.919ZM260.557 164.568L262.116 163.668C262.767 163.292 263.249 163.254 263.564 163.552C263.878 163.851 264.035 164.451 264.035 165.352C264.035 166.254 263.878 167.035 263.564 167.696C263.249 168.358 262.767 168.876 262.116 169.252L260.557 170.152V164.568ZM262.046 168.348C262.356 168.17 262.582 167.924 262.725 167.612C262.868 167.3 262.94 166.926 262.94 166.488V165.472C262.94 165.04 262.868 164.751 262.725 164.604C262.582 164.458 262.356 164.474 262.046 164.652L261.582 164.92V168.616L262.046 168.348ZM267.739 163.518L267.794 161.926L267.732 161.962L266.831 165.354L265.93 163.002L265.868 163.038L265.923 164.566V167.054L265.023 167.574V161.99L266.249 161.282L266.845 162.818L266.9 162.786L267.496 160.562L268.639 159.902V165.486L267.739 166.006V163.518ZM270.951 164.152V162.176L269.419 159.452L270.576 158.784L271.089 159.784L271.463 160.664L271.519 160.632L271.893 159.32L272.405 157.728L273.521 157.084L271.99 161.576V163.552L270.951 164.152Z" fill="white"/>
<path d="M187.852 253.461C187.593 253.611 187.371 253.683 187.185 253.678C186.999 253.669 186.845 253.592 186.724 253.447C186.603 253.303 186.514 253.09 186.457 252.81C186.401 252.53 186.372 252.19 186.372 251.788C186.372 251.392 186.401 251.021 186.457 250.675C186.514 250.325 186.603 250.008 186.724 249.723C186.845 249.439 186.999 249.187 187.185 248.967C187.371 248.743 187.593 248.557 187.852 248.407C188.11 248.258 188.333 248.188 188.518 248.197C188.704 248.202 188.858 248.277 188.979 248.421C189.1 248.566 189.189 248.781 189.246 249.065C189.302 249.345 189.331 249.684 189.331 250.08C189.331 250.482 189.302 250.855 189.246 251.2C189.189 251.546 189.1 251.861 188.979 252.145C188.858 252.43 188.704 252.684 188.518 252.908C188.333 253.128 188.11 253.312 187.852 253.461ZM187.852 252.95C188.021 252.852 188.167 252.731 188.288 252.586C188.409 252.437 188.506 252.271 188.579 252.089C188.656 251.905 188.712 251.704 188.749 251.487C188.785 251.266 188.803 251.031 188.803 250.784V249.986C188.803 249.743 188.785 249.532 188.749 249.352C188.712 249.173 188.656 249.035 188.579 248.939C188.506 248.841 188.409 248.79 188.288 248.785C188.167 248.776 188.021 248.82 187.852 248.918C187.682 249.016 187.536 249.14 187.415 249.289C187.294 249.434 187.195 249.598 187.118 249.783C187.045 249.965 186.991 250.167 186.954 250.388C186.918 250.61 186.9 250.842 186.9 251.085V251.883C186.9 252.13 186.918 252.344 186.954 252.523C186.991 252.698 187.045 252.835 187.118 252.933C187.195 253.028 187.294 253.081 187.415 253.09C187.536 253.095 187.682 253.048 187.852 252.95ZM187.852 251.347C187.71 251.429 187.611 251.453 187.555 251.421C187.502 251.386 187.476 251.322 187.476 251.228V251.074C187.476 250.981 187.502 250.886 187.555 250.791C187.611 250.693 187.71 250.603 187.852 250.521C187.993 250.44 188.09 250.416 188.143 250.451C188.199 250.484 188.227 250.547 188.227 250.64V250.794C188.227 250.888 188.199 250.983 188.143 251.081C188.09 251.177 187.993 251.266 187.852 251.347ZM194.124 249.756L193.548 250.089L193.045 249.406L192.487 248.664L192.463 248.678L191.887 250.075L191.353 251.356L190.795 251.678L192.178 248.388L190.874 246.746L191.45 246.414L191.941 247.075L192.469 247.758L192.493 247.744L193.014 246.456L193.523 245.217L194.081 244.895L192.772 248.038L194.124 249.756ZM195.788 248.795V243.909L198.456 242.369V242.88L196.298 244.126V245.771L198.274 244.63V245.141L196.298 246.282V248.501L195.788 248.795ZM203.103 244.572L200.278 246.203V245.601L201.691 243.315C201.897 242.982 202.066 242.664 202.2 242.363C202.333 242.058 202.4 241.779 202.4 241.527V241.443C202.4 241.149 202.333 240.961 202.2 240.879C202.066 240.793 201.868 240.826 201.606 240.977C201.347 241.127 201.147 241.319 201.005 241.555C200.868 241.784 200.765 242.044 200.696 242.335L200.242 242.402C200.282 242.234 200.337 242.062 200.405 241.887C200.478 241.705 200.569 241.529 200.678 241.359C200.787 241.189 200.919 241.026 201.072 240.872C201.23 240.716 201.412 240.578 201.618 240.459C201.828 240.338 202.014 240.266 202.175 240.242C202.341 240.217 202.479 240.235 202.588 240.298C202.701 240.359 202.786 240.459 202.842 240.599C202.903 240.737 202.933 240.909 202.933 241.114C202.933 241.301 202.909 241.49 202.861 241.681C202.816 241.87 202.751 242.064 202.667 242.262C202.586 242.458 202.487 242.662 202.369 242.874C202.256 243.08 202.129 243.293 201.988 243.515L200.805 245.387L203.103 244.061V244.572ZM204.998 243.478V238.592L207.665 237.052V237.563L205.507 238.809V240.454L207.484 239.313V239.824L205.507 240.965V243.184L204.998 243.478ZM211.349 239.811V238.852L209.264 240.056V239.538L211.094 235.072L211.834 234.645V238.089L212.464 237.725V238.208L211.834 238.572V239.531L211.349 239.811ZM209.718 239.311L211.349 238.369V235.38L211.325 235.394L209.718 239.311ZM215.299 234.716C215.594 234.546 215.814 234.344 215.96 234.111C216.109 233.871 216.184 233.631 216.184 233.393V233.344C216.184 233.083 216.111 232.929 215.966 232.882C215.824 232.833 215.639 232.875 215.408 233.008C215.182 233.139 214.998 233.304 214.857 233.502C214.719 233.693 214.606 233.908 214.517 234.146L214.135 234.03C214.188 233.902 214.252 233.769 214.329 233.631C214.406 233.489 214.495 233.351 214.596 233.218C214.701 233.083 214.82 232.954 214.954 232.83C215.091 232.704 215.247 232.591 215.42 232.49C215.602 232.385 215.772 232.315 215.93 232.28C216.087 232.241 216.225 232.241 216.342 232.28C216.459 232.315 216.55 232.391 216.615 232.508C216.683 232.622 216.718 232.777 216.718 232.973C216.718 233.132 216.695 233.287 216.651 233.439C216.611 233.588 216.552 233.732 216.475 233.869C216.402 234.005 216.315 234.134 216.214 234.258C216.113 234.382 216.006 234.492 215.893 234.59V234.618C216.01 234.579 216.124 234.56 216.233 234.562C216.342 234.56 216.439 234.586 216.524 234.639C216.608 234.688 216.675 234.771 216.724 234.888C216.776 234.998 216.802 235.143 216.802 235.325C216.802 235.535 216.766 235.75 216.693 235.969C216.625 236.182 216.526 236.388 216.396 236.589C216.271 236.783 216.117 236.967 215.936 237.142C215.758 237.315 215.56 237.464 215.342 237.59C215.156 237.697 214.99 237.77 214.844 237.807C214.703 237.842 214.576 237.852 214.462 237.838C214.353 237.822 214.256 237.789 214.172 237.74C214.091 237.689 214.018 237.628 213.953 237.558L214.335 237.002C214.392 237.067 214.45 237.122 214.511 237.166C214.572 237.211 214.64 237.241 214.717 237.257C214.798 237.267 214.889 237.259 214.99 237.233C215.091 237.207 215.208 237.156 215.342 237.079C215.641 236.906 215.869 236.695 216.027 236.445C216.188 236.193 216.269 235.92 216.269 235.626V235.57C216.269 235.281 216.19 235.103 216.033 235.035C215.879 234.965 215.647 235.02 215.335 235.199L214.832 235.49V234.986L215.299 234.716ZM218.813 235.502V230.616L221.48 229.076V229.587L219.322 230.833V232.478L221.298 231.337V231.848L219.322 232.989V235.208L218.813 235.502ZM224.509 229.399C224.804 229.229 225.024 229.027 225.17 228.794C225.319 228.553 225.394 228.314 225.394 228.076V228.027C225.394 227.766 225.321 227.612 225.176 227.565C225.034 227.516 224.848 227.558 224.618 227.691C224.392 227.822 224.208 227.986 224.066 228.185C223.929 228.376 223.816 228.591 223.727 228.829L223.345 228.713C223.397 228.585 223.462 228.452 223.539 228.314C223.616 228.172 223.705 228.034 223.806 227.901C223.911 227.766 224.03 227.636 224.163 227.513C224.301 227.387 224.456 227.274 224.63 227.173C224.812 227.068 224.982 226.998 225.139 226.963C225.297 226.924 225.434 226.924 225.552 226.963C225.669 226.998 225.76 227.074 225.824 227.191C225.893 227.305 225.927 227.46 225.927 227.656C225.927 227.815 225.905 227.97 225.861 228.122C225.82 228.271 225.762 228.415 225.685 228.552C225.612 228.688 225.525 228.817 225.424 228.941C225.323 229.064 225.216 229.175 225.103 229.273V229.301C225.22 229.262 225.333 229.243 225.442 229.245C225.552 229.243 225.649 229.269 225.733 229.322C225.818 229.371 225.885 229.454 225.933 229.571C225.986 229.68 226.012 229.826 226.012 230.008C226.012 230.218 225.976 230.433 225.903 230.652C225.834 230.865 225.735 231.071 225.606 231.272C225.481 231.465 225.327 231.65 225.145 231.825C224.968 231.997 224.77 232.147 224.551 232.273C224.365 232.38 224.2 232.452 224.054 232.49C223.913 232.525 223.785 232.535 223.672 232.521C223.563 232.505 223.466 232.472 223.381 232.423C223.3 232.372 223.228 232.311 223.163 232.241L223.545 231.685C223.602 231.75 223.66 231.805 223.721 231.849C223.781 231.894 223.85 231.924 223.927 231.94C224.008 231.95 224.099 231.941 224.2 231.916C224.301 231.89 224.418 231.839 224.551 231.762C224.85 231.589 225.079 231.378 225.236 231.128C225.398 230.876 225.479 230.603 225.479 230.309V230.253C225.479 229.964 225.4 229.785 225.242 229.718C225.089 229.648 224.856 229.703 224.545 229.882L224.042 230.173V229.669L224.509 229.399ZM229.55 224.928V229.303L229.041 229.597V225.222L227.628 226.037V225.526L230.963 223.601V224.112L229.55 224.928ZM233.719 224.082C234.014 223.912 234.234 223.71 234.379 223.476C234.529 223.236 234.604 222.997 234.604 222.759V222.71C234.604 222.449 234.531 222.295 234.385 222.248C234.244 222.199 234.058 222.241 233.828 222.374C233.601 222.505 233.418 222.669 233.276 222.867C233.139 223.059 233.026 223.273 232.937 223.511L232.555 223.396C232.607 223.268 232.672 223.135 232.749 222.997C232.825 222.855 232.914 222.717 233.015 222.584C233.12 222.449 233.24 222.319 233.373 222.195C233.51 222.069 233.666 221.956 233.84 221.856C234.022 221.751 234.191 221.681 234.349 221.646C234.507 221.606 234.644 221.606 234.761 221.646C234.879 221.681 234.969 221.757 235.034 221.873C235.103 221.988 235.137 222.143 235.137 222.339C235.137 222.498 235.115 222.653 235.07 222.804C235.03 222.954 234.971 223.097 234.895 223.235C234.822 223.37 234.735 223.5 234.634 223.623C234.533 223.747 234.426 223.858 234.313 223.956V223.984C234.43 223.944 234.543 223.926 234.652 223.928C234.761 223.926 234.858 223.951 234.943 224.005C235.028 224.054 235.095 224.137 235.143 224.253C235.196 224.363 235.222 224.509 235.222 224.691C235.222 224.901 235.186 225.116 235.113 225.335C235.044 225.547 234.945 225.754 234.816 225.954C234.691 226.148 234.537 226.332 234.355 226.507C234.177 226.68 233.979 226.829 233.761 226.955C233.575 227.063 233.409 227.135 233.264 227.172C233.123 227.207 232.995 227.218 232.882 227.204C232.773 227.188 232.676 227.155 232.591 227.106C232.51 227.055 232.437 226.994 232.373 226.924L232.755 226.367C232.811 226.433 232.87 226.488 232.931 226.532C232.991 226.576 233.06 226.607 233.137 226.623C233.217 226.632 233.308 226.624 233.409 226.598C233.51 226.573 233.628 226.521 233.761 226.444C234.06 226.272 234.288 226.061 234.446 225.811C234.608 225.559 234.689 225.286 234.689 224.992V224.936C234.689 224.647 234.61 224.468 234.452 224.4C234.299 224.33 234.066 224.385 233.755 224.565L233.252 224.855V224.351L233.719 224.082ZM238.978 223.859V222.9L236.893 224.104V223.586L238.724 219.12L239.463 218.693V222.137L240.094 221.773V222.256L239.463 222.62V223.579L238.978 223.859ZM237.347 223.359L238.978 222.417V219.428L238.954 219.442L237.347 223.359ZM243.116 221.554C242.894 221.682 242.694 221.756 242.516 221.775C242.338 221.789 242.187 221.752 242.061 221.666C241.94 221.573 241.845 221.429 241.777 221.236C241.712 221.04 241.68 220.797 241.68 220.508C241.68 220.144 241.726 219.776 241.819 219.405C241.916 219.027 242.037 218.665 242.183 218.32C242.332 217.968 242.498 217.639 242.68 217.333C242.862 217.023 243.04 216.754 243.213 216.528L243.868 216.15C243.638 216.474 243.432 216.78 243.25 217.067C243.072 217.352 242.914 217.634 242.777 217.914C242.639 218.189 242.524 218.468 242.431 218.751C242.338 219.028 242.262 219.327 242.201 219.647L242.231 219.643C242.332 219.384 242.466 219.141 242.631 218.915C242.797 218.684 243.011 218.493 243.274 218.341C243.46 218.234 243.63 218.171 243.783 218.152C243.937 218.133 244.07 218.157 244.183 218.222C244.296 218.287 244.383 218.396 244.444 218.548C244.509 218.697 244.541 218.886 244.541 219.115C244.541 219.353 244.507 219.592 244.438 219.832C244.369 220.068 244.272 220.294 244.147 220.511C244.026 220.721 243.876 220.917 243.698 221.099C243.525 221.279 243.331 221.43 243.116 221.554ZM243.11 221.061C243.401 220.893 243.626 220.672 243.783 220.399C243.945 220.124 244.026 219.82 244.026 219.489V219.433C244.026 219.102 243.945 218.892 243.783 218.803C243.626 218.712 243.401 218.751 243.11 218.919C242.819 219.087 242.593 219.308 242.431 219.584C242.274 219.857 242.195 220.159 242.195 220.49V220.546C242.195 220.877 242.274 221.089 242.431 221.18C242.593 221.268 242.819 221.229 243.11 221.061ZM248.588 217.66L248.558 217.678C248.521 217.792 248.479 217.907 248.43 218.024C248.382 218.141 248.319 218.256 248.243 218.371C248.17 218.478 248.081 218.583 247.976 218.686C247.871 218.788 247.745 218.882 247.6 218.966C247.139 219.232 246.796 219.215 246.569 218.917C246.347 218.616 246.236 218.064 246.236 217.261C246.236 216.421 246.359 215.713 246.606 215.137C246.852 214.56 247.232 214.124 247.745 213.828C247.943 213.713 248.115 213.644 248.261 213.621C248.406 213.598 248.529 213.608 248.631 213.653C248.736 213.695 248.822 213.761 248.891 213.852C248.96 213.938 249.016 214.034 249.061 214.139L248.624 214.622C248.588 214.536 248.546 214.46 248.497 214.395C248.453 214.322 248.396 214.271 248.327 214.241C248.263 214.203 248.184 214.19 248.091 214.202C247.998 214.214 247.889 214.256 247.764 214.328C247.424 214.524 247.174 214.816 247.012 215.203C246.854 215.588 246.776 216.026 246.776 216.516V217.272C246.776 217.519 246.792 217.736 246.824 217.923C246.856 218.105 246.909 218.249 246.982 218.357C247.058 218.462 247.155 218.522 247.273 218.539C247.394 218.548 247.541 218.502 247.715 218.402C247.99 218.243 248.204 218.024 248.358 217.744C248.511 217.464 248.588 217.172 248.588 216.869V216.365L247.697 216.88V216.411L249.061 215.623V218.038L248.588 218.311V217.66ZM252.575 211.634V216.009L252.065 216.303V211.928L250.653 212.744V212.233L253.987 210.308V210.819L252.575 211.634ZM257.398 213.225V212.266L255.312 213.47V212.952L257.143 208.486L257.883 208.059V211.503L258.513 211.139V211.622L257.883 211.986V212.945L257.398 213.225ZM255.767 212.724L257.398 211.783V208.794L257.374 208.808L255.767 212.724ZM261.348 208.13C261.643 207.96 261.863 207.758 262.009 207.525C262.158 207.284 262.233 207.045 262.233 206.807V206.758C262.233 206.497 262.16 206.343 262.015 206.296C261.873 206.247 261.687 206.289 261.457 206.422C261.231 206.553 261.047 206.717 260.905 206.916C260.768 207.107 260.655 207.322 260.566 207.56L260.184 207.444C260.237 207.316 260.301 207.183 260.378 207.045C260.455 206.903 260.544 206.765 260.645 206.632C260.75 206.497 260.869 206.367 261.002 206.244C261.14 206.118 261.295 206.004 261.469 205.904C261.651 205.799 261.821 205.729 261.978 205.694C262.136 205.654 262.273 205.654 262.391 205.694C262.508 205.729 262.599 205.805 262.663 205.922C262.732 206.036 262.766 206.191 262.766 206.387C262.766 206.546 262.744 206.701 262.7 206.853C262.659 207.002 262.601 207.145 262.524 207.283C262.451 207.418 262.364 207.548 262.263 207.672C262.162 207.795 262.055 207.906 261.942 208.004V208.032C262.059 207.992 262.172 207.974 262.282 207.976C262.391 207.974 262.488 207.999 262.572 208.053C262.657 208.102 262.724 208.185 262.773 208.302C262.825 208.411 262.851 208.557 262.851 208.739C262.851 208.949 262.815 209.164 262.742 209.383C262.674 209.595 262.575 209.802 262.445 210.003C262.32 210.196 262.166 210.381 261.984 210.556C261.807 210.728 261.609 210.878 261.39 211.004C261.204 211.111 261.039 211.183 260.893 211.221C260.752 211.256 260.625 211.266 260.511 211.252C260.402 211.236 260.305 211.203 260.22 211.154C260.14 211.103 260.067 211.042 260.002 210.972L260.384 210.416C260.441 210.481 260.499 210.536 260.56 210.58C260.62 210.624 260.689 210.655 260.766 210.671C260.847 210.68 260.938 210.672 261.039 210.647C261.14 210.621 261.257 210.57 261.39 210.493C261.689 210.32 261.918 210.109 262.075 209.859C262.237 209.607 262.318 209.334 262.318 209.04V208.984C262.318 208.695 262.239 208.516 262.081 208.449C261.928 208.379 261.696 208.433 261.384 208.613L260.881 208.904V208.4L261.348 208.13ZM264.831 208.933V208.422L266.044 207.722V203.781L266.001 203.805L264.934 205.569L264.637 205.37L265.759 203.511L266.553 203.053V207.428L267.668 206.784V207.295L264.831 208.933ZM271.613 204.367L271.582 204.384C271.546 204.499 271.503 204.614 271.455 204.731C271.406 204.848 271.344 204.963 271.267 205.077C271.194 205.185 271.105 205.29 271 205.392C270.895 205.495 270.77 205.588 270.624 205.672C270.164 205.938 269.82 205.922 269.594 205.623C269.372 205.322 269.26 204.771 269.26 203.968C269.26 203.128 269.384 202.42 269.63 201.843C269.877 201.267 270.257 200.831 270.77 200.534C270.968 200.42 271.14 200.351 271.285 200.328C271.431 200.305 271.554 200.315 271.655 200.359C271.76 200.401 271.847 200.468 271.916 200.559C271.984 200.645 272.041 200.741 272.085 200.846L271.649 201.329C271.613 201.243 271.57 201.167 271.522 201.101C271.477 201.029 271.421 200.978 271.352 200.947C271.287 200.91 271.208 200.897 271.115 200.909C271.022 200.921 270.913 200.963 270.788 201.035C270.449 201.231 270.198 201.523 270.036 201.91C269.879 202.295 269.8 202.732 269.8 203.222V203.978C269.8 204.226 269.816 204.443 269.848 204.629C269.881 204.811 269.933 204.956 270.006 205.063C270.083 205.168 270.18 205.229 270.297 205.245C270.418 205.255 270.566 205.209 270.74 205.109C271.014 204.95 271.229 204.731 271.382 204.451C271.536 204.171 271.613 203.879 271.613 203.576V203.072L270.721 203.586V203.117L272.085 202.33V204.745L271.613 205.018V204.367ZM275.599 198.341V202.716L275.09 203.01V198.635L273.677 199.451V198.94L277.012 197.015V197.526L275.599 198.341ZM187.67 262.668C187.965 262.498 188.185 262.296 188.331 262.063C188.48 261.822 188.555 261.583 188.555 261.345V261.296C188.555 261.035 188.482 260.881 188.337 260.834C188.195 260.785 188.009 260.827 187.779 260.96C187.553 261.091 187.369 261.255 187.227 261.454C187.09 261.645 186.977 261.86 186.888 262.098L186.506 261.982C186.558 261.854 186.623 261.721 186.7 261.583C186.777 261.441 186.865 261.303 186.967 261.17C187.072 261.035 187.191 260.905 187.324 260.782C187.462 260.656 187.617 260.543 187.791 260.442C187.973 260.337 188.143 260.267 188.3 260.232C188.458 260.193 188.595 260.193 188.712 260.232C188.83 260.267 188.921 260.343 188.985 260.46C189.054 260.574 189.088 260.729 189.088 260.925C189.088 261.084 189.066 261.239 189.022 261.391C188.981 261.54 188.923 261.684 188.846 261.821C188.773 261.957 188.686 262.086 188.585 262.21C188.484 262.333 188.377 262.444 188.264 262.542V262.57C188.381 262.531 188.494 262.512 188.603 262.514C188.712 262.512 188.809 262.538 188.894 262.591C188.979 262.64 189.046 262.723 189.094 262.84C189.147 262.949 189.173 263.095 189.173 263.277C189.173 263.487 189.137 263.702 189.064 263.921C188.995 264.134 188.896 264.34 188.767 264.541C188.642 264.734 188.488 264.919 188.306 265.094C188.128 265.266 187.93 265.416 187.712 265.542C187.526 265.649 187.361 265.721 187.215 265.759C187.074 265.794 186.946 265.804 186.833 265.79C186.724 265.774 186.627 265.741 186.542 265.692C186.461 265.641 186.389 265.58 186.324 265.51L186.706 264.954C186.762 265.019 186.821 265.074 186.882 265.118C186.942 265.163 187.011 265.193 187.088 265.209C187.169 265.219 187.26 265.21 187.361 265.185C187.462 265.159 187.579 265.108 187.712 265.031C188.011 264.858 188.24 264.647 188.397 264.397C188.559 264.145 188.64 263.872 188.64 263.578V263.522C188.64 263.233 188.561 263.054 188.403 262.987C188.25 262.917 188.017 262.972 187.706 263.151L187.203 263.442V262.938L187.67 262.668ZM192.202 262.866V260.948L190.741 258.823L191.323 258.487L191.929 259.411L192.444 260.227L192.469 260.213L192.996 258.795L193.602 257.171L194.172 256.842L192.711 260.654V262.572L192.202 262.866ZM197.049 260.151C196.669 260.37 196.358 260.471 196.116 260.452C195.873 260.429 195.673 260.336 195.516 260.175L195.885 259.612C196.051 259.754 196.225 259.831 196.407 259.843C196.593 259.852 196.813 259.783 197.067 259.636C197.375 259.459 197.609 259.242 197.771 258.985C197.932 258.729 198.013 258.453 198.013 258.159C198.013 257.921 197.955 257.771 197.837 257.708C197.72 257.64 197.516 257.662 197.225 257.774L196.752 257.956C196.546 258.033 196.372 258.071 196.231 258.068C196.093 258.064 195.982 258.028 195.897 257.96C195.813 257.888 195.752 257.792 195.716 257.673C195.679 257.549 195.661 257.41 195.661 257.256C195.661 256.808 195.788 256.397 196.043 256.021C196.298 255.645 196.641 255.333 197.074 255.083C197.413 254.887 197.698 254.788 197.928 254.785C198.163 254.781 198.351 254.857 198.492 255.013L198.134 255.576C198.017 255.467 197.876 255.404 197.71 255.387C197.544 255.371 197.33 255.439 197.067 255.59C196.781 255.756 196.56 255.953 196.407 256.182C196.253 256.411 196.176 256.665 196.176 256.945C196.176 257.164 196.233 257.311 196.346 257.386C196.463 257.454 196.671 257.431 196.97 257.319L197.425 257.148C197.631 257.071 197.805 257.034 197.946 257.036C198.088 257.038 198.201 257.073 198.286 257.141C198.375 257.206 198.438 257.301 198.474 257.424C198.51 257.548 198.528 257.689 198.528 257.848C198.528 258.301 198.399 258.73 198.14 259.136C197.886 259.54 197.522 259.878 197.049 260.151ZM202.885 252.323L200.993 253.415L200.872 255.354L200.915 255.329C201.02 255.105 201.137 254.909 201.266 254.741C201.395 254.569 201.573 254.417 201.8 254.286C201.986 254.179 202.155 254.116 202.309 254.097C202.466 254.072 202.602 254.092 202.715 254.157C202.828 254.222 202.917 254.33 202.982 254.479C203.046 254.624 203.079 254.815 203.079 255.053C203.079 255.291 203.046 255.529 202.982 255.767C202.917 256 202.822 256.225 202.697 256.442C202.572 256.655 202.42 256.852 202.242 257.034C202.064 257.216 201.862 257.372 201.636 257.503C201.458 257.606 201.299 257.674 201.157 257.709C201.02 257.742 200.896 257.75 200.787 257.734C200.682 257.715 200.589 257.68 200.508 257.629C200.428 257.578 200.355 257.517 200.29 257.447L200.672 256.89C200.729 256.956 200.785 257.012 200.842 257.058C200.902 257.103 200.971 257.133 201.048 257.149C201.125 257.161 201.212 257.155 201.309 257.132C201.406 257.109 201.519 257.06 201.648 256.985C201.939 256.817 202.161 256.598 202.315 256.327C202.473 256.054 202.551 255.756 202.551 255.434V255.378C202.551 255.056 202.473 254.85 202.315 254.759C202.157 254.668 201.931 254.708 201.636 254.878C201.434 254.995 201.276 255.125 201.163 255.27C201.054 255.412 200.953 255.569 200.86 255.739L200.43 255.917L200.581 253.142L202.885 251.812V252.323ZM206.277 254.823C206.055 254.952 205.855 255.025 205.677 255.044C205.499 255.058 205.348 255.022 205.222 254.935C205.101 254.842 205.006 254.698 204.937 254.505C204.873 254.309 204.84 254.066 204.84 253.777C204.84 253.413 204.887 253.045 204.98 252.674C205.077 252.296 205.198 251.935 205.344 251.589C205.493 251.237 205.659 250.908 205.841 250.602C206.023 250.292 206.2 250.024 206.374 249.797L207.029 249.419C206.799 249.744 206.592 250.049 206.411 250.336C206.233 250.621 206.075 250.903 205.938 251.183C205.8 251.459 205.685 251.737 205.592 252.02C205.499 252.297 205.422 252.596 205.362 252.916L205.392 252.912C205.493 252.653 205.627 252.411 205.792 252.184C205.958 251.953 206.172 251.762 206.435 251.61C206.621 251.503 206.79 251.44 206.944 251.421C207.098 251.403 207.231 251.426 207.344 251.491C207.457 251.557 207.544 251.665 207.605 251.817C207.67 251.966 207.702 252.155 207.702 252.384C207.702 252.622 207.667 252.861 207.599 253.101C207.53 253.337 207.433 253.563 207.308 253.78C207.187 253.99 207.037 254.186 206.859 254.368C206.685 254.548 206.491 254.7 206.277 254.823ZM206.271 254.33C206.562 254.162 206.786 253.941 206.944 253.668C207.106 253.393 207.187 253.09 207.187 252.758V252.702C207.187 252.371 207.106 252.161 206.944 252.072C206.786 251.981 206.562 252.02 206.271 252.188C205.98 252.356 205.754 252.577 205.592 252.853C205.435 253.126 205.356 253.428 205.356 253.759V253.815C205.356 254.147 205.435 254.358 205.592 254.449C205.754 254.537 205.98 254.498 206.271 254.33ZM210.621 252.231V250.313L209.16 248.189L209.742 247.853L210.349 248.777L210.864 249.592L210.888 249.578L211.416 248.161L212.022 246.537L212.592 246.208L211.131 250.019V251.937L210.621 252.231ZM215.954 249.152V248.193L213.868 249.397V248.879L215.699 244.413L216.439 243.986V247.43L217.069 247.066V247.549L216.439 247.913V248.872L215.954 249.152ZM214.323 248.652L215.954 247.71V244.721L215.93 244.735L214.323 248.652ZM221.304 241.688L219.413 242.78L219.292 244.719L219.334 244.695C219.439 244.471 219.556 244.275 219.686 244.107C219.815 243.934 219.993 243.782 220.219 243.652C220.405 243.544 220.575 243.481 220.728 243.463C220.886 243.437 221.021 243.457 221.135 243.522C221.248 243.588 221.337 243.695 221.401 243.844C221.466 243.989 221.498 244.18 221.498 244.418C221.498 244.656 221.466 244.894 221.401 245.132C221.337 245.366 221.242 245.591 221.116 245.808C220.991 246.02 220.84 246.217 220.662 246.399C220.484 246.581 220.282 246.738 220.056 246.868C219.878 246.971 219.718 247.04 219.577 247.075C219.439 247.107 219.316 247.116 219.207 247.099C219.102 247.081 219.009 247.046 218.928 246.994C218.847 246.943 218.774 246.882 218.71 246.812L219.092 246.256C219.148 246.321 219.205 246.377 219.261 246.424C219.322 246.468 219.391 246.498 219.467 246.515C219.544 246.526 219.631 246.521 219.728 246.497C219.825 246.474 219.938 246.425 220.068 246.35C220.359 246.182 220.581 245.963 220.734 245.692C220.892 245.419 220.971 245.122 220.971 244.8V244.744C220.971 244.422 220.892 244.215 220.734 244.124C220.577 244.033 220.351 244.073 220.056 244.243C219.853 244.36 219.696 244.491 219.583 244.635C219.474 244.778 219.373 244.934 219.28 245.104L218.849 245.283L219.001 242.507L221.304 241.177V241.688ZM223.418 244.843V239.957L226.085 238.417V238.928L223.927 240.174V241.819L225.903 240.678V241.189L223.927 242.33V244.549L223.418 244.843ZM228.053 237.281L229.235 236.599C229.752 236.3 230.138 236.282 230.393 236.546C230.647 236.81 230.775 237.345 230.775 238.153C230.775 238.96 230.647 239.642 230.393 240.2C230.138 240.758 229.752 241.186 229.235 241.485L228.053 242.167V237.281ZM229.211 240.988C229.55 240.792 229.805 240.509 229.975 240.141C230.148 239.77 230.235 239.337 230.235 238.842V238.086C230.235 237.591 230.148 237.259 229.975 237.089C229.805 236.916 229.55 236.928 229.211 237.124L228.562 237.498V241.362L229.211 240.988ZM232.627 239.526V234.64L235.295 233.1V233.611L233.137 234.857V236.502L235.113 235.361V235.872L233.137 237.013V239.232L232.627 239.526ZM238.493 236.223C238.113 236.443 237.802 236.543 237.56 236.524C237.317 236.501 237.117 236.409 236.96 236.248L237.329 235.684C237.495 235.827 237.669 235.904 237.851 235.915C238.037 235.925 238.257 235.856 238.511 235.709C238.819 235.531 239.053 235.314 239.215 235.058C239.376 234.801 239.457 234.526 239.457 234.232C239.457 233.994 239.399 233.843 239.281 233.78C239.164 233.713 238.96 233.735 238.669 233.847L238.196 234.029C237.99 234.106 237.816 234.143 237.675 234.141C237.537 234.136 237.426 234.1 237.341 234.032C237.257 233.96 237.196 233.864 237.16 233.745C237.123 233.622 237.105 233.483 237.105 233.329C237.105 232.881 237.232 232.469 237.487 232.093C237.742 231.718 238.085 231.405 238.517 231.155C238.857 230.959 239.142 230.86 239.372 230.858C239.607 230.853 239.795 230.929 239.936 231.085L239.578 231.649C239.461 231.539 239.32 231.476 239.154 231.46C238.988 231.443 238.774 231.511 238.511 231.663C238.224 231.828 238.004 232.026 237.851 232.254C237.697 232.483 237.62 232.737 237.62 233.017C237.62 233.237 237.677 233.384 237.79 233.458C237.907 233.526 238.115 233.504 238.414 233.392L238.869 233.22C239.075 233.143 239.249 233.106 239.39 233.108C239.532 233.111 239.645 233.146 239.73 233.213C239.819 233.279 239.881 233.373 239.918 233.497C239.954 233.62 239.972 233.762 239.972 233.92C239.972 234.373 239.843 234.802 239.584 235.208C239.33 235.612 238.966 235.95 238.493 236.223ZM244.329 228.395L242.437 229.487L242.316 231.426L242.359 231.402C242.464 231.178 242.581 230.982 242.71 230.814C242.839 230.641 243.017 230.489 243.244 230.359C243.43 230.251 243.599 230.188 243.753 230.17C243.91 230.144 244.046 230.164 244.159 230.229C244.272 230.294 244.361 230.402 244.426 230.551C244.49 230.696 244.523 230.887 244.523 231.125C244.523 231.363 244.49 231.601 244.426 231.839C244.361 232.072 244.266 232.298 244.141 232.515C244.016 232.727 243.864 232.924 243.686 233.106C243.508 233.288 243.306 233.444 243.08 233.575C242.902 233.678 242.742 233.747 242.601 233.782C242.464 233.814 242.34 233.822 242.231 233.806C242.126 233.787 242.033 233.752 241.952 233.701C241.872 233.65 241.799 233.589 241.734 233.519L242.116 232.963C242.173 233.028 242.229 233.084 242.286 233.131C242.346 233.175 242.415 233.205 242.492 233.222C242.569 233.233 242.656 233.227 242.753 233.204C242.85 233.181 242.963 233.132 243.092 233.057C243.383 232.889 243.605 232.67 243.759 232.399C243.917 232.126 243.995 231.829 243.995 231.507V231.451C243.995 231.129 243.917 230.922 243.759 230.831C243.601 230.74 243.375 230.78 243.08 230.95C242.878 231.067 242.72 231.197 242.607 231.342C242.498 231.484 242.397 231.641 242.304 231.811L241.874 231.99L242.025 229.214L244.329 227.884V228.395ZM248.188 230.542V229.583L246.103 230.787V230.269L247.933 225.803L248.673 225.376V228.82L249.303 228.456V228.939L248.673 229.303V230.262L248.188 230.542ZM246.557 230.042L248.188 229.1V226.111L248.164 226.125L246.557 230.042ZM252.326 228.237C252.104 228.365 251.904 228.439 251.726 228.457C251.548 228.471 251.397 228.435 251.271 228.349C251.15 228.256 251.055 228.112 250.986 227.918C250.922 227.722 250.889 227.48 250.889 227.19C250.889 226.826 250.936 226.459 251.029 226.088C251.126 225.71 251.247 225.348 251.393 225.003C251.542 224.651 251.708 224.322 251.89 224.016C252.071 223.706 252.249 223.437 252.423 223.211L253.078 222.833C252.847 223.157 252.641 223.463 252.459 223.75C252.282 224.035 252.124 224.317 251.987 224.597C251.849 224.872 251.734 225.151 251.641 225.433C251.548 225.711 251.471 226.01 251.411 226.329L251.441 226.326C251.542 226.067 251.675 225.824 251.841 225.598C252.007 225.367 252.221 225.176 252.484 225.024C252.67 224.917 252.839 224.854 252.993 224.835C253.147 224.816 253.28 224.84 253.393 224.905C253.506 224.97 253.593 225.079 253.654 225.23C253.718 225.38 253.751 225.569 253.751 225.797C253.751 226.035 253.716 226.275 253.648 226.515C253.579 226.751 253.482 226.977 253.357 227.194C253.235 227.404 253.086 227.6 252.908 227.782C252.734 227.962 252.54 228.113 252.326 228.237ZM252.32 227.743C252.611 227.575 252.835 227.355 252.993 227.082C253.155 226.807 253.235 226.503 253.235 226.172V226.116C253.235 225.785 253.155 225.575 252.993 225.486C252.835 225.395 252.611 225.433 252.32 225.601C252.029 225.769 251.803 225.991 251.641 226.266C251.483 226.539 251.405 226.842 251.405 227.173V227.229C251.405 227.56 251.483 227.771 251.641 227.862C251.803 227.951 252.029 227.911 252.32 227.743ZM256.913 225.589C256.533 225.808 256.222 225.908 255.979 225.89C255.737 225.866 255.537 225.774 255.379 225.613L255.749 225.05C255.915 225.192 256.088 225.269 256.27 225.281C256.456 225.29 256.676 225.221 256.931 225.074C257.238 224.897 257.473 224.68 257.634 224.423C257.796 224.167 257.877 223.891 257.877 223.597C257.877 223.359 257.818 223.209 257.701 223.146C257.584 223.078 257.38 223.1 257.089 223.212L256.616 223.394C256.41 223.471 256.236 223.509 256.094 223.506C255.957 223.502 255.846 223.465 255.761 223.398C255.676 223.325 255.615 223.23 255.579 223.111C255.543 222.987 255.525 222.848 255.525 222.694C255.525 222.246 255.652 221.834 255.906 221.459C256.161 221.083 256.505 220.77 256.937 220.521C257.277 220.325 257.561 220.226 257.792 220.223C258.026 220.219 258.214 220.294 258.356 220.451L257.998 221.014C257.881 220.905 257.739 220.842 257.574 220.825C257.408 220.809 257.194 220.877 256.931 221.028C256.644 221.194 256.424 221.391 256.27 221.62C256.117 221.848 256.04 222.103 256.04 222.383C256.04 222.602 256.096 222.749 256.21 222.824C256.327 222.891 256.535 222.869 256.834 222.757L257.289 222.586C257.495 222.509 257.669 222.471 257.81 222.474C257.951 222.476 258.065 222.511 258.149 222.579C258.238 222.644 258.301 222.739 258.337 222.862C258.374 222.986 258.392 223.127 258.392 223.286C258.392 223.738 258.263 224.168 258.004 224.574C257.749 224.977 257.386 225.316 256.913 225.589ZM260.287 218.671L261.469 217.988C261.986 217.689 262.372 217.672 262.627 217.936C262.882 218.199 263.009 218.735 263.009 219.542C263.009 220.349 262.882 221.032 262.627 221.59C262.372 222.147 261.986 222.575 261.469 222.874L260.287 223.557V218.671ZM261.445 222.377C261.784 222.181 262.039 221.899 262.209 221.53C262.383 221.159 262.469 220.726 262.469 220.232V219.476C262.469 218.981 262.383 218.648 262.209 218.478C262.039 218.305 261.784 218.317 261.445 218.513L260.796 218.888V222.752L261.445 222.377ZM264.892 216.012L266.074 215.329C266.591 215.031 266.977 215.013 267.232 215.277C267.487 215.541 267.614 216.076 267.614 216.883C267.614 217.691 267.487 218.373 267.232 218.931C266.977 219.489 266.591 219.917 266.074 220.215L264.892 220.898V216.012ZM266.05 219.718C266.389 219.522 266.644 219.24 266.814 218.871C266.987 218.5 267.074 218.068 267.074 217.573V216.817C267.074 216.322 266.987 215.99 266.814 215.819C266.644 215.647 266.389 215.658 266.05 215.854L265.401 216.229V220.093L266.05 219.718ZM270.727 217.613C270.348 217.832 270.036 217.933 269.794 217.914C269.551 217.891 269.351 217.798 269.194 217.637L269.564 217.074C269.729 217.216 269.903 217.293 270.085 217.305C270.271 217.314 270.491 217.245 270.746 217.098C271.053 216.921 271.287 216.704 271.449 216.447C271.611 216.191 271.691 215.915 271.691 215.621C271.691 215.383 271.633 215.233 271.516 215.17C271.398 215.102 271.194 215.124 270.903 215.236L270.43 215.418C270.224 215.495 270.051 215.533 269.909 215.53C269.772 215.526 269.661 215.49 269.576 215.422C269.491 215.35 269.43 215.254 269.394 215.135C269.357 215.011 269.339 214.872 269.339 214.718C269.339 214.27 269.467 213.859 269.721 213.483C269.976 213.107 270.319 212.795 270.752 212.545C271.091 212.349 271.376 212.25 271.606 212.247C271.841 212.243 272.029 212.319 272.17 212.475L271.813 213.038C271.695 212.929 271.554 212.866 271.388 212.849C271.223 212.833 271.008 212.901 270.746 213.052C270.459 213.218 270.238 213.415 270.085 213.644C269.931 213.873 269.855 214.127 269.855 214.407C269.855 214.626 269.911 214.773 270.024 214.848C270.141 214.916 270.35 214.893 270.649 214.781L271.103 214.61C271.309 214.533 271.483 214.496 271.625 214.498C271.766 214.5 271.879 214.535 271.964 214.603C272.053 214.668 272.116 214.763 272.152 214.886C272.188 215.01 272.207 215.151 272.207 215.31C272.207 215.763 272.077 216.192 271.819 216.598C271.564 217.002 271.2 217.34 270.727 217.613ZM276.217 213.708L276.187 213.726C276.151 213.84 276.108 213.956 276.06 214.072C276.011 214.189 275.949 214.304 275.872 214.419C275.799 214.526 275.71 214.631 275.605 214.734C275.5 214.836 275.375 214.93 275.229 215.014C274.769 215.28 274.425 215.263 274.199 214.965C273.976 214.664 273.865 214.112 273.865 213.309C273.865 212.469 273.989 211.761 274.235 211.185C274.482 210.608 274.862 210.172 275.375 209.876C275.573 209.761 275.745 209.693 275.89 209.669C276.036 209.646 276.159 209.656 276.26 209.701C276.365 209.743 276.452 209.809 276.521 209.9C276.589 209.987 276.646 210.082 276.69 210.187L276.254 210.67C276.217 210.584 276.175 210.508 276.126 210.443C276.082 210.37 276.025 210.319 275.957 210.289C275.892 210.251 275.813 210.239 275.72 210.25C275.627 210.262 275.518 210.304 275.393 210.376C275.053 210.572 274.803 210.864 274.641 211.251C274.484 211.636 274.405 212.074 274.405 212.564V213.32C274.405 213.567 274.421 213.784 274.453 213.971C274.486 214.153 274.538 214.297 274.611 214.405C274.688 214.51 274.785 214.57 274.902 214.587C275.023 214.596 275.171 214.551 275.344 214.45C275.619 214.292 275.833 214.072 275.987 213.792C276.141 213.512 276.217 213.221 276.217 212.917V212.413L275.326 212.928V212.459L276.69 211.671V214.086L276.217 214.359V213.708ZM187.858 277.458C187.635 277.586 187.435 277.66 187.258 277.678C187.08 277.692 186.928 277.656 186.803 277.57C186.682 277.476 186.587 277.333 186.518 277.139C186.453 276.943 186.421 276.701 186.421 276.411C186.421 276.047 186.467 275.68 186.56 275.309C186.657 274.931 186.779 274.569 186.924 274.224C187.074 273.871 187.239 273.542 187.421 273.237C187.603 272.926 187.781 272.658 187.955 272.432L188.609 272.054C188.379 272.378 188.173 272.684 187.991 272.971C187.813 273.255 187.656 273.538 187.518 273.818C187.381 274.093 187.266 274.372 187.173 274.654C187.08 274.932 187.003 275.231 186.942 275.55L186.973 275.547C187.074 275.288 187.207 275.045 187.373 274.819C187.538 274.588 187.753 274.396 188.015 274.245C188.201 274.137 188.371 274.074 188.525 274.056C188.678 274.037 188.811 274.06 188.925 274.126C189.038 274.191 189.125 274.3 189.185 274.451C189.25 274.601 189.282 274.79 189.282 275.018C189.282 275.256 189.248 275.495 189.179 275.736C189.111 275.971 189.014 276.198 188.888 276.415C188.767 276.625 188.617 276.821 188.44 277.003C188.266 277.182 188.072 277.334 187.858 277.458ZM187.852 276.964C188.143 276.796 188.367 276.576 188.525 276.303C188.686 276.027 188.767 275.724 188.767 275.393V275.337C188.767 275.005 188.686 274.795 188.525 274.707C188.367 274.616 188.143 274.654 187.852 274.822C187.561 274.99 187.334 275.212 187.173 275.487C187.015 275.76 186.936 276.062 186.936 276.394V276.45C186.936 276.781 187.015 276.992 187.173 277.083C187.334 277.172 187.561 277.132 187.852 276.964ZM192.444 274.81C192.064 275.029 191.753 275.129 191.511 275.111C191.268 275.087 191.068 274.995 190.911 274.834L191.28 274.271C191.446 274.413 191.62 274.49 191.802 274.502C191.988 274.511 192.208 274.442 192.463 274.295C192.77 274.118 193.004 273.901 193.166 273.644C193.327 273.387 193.408 273.112 193.408 272.818C193.408 272.58 193.35 272.43 193.232 272.367C193.115 272.299 192.911 272.321 192.62 272.433L192.147 272.615C191.941 272.692 191.767 272.729 191.626 272.727C191.489 272.722 191.377 272.686 191.293 272.619C191.208 272.546 191.147 272.451 191.111 272.332C191.074 272.208 191.056 272.069 191.056 271.915C191.056 271.467 191.183 271.055 191.438 270.68C191.693 270.304 192.036 269.991 192.469 269.742C192.808 269.546 193.093 269.446 193.323 269.444C193.558 269.439 193.746 269.515 193.887 269.672L193.53 270.235C193.412 270.125 193.271 270.062 193.105 270.046C192.939 270.03 192.725 270.097 192.463 270.249C192.176 270.415 191.955 270.612 191.802 270.841C191.648 271.069 191.571 271.324 191.571 271.604C191.571 271.823 191.628 271.97 191.741 272.045C191.858 272.112 192.066 272.09 192.366 271.978L192.82 271.807C193.026 271.73 193.2 271.692 193.342 271.695C193.483 271.697 193.596 271.732 193.681 271.8C193.77 271.865 193.833 271.959 193.869 272.083C193.905 272.207 193.924 272.348 193.924 272.507C193.924 272.959 193.794 273.389 193.536 273.795C193.281 274.198 192.917 274.537 192.444 274.81ZM195.819 267.891L197.001 267.209C197.518 266.91 197.904 266.893 198.159 267.156C198.413 267.42 198.541 267.956 198.541 268.763C198.541 269.57 198.413 270.253 198.159 270.81C197.904 271.368 197.518 271.796 197.001 272.095L195.819 272.777V267.891ZM196.977 271.598C197.316 271.402 197.571 271.12 197.74 270.751C197.914 270.38 198.001 269.947 198.001 269.452V268.696C198.001 268.202 197.914 267.869 197.74 267.699C197.571 267.526 197.316 267.538 196.977 267.734L196.328 268.108V271.972L196.977 271.598ZM201.484 266.692C201.779 266.522 202 266.32 202.145 266.087C202.295 265.847 202.369 265.607 202.369 265.369V265.32C202.369 265.059 202.297 264.905 202.151 264.858C202.01 264.809 201.824 264.851 201.594 264.984C201.367 265.115 201.183 265.28 201.042 265.478C200.904 265.669 200.791 265.884 200.702 266.122L200.32 266.006C200.373 265.878 200.438 265.745 200.514 265.607C200.591 265.465 200.68 265.327 200.781 265.194C200.886 265.059 201.005 264.93 201.139 264.806C201.276 264.68 201.432 264.567 201.606 264.466C201.788 264.361 201.957 264.291 202.115 264.256C202.272 264.217 202.41 264.217 202.527 264.256C202.644 264.291 202.735 264.367 202.8 264.484C202.869 264.598 202.903 264.753 202.903 264.949C202.903 265.108 202.881 265.263 202.836 265.415C202.796 265.564 202.737 265.708 202.66 265.845C202.588 265.981 202.501 266.11 202.4 266.234C202.299 266.358 202.192 266.468 202.079 266.566V266.594C202.196 266.555 202.309 266.536 202.418 266.538C202.527 266.536 202.624 266.562 202.709 266.615C202.794 266.664 202.861 266.747 202.909 266.864C202.962 266.974 202.988 267.119 202.988 267.301C202.988 267.511 202.951 267.726 202.879 267.945C202.81 268.158 202.711 268.364 202.582 268.565C202.456 268.759 202.303 268.943 202.121 269.118C201.943 269.291 201.745 269.44 201.527 269.566C201.341 269.673 201.175 269.746 201.03 269.783C200.888 269.818 200.761 269.828 200.648 269.814C200.539 269.798 200.442 269.765 200.357 269.716C200.276 269.665 200.203 269.604 200.139 269.534L200.521 268.978C200.577 269.043 200.636 269.098 200.696 269.142C200.757 269.187 200.826 269.217 200.902 269.233C200.983 269.243 201.074 269.235 201.175 269.209C201.276 269.183 201.393 269.132 201.527 269.055C201.826 268.882 202.054 268.671 202.212 268.421C202.374 268.169 202.454 267.896 202.454 267.602V267.546C202.454 267.257 202.376 267.079 202.218 267.011C202.064 266.941 201.832 266.996 201.521 267.175L201.018 267.466V266.962L201.484 266.692ZM206.744 266.47V265.511L204.659 266.715V266.197L206.489 261.731L207.229 261.304V264.748L207.859 264.384V264.867L207.229 265.231V266.19L206.744 266.47ZM205.113 265.969L206.744 265.028V262.039L206.72 262.053L205.113 265.969ZM210.882 264.165C210.66 264.293 210.46 264.366 210.282 264.385C210.104 264.399 209.953 264.363 209.827 264.277C209.706 264.183 209.611 264.04 209.542 263.846C209.478 263.65 209.445 263.407 209.445 263.118C209.445 262.754 209.492 262.387 209.585 262.016C209.682 261.638 209.803 261.276 209.949 260.931C210.098 260.578 210.264 260.249 210.446 259.944C210.627 259.633 210.805 259.365 210.979 259.139L211.634 258.761C211.403 259.085 211.197 259.391 211.015 259.678C210.838 259.962 210.68 260.245 210.543 260.525C210.405 260.8 210.29 261.079 210.197 261.361C210.104 261.639 210.027 261.937 209.967 262.257L209.997 262.254C210.098 261.995 210.231 261.752 210.397 261.526C210.563 261.295 210.777 261.103 211.04 260.952C211.226 260.844 211.395 260.781 211.549 260.763C211.703 260.744 211.836 260.767 211.949 260.833C212.062 260.898 212.149 261.006 212.21 261.158C212.274 261.307 212.307 261.496 212.307 261.725C212.307 261.963 212.272 262.202 212.204 262.443C212.135 262.678 212.038 262.905 211.913 263.122C211.791 263.332 211.642 263.528 211.464 263.71C211.29 263.889 211.096 264.041 210.882 264.165ZM210.876 263.671C211.167 263.503 211.391 263.283 211.549 263.01C211.711 262.734 211.791 262.431 211.791 262.1V262.044C211.791 261.712 211.711 261.502 211.549 261.414C211.391 261.323 211.167 261.361 210.876 261.529C210.585 261.697 210.359 261.919 210.197 262.194C210.039 262.467 209.961 262.769 209.961 263.101V263.157C209.961 263.488 210.039 263.699 210.197 263.79C210.359 263.879 210.585 263.839 210.876 263.671ZM216.354 260.27L216.324 260.288C216.287 260.402 216.245 260.518 216.196 260.634C216.148 260.751 216.085 260.867 216.008 260.981C215.936 261.088 215.847 261.193 215.742 261.296C215.637 261.399 215.511 261.492 215.366 261.576C214.905 261.842 214.562 261.826 214.335 261.527C214.113 261.226 214.002 260.674 214.002 259.871C214.002 259.031 214.125 258.323 214.372 257.747C214.618 257.171 214.998 256.734 215.511 256.438C215.709 256.324 215.881 256.255 216.027 256.231C216.172 256.208 216.295 256.219 216.396 256.263C216.501 256.305 216.588 256.371 216.657 256.462C216.726 256.549 216.782 256.644 216.827 256.749L216.39 257.232C216.354 257.146 216.311 257.07 216.263 257.005C216.218 256.933 216.162 256.881 216.093 256.851C216.029 256.814 215.95 256.801 215.857 256.812C215.764 256.824 215.655 256.866 215.529 256.938C215.19 257.134 214.939 257.426 214.778 257.813C214.62 258.198 214.541 258.636 214.541 259.126V259.882C214.541 260.129 214.557 260.346 214.59 260.533C214.622 260.715 214.675 260.86 214.747 260.967C214.824 261.072 214.921 261.133 215.038 261.149C215.16 261.158 215.307 261.113 215.481 261.012C215.756 260.854 215.97 260.634 216.124 260.354C216.277 260.074 216.354 259.783 216.354 259.479V258.975L215.463 259.49V259.021L216.827 258.233V260.648L216.354 260.921V260.27ZM220.34 254.245V258.62L219.831 258.914V254.539L218.419 255.354V254.843L221.753 252.918V253.429L220.34 254.245ZM225.164 255.835V254.876L223.078 256.08V255.562L224.909 251.096L225.649 250.669V254.113L226.279 253.749V254.232L225.649 254.596V255.555L225.164 255.835ZM223.533 255.335L225.164 254.393V251.404L225.139 251.418L223.533 255.335ZM229.114 250.741C229.409 250.57 229.629 250.368 229.775 250.135C229.924 249.895 229.999 249.656 229.999 249.418V249.369C229.999 249.107 229.926 248.953 229.781 248.907C229.639 248.858 229.453 248.9 229.223 249.033C228.997 249.163 228.813 249.328 228.671 249.526C228.534 249.717 228.421 249.932 228.332 250.17L227.95 250.055C228.002 249.926 228.067 249.793 228.144 249.656C228.221 249.513 228.309 249.376 228.411 249.243C228.516 249.107 228.635 248.978 228.768 248.854C228.906 248.728 229.061 248.615 229.235 248.515C229.417 248.41 229.587 248.34 229.744 248.305C229.902 248.265 230.039 248.265 230.156 248.305C230.274 248.34 230.365 248.415 230.429 248.532C230.498 248.646 230.532 248.802 230.532 248.998C230.532 249.156 230.51 249.311 230.466 249.463C230.425 249.612 230.367 249.756 230.29 249.894C230.217 250.029 230.13 250.158 230.029 250.282C229.928 250.406 229.821 250.517 229.708 250.615V250.643C229.825 250.603 229.938 250.584 230.047 250.587C230.156 250.584 230.253 250.61 230.338 250.664C230.423 250.713 230.49 250.795 230.538 250.912C230.591 251.022 230.617 251.168 230.617 251.35C230.617 251.56 230.581 251.774 230.508 251.994C230.439 252.206 230.34 252.412 230.211 252.613C230.086 252.807 229.932 252.991 229.75 253.166C229.572 253.339 229.374 253.488 229.156 253.614C228.97 253.721 228.805 253.794 228.659 253.831C228.518 253.866 228.39 253.877 228.277 253.863C228.168 253.846 228.071 253.814 227.986 253.765C227.905 253.713 227.833 253.653 227.768 253.583L228.15 253.026C228.206 253.091 228.265 253.146 228.326 253.191C228.386 253.235 228.455 253.265 228.532 253.282C228.613 253.291 228.704 253.283 228.805 253.257C228.906 253.231 229.023 253.18 229.156 253.103C229.455 252.93 229.684 252.719 229.841 252.47C230.003 252.218 230.084 251.945 230.084 251.651V251.595C230.084 251.305 230.005 251.127 229.847 251.059C229.694 250.989 229.461 251.044 229.15 251.224L228.647 251.514V251.01L229.114 250.741ZM232.597 251.543V251.032L233.81 250.332V246.391L233.767 246.416L232.7 248.18L232.403 247.98L233.525 246.122L234.319 245.663V250.038L235.434 249.394V249.905L232.597 251.543ZM239.378 246.977L239.348 246.995C239.312 247.109 239.269 247.225 239.221 247.341C239.172 247.458 239.11 247.573 239.033 247.688C238.96 247.795 238.871 247.9 238.766 248.003C238.661 248.105 238.536 248.199 238.39 248.283C237.929 248.549 237.586 248.532 237.36 248.234C237.137 247.933 237.026 247.381 237.026 246.578C237.026 245.738 237.149 245.03 237.396 244.454C237.643 243.877 238.022 243.441 238.536 243.145C238.734 243.03 238.905 242.962 239.051 242.938C239.196 242.915 239.32 242.925 239.421 242.97C239.526 243.012 239.613 243.078 239.681 243.169C239.75 243.256 239.807 243.351 239.851 243.456L239.415 243.939C239.378 243.853 239.336 243.777 239.287 243.712C239.243 243.639 239.186 243.588 239.118 243.558C239.053 243.52 238.974 243.508 238.881 243.519C238.788 243.531 238.679 243.573 238.554 243.645C238.214 243.841 237.964 244.133 237.802 244.52C237.645 244.905 237.566 245.343 237.566 245.833V246.589C237.566 246.836 237.582 247.053 237.614 247.24C237.647 247.422 237.699 247.566 237.772 247.674C237.849 247.779 237.946 247.839 238.063 247.856C238.184 247.865 238.332 247.82 238.505 247.719C238.78 247.561 238.994 247.341 239.148 247.061C239.302 246.781 239.378 246.49 239.378 246.186V245.682L238.487 246.197V245.728L239.851 244.94V247.355L239.378 247.628V246.977ZM243.365 240.952V245.327L242.856 245.621V241.246L241.443 242.061V241.55L244.777 239.625V240.136L243.365 240.952ZM247.533 240.106C247.828 239.936 248.049 239.734 248.194 239.501C248.344 239.26 248.418 239.021 248.418 238.783V238.734C248.418 238.473 248.346 238.319 248.2 238.272C248.059 238.223 247.873 238.265 247.642 238.398C247.416 238.529 247.232 238.693 247.091 238.892C246.953 239.083 246.84 239.298 246.751 239.536L246.369 239.42C246.422 239.292 246.487 239.159 246.563 239.021C246.64 238.879 246.729 238.741 246.83 238.608C246.935 238.473 247.054 238.343 247.188 238.22C247.325 238.094 247.481 237.98 247.655 237.88C247.836 237.775 248.006 237.705 248.164 237.67C248.321 237.63 248.459 237.63 248.576 237.67C248.693 237.705 248.784 237.781 248.849 237.898C248.917 238.012 248.952 238.167 248.952 238.363C248.952 238.522 248.93 238.677 248.885 238.829C248.845 238.978 248.786 239.121 248.709 239.259C248.637 239.394 248.55 239.524 248.449 239.648C248.348 239.771 248.241 239.882 248.127 239.98V240.008C248.245 239.968 248.358 239.95 248.467 239.952C248.576 239.95 248.673 239.975 248.758 240.029C248.843 240.078 248.909 240.161 248.958 240.278C249.01 240.387 249.037 240.533 249.037 240.715C249.037 240.925 249 241.14 248.928 241.359C248.859 241.571 248.76 241.778 248.631 241.979C248.505 242.172 248.352 242.357 248.17 242.532C247.992 242.704 247.794 242.854 247.576 242.98C247.39 243.087 247.224 243.159 247.079 243.197C246.937 243.232 246.81 243.242 246.697 243.228C246.588 243.212 246.491 243.179 246.406 243.13C246.325 243.079 246.252 243.018 246.187 242.948L246.569 242.392C246.626 242.457 246.685 242.512 246.745 242.556C246.806 242.6 246.875 242.631 246.951 242.647C247.032 242.656 247.123 242.648 247.224 242.623C247.325 242.597 247.442 242.546 247.576 242.469C247.875 242.296 248.103 242.085 248.261 241.835C248.422 241.583 248.503 241.31 248.503 241.016V240.96C248.503 240.671 248.424 240.492 248.267 240.425C248.113 240.355 247.881 240.409 247.57 240.589L247.066 240.88V240.376L247.533 240.106ZM252.065 240.303V238.385L250.604 236.261L251.186 235.925L251.793 236.849L252.308 237.664L252.332 237.65L252.86 236.233L253.466 234.609L254.036 234.28L252.575 238.091V240.009L252.065 240.303ZM256.913 237.589C256.533 237.808 256.222 237.908 255.979 237.89C255.737 237.866 255.537 237.774 255.379 237.613L255.749 237.05C255.915 237.192 256.088 237.269 256.27 237.281C256.456 237.29 256.676 237.221 256.931 237.074C257.238 236.897 257.473 236.68 257.634 236.423C257.796 236.167 257.877 235.891 257.877 235.597C257.877 235.359 257.818 235.209 257.701 235.146C257.584 235.078 257.38 235.1 257.089 235.212L256.616 235.394C256.41 235.471 256.236 235.509 256.094 235.506C255.957 235.502 255.846 235.465 255.761 235.398C255.676 235.325 255.615 235.23 255.579 235.111C255.543 234.987 255.525 234.848 255.525 234.694C255.525 234.246 255.652 233.834 255.906 233.459C256.161 233.083 256.505 232.77 256.937 232.521C257.277 232.325 257.561 232.226 257.792 232.223C258.026 232.219 258.214 232.294 258.356 232.451L257.998 233.014C257.881 232.905 257.739 232.842 257.574 232.825C257.408 232.809 257.194 232.877 256.931 233.028C256.644 233.194 256.424 233.391 256.27 233.62C256.117 233.848 256.04 234.103 256.04 234.383C256.04 234.602 256.096 234.749 256.21 234.824C256.327 234.891 256.535 234.869 256.834 234.757L257.289 234.586C257.495 234.509 257.669 234.471 257.81 234.474C257.951 234.476 258.065 234.511 258.149 234.579C258.238 234.644 258.301 234.739 258.337 234.862C258.374 234.986 258.392 235.127 258.392 235.286C258.392 235.738 258.263 236.168 258.004 236.574C257.749 236.977 257.386 237.316 256.913 237.589ZM262.748 229.761L260.857 230.853L260.736 232.792L260.778 232.767C260.883 232.543 261 232.347 261.13 232.179C261.259 232.006 261.437 231.855 261.663 231.724C261.849 231.617 262.019 231.554 262.172 231.535C262.33 231.509 262.465 231.529 262.579 231.595C262.692 231.66 262.781 231.767 262.845 231.917C262.91 232.061 262.942 232.253 262.942 232.491C262.942 232.729 262.91 232.967 262.845 233.205C262.781 233.438 262.686 233.663 262.56 233.88C262.435 234.092 262.284 234.29 262.106 234.472C261.928 234.654 261.726 234.81 261.499 234.941C261.322 235.043 261.162 235.112 261.021 235.147C260.883 235.18 260.76 235.188 260.651 235.172C260.546 235.153 260.453 235.118 260.372 235.067C260.291 235.015 260.218 234.955 260.154 234.885L260.536 234.328C260.592 234.393 260.649 234.449 260.705 234.496C260.766 234.54 260.835 234.571 260.911 234.587C260.988 234.599 261.075 234.593 261.172 234.57C261.269 234.546 261.382 234.497 261.512 234.423C261.803 234.255 262.025 234.035 262.178 233.765C262.336 233.492 262.415 233.194 262.415 232.872V232.816C262.415 232.494 262.336 232.288 262.178 232.197C262.021 232.106 261.795 232.145 261.499 232.316C261.297 232.432 261.14 232.563 261.027 232.708C260.918 232.85 260.816 233.006 260.724 233.177L260.293 233.355L260.445 230.58L262.748 229.25V229.761ZM266.141 232.261C265.918 232.389 265.718 232.463 265.541 232.481C265.363 232.495 265.211 232.459 265.086 232.373C264.965 232.28 264.87 232.136 264.801 231.942C264.736 231.746 264.704 231.504 264.704 231.214C264.704 230.85 264.75 230.483 264.843 230.112C264.94 229.734 265.062 229.372 265.207 229.027C265.357 228.675 265.522 228.346 265.704 228.04C265.886 227.73 266.064 227.461 266.238 227.235L266.892 226.857C266.662 227.181 266.456 227.487 266.274 227.774C266.096 228.059 265.939 228.341 265.801 228.621C265.664 228.896 265.549 229.175 265.456 229.457C265.363 229.735 265.286 230.034 265.225 230.353L265.256 230.35C265.357 230.091 265.49 229.848 265.656 229.622C265.821 229.391 266.036 229.2 266.298 229.048C266.484 228.941 266.654 228.878 266.808 228.859C266.961 228.84 267.095 228.864 267.208 228.929C267.321 228.994 267.408 229.103 267.468 229.254C267.533 229.404 267.565 229.593 267.565 229.821C267.565 230.059 267.531 230.299 267.462 230.539C267.394 230.775 267.297 231.001 267.171 231.218C267.05 231.428 266.901 231.624 266.723 231.806C266.549 231.986 266.355 232.137 266.141 232.261ZM266.135 231.767C266.426 231.599 266.65 231.379 266.808 231.106C266.969 230.831 267.05 230.527 267.05 230.196V230.14C267.05 229.809 266.969 229.599 266.808 229.51C266.65 229.419 266.426 229.457 266.135 229.625C265.844 229.793 265.617 230.015 265.456 230.29C265.298 230.563 265.219 230.866 265.219 231.197V231.253C265.219 231.584 265.298 231.795 265.456 231.886C265.617 231.975 265.844 231.935 266.135 231.767ZM270.485 229.669V227.751L269.024 225.626L269.606 225.29L270.212 226.214L270.727 227.03L270.752 227.016L271.279 225.598L271.885 223.974L272.455 223.645L270.994 227.457V229.375L270.485 229.669ZM275.817 226.59V225.631L273.732 226.835V226.317L275.563 221.851L276.302 221.424V224.868L276.933 224.504V224.987L276.302 225.351V226.31L275.817 226.59ZM274.187 226.09L275.817 225.148V222.159L275.793 222.173L274.187 226.09ZM189.07 284.299L187.179 285.391L187.057 287.33L187.1 287.305C187.205 287.081 187.322 286.885 187.452 286.717C187.581 286.545 187.759 286.393 187.985 286.262C188.171 286.155 188.341 286.092 188.494 286.073C188.652 286.048 188.787 286.067 188.9 286.133C189.014 286.198 189.102 286.305 189.167 286.455C189.232 286.599 189.264 286.791 189.264 287.029C189.264 287.267 189.232 287.505 189.167 287.743C189.102 287.976 189.007 288.201 188.882 288.418C188.757 288.631 188.605 288.828 188.428 289.01C188.25 289.192 188.048 289.348 187.821 289.479C187.643 289.581 187.484 289.65 187.342 289.685C187.205 289.718 187.082 289.726 186.973 289.71C186.868 289.691 186.775 289.656 186.694 289.605C186.613 289.553 186.54 289.493 186.475 289.423L186.857 288.866C186.914 288.932 186.971 288.988 187.027 289.034C187.088 289.079 187.156 289.109 187.233 289.125C187.31 289.137 187.397 289.131 187.494 289.108C187.591 289.084 187.704 289.035 187.833 288.961C188.124 288.793 188.347 288.573 188.5 288.303C188.658 288.03 188.737 287.732 188.737 287.41V287.354C188.737 287.032 188.658 286.826 188.5 286.735C188.343 286.644 188.116 286.683 187.821 286.854C187.619 286.97 187.462 287.101 187.348 287.246C187.239 287.388 187.138 287.544 187.045 287.715L186.615 287.893L186.766 285.118L189.07 283.788V284.299ZM191.183 287.454V282.568L193.851 281.028V281.539L191.693 282.785V284.43L193.669 283.289V283.8L191.693 284.941V287.16L191.183 287.454ZM195.819 279.891L197.001 279.209C197.518 278.91 197.904 278.893 198.159 279.156C198.413 279.42 198.541 279.956 198.541 280.763C198.541 281.57 198.413 282.253 198.159 282.81C197.904 283.368 197.518 283.796 197.001 284.095L195.819 284.777V279.891ZM196.977 283.598C197.316 283.402 197.571 283.12 197.74 282.751C197.914 282.38 198.001 281.947 198.001 281.452V280.696C198.001 280.202 197.914 279.869 197.74 279.699C197.571 279.526 197.316 279.538 196.977 279.734L196.328 280.108V283.972L196.977 283.598ZM200.393 282.136V277.25L203.061 275.71V276.221L200.902 277.467V279.112L202.879 277.971V278.482L200.902 279.623V281.842L200.393 282.136ZM206.259 278.834C205.879 279.053 205.568 279.153 205.325 279.135C205.083 279.111 204.883 279.019 204.725 278.858L205.095 278.295C205.261 278.437 205.435 278.514 205.616 278.526C205.802 278.535 206.023 278.466 206.277 278.319C206.584 278.142 206.819 277.925 206.98 277.668C207.142 277.412 207.223 277.136 207.223 276.842C207.223 276.604 207.164 276.454 207.047 276.391C206.93 276.323 206.726 276.345 206.435 276.457L205.962 276.639C205.756 276.716 205.582 276.754 205.441 276.751C205.303 276.747 205.192 276.71 205.107 276.643C205.022 276.57 204.962 276.475 204.925 276.356C204.889 276.232 204.871 276.093 204.871 275.939C204.871 275.491 204.998 275.079 205.253 274.704C205.507 274.328 205.851 274.015 206.283 273.766C206.623 273.57 206.908 273.471 207.138 273.468C207.372 273.464 207.56 273.539 207.702 273.696L207.344 274.259C207.227 274.15 207.086 274.087 206.92 274.07C206.754 274.054 206.54 274.122 206.277 274.273C205.99 274.439 205.77 274.636 205.616 274.865C205.463 275.093 205.386 275.348 205.386 275.628C205.386 275.847 205.443 275.994 205.556 276.069C205.673 276.136 205.881 276.114 206.18 276.002L206.635 275.831C206.841 275.754 207.015 275.716 207.156 275.719C207.298 275.721 207.411 275.756 207.496 275.824C207.585 275.889 207.647 275.984 207.684 276.107C207.72 276.231 207.738 276.372 207.738 276.531C207.738 276.983 207.609 277.413 207.35 277.819C207.096 278.222 206.732 278.561 206.259 278.834ZM212.095 271.006L210.203 272.098L210.082 274.037L210.124 274.012C210.229 273.788 210.347 273.592 210.476 273.424C210.605 273.251 210.783 273.1 211.009 272.969C211.195 272.862 211.365 272.799 211.519 272.78C211.676 272.754 211.812 272.774 211.925 272.84C212.038 272.905 212.127 273.012 212.192 273.162C212.256 273.306 212.289 273.498 212.289 273.736C212.289 273.974 212.256 274.212 212.192 274.45C212.127 274.683 212.032 274.908 211.907 275.125C211.781 275.337 211.63 275.535 211.452 275.717C211.274 275.899 211.072 276.055 210.846 276.186C210.668 276.288 210.508 276.357 210.367 276.392C210.229 276.425 210.106 276.433 209.997 276.417C209.892 276.398 209.799 276.363 209.718 276.312C209.637 276.26 209.565 276.2 209.5 276.13L209.882 275.573C209.938 275.638 209.995 275.694 210.052 275.741C210.112 275.785 210.181 275.816 210.258 275.832C210.334 275.844 210.421 275.838 210.518 275.815C210.615 275.791 210.729 275.742 210.858 275.668C211.149 275.5 211.371 275.28 211.525 275.01C211.682 274.737 211.761 274.439 211.761 274.117V274.061C211.761 273.739 211.682 273.533 211.525 273.442C211.367 273.351 211.141 273.39 210.846 273.561C210.644 273.677 210.486 273.808 210.373 273.953C210.264 274.095 210.163 274.251 210.07 274.422L209.639 274.6L209.791 271.825L212.095 270.495V271.006ZM215.954 273.152V272.193L213.868 273.397V272.879L215.699 268.413L216.439 267.986V271.43L217.069 271.066V271.549L216.439 271.913V272.872L215.954 273.152ZM214.323 272.652L215.954 271.71V268.721L215.93 268.735L214.323 272.652ZM220.092 270.847C219.87 270.976 219.67 271.049 219.492 271.068C219.314 271.082 219.162 271.046 219.037 270.959C218.916 270.866 218.821 270.722 218.752 270.529C218.687 270.333 218.655 270.09 218.655 269.801C218.655 269.437 218.702 269.069 218.795 268.698C218.892 268.32 219.013 267.959 219.158 267.613C219.308 267.261 219.474 266.932 219.655 266.626C219.837 266.316 220.015 266.048 220.189 265.821L220.844 265.443C220.613 265.768 220.407 266.073 220.225 266.36C220.047 266.645 219.89 266.927 219.752 267.207C219.615 267.483 219.5 267.761 219.407 268.044C219.314 268.321 219.237 268.62 219.176 268.94L219.207 268.936C219.308 268.677 219.441 268.435 219.607 268.208C219.773 267.977 219.987 267.786 220.25 267.634C220.435 267.527 220.605 267.464 220.759 267.445C220.912 267.427 221.046 267.45 221.159 267.515C221.272 267.581 221.359 267.689 221.42 267.841C221.484 267.99 221.516 268.179 221.516 268.408C221.516 268.646 221.482 268.885 221.413 269.125C221.345 269.361 221.248 269.587 221.122 269.804C221.001 270.014 220.852 270.21 220.674 270.392C220.5 270.572 220.306 270.724 220.092 270.847ZM220.086 270.354C220.377 270.186 220.601 269.965 220.759 269.692C220.92 269.417 221.001 269.114 221.001 268.782V268.726C221.001 268.395 220.92 268.185 220.759 268.096C220.601 268.005 220.377 268.044 220.086 268.212C219.795 268.38 219.569 268.601 219.407 268.877C219.249 269.15 219.17 269.452 219.17 269.783V269.839C219.17 270.171 219.249 270.382 219.407 270.473C219.569 270.561 219.795 270.522 220.086 270.354ZM224.679 268.199C224.299 268.419 223.987 268.519 223.745 268.5C223.503 268.477 223.302 268.385 223.145 268.224L223.515 267.66C223.68 267.803 223.854 267.88 224.036 267.891C224.222 267.901 224.442 267.832 224.697 267.685C225.004 267.507 225.238 267.29 225.4 267.034C225.562 266.777 225.642 266.502 225.642 266.208C225.642 265.97 225.584 265.819 225.467 265.756C225.349 265.689 225.145 265.711 224.854 265.823L224.382 266.005C224.175 266.082 224.002 266.119 223.86 266.117C223.723 266.112 223.612 266.076 223.527 266.008C223.442 265.936 223.381 265.84 223.345 265.721C223.309 265.598 223.29 265.459 223.29 265.305C223.29 264.857 223.418 264.445 223.672 264.069C223.927 263.694 224.27 263.381 224.703 263.131C225.042 262.935 225.327 262.836 225.558 262.834C225.792 262.829 225.98 262.905 226.121 263.061L225.764 263.625C225.647 263.515 225.505 263.452 225.339 263.436C225.174 263.419 224.959 263.487 224.697 263.639C224.41 263.804 224.19 264.002 224.036 264.23C223.882 264.459 223.806 264.713 223.806 264.993C223.806 265.213 223.862 265.36 223.975 265.434C224.093 265.502 224.301 265.48 224.6 265.368L225.054 265.196C225.261 265.119 225.434 265.082 225.576 265.084C225.717 265.087 225.83 265.122 225.915 265.189C226.004 265.255 226.067 265.349 226.103 265.473C226.14 265.596 226.158 265.738 226.158 265.896C226.158 266.349 226.028 266.778 225.77 267.184C225.515 267.588 225.151 267.926 224.679 268.199ZM228.053 261.281L229.235 260.599C229.752 260.3 230.138 260.282 230.393 260.546C230.647 260.81 230.775 261.345 230.775 262.153C230.775 262.96 230.647 263.642 230.393 264.2C230.138 264.758 229.752 265.186 229.235 265.485L228.053 266.167V261.281ZM229.211 264.988C229.55 264.792 229.805 264.509 229.975 264.141C230.148 263.77 230.235 263.337 230.235 262.842V262.086C230.235 261.591 230.148 261.259 229.975 261.089C229.805 260.916 229.55 260.928 229.211 261.124L228.562 261.498V265.362L229.211 264.988ZM232.658 258.622L233.84 257.94C234.357 257.641 234.743 257.624 234.998 257.887C235.252 258.151 235.38 258.687 235.38 259.494C235.38 260.301 235.252 260.984 234.998 261.541C234.743 262.099 234.357 262.527 233.84 262.826L232.658 263.508V258.622ZM233.816 262.329C234.155 262.133 234.41 261.851 234.579 261.482C234.753 261.111 234.84 260.678 234.84 260.183V259.427C234.84 258.933 234.753 258.6 234.579 258.43C234.41 258.257 234.155 258.269 233.816 258.465L233.167 258.839V262.703L233.816 262.329ZM238.493 260.223C238.113 260.443 237.802 260.543 237.56 260.524C237.317 260.501 237.117 260.409 236.96 260.248L237.329 259.684C237.495 259.827 237.669 259.904 237.851 259.915C238.037 259.925 238.257 259.856 238.511 259.709C238.819 259.531 239.053 259.314 239.215 259.058C239.376 258.801 239.457 258.526 239.457 258.232C239.457 257.994 239.399 257.843 239.281 257.78C239.164 257.713 238.96 257.735 238.669 257.847L238.196 258.029C237.99 258.106 237.816 258.143 237.675 258.141C237.537 258.136 237.426 258.1 237.341 258.032C237.257 257.96 237.196 257.864 237.16 257.745C237.123 257.622 237.105 257.483 237.105 257.329C237.105 256.881 237.232 256.469 237.487 256.093C237.742 255.718 238.085 255.405 238.517 255.155C238.857 254.959 239.142 254.86 239.372 254.858C239.607 254.853 239.795 254.929 239.936 255.085L239.578 255.649C239.461 255.539 239.32 255.476 239.154 255.46C238.988 255.443 238.774 255.511 238.511 255.663C238.224 255.828 238.004 256.026 237.851 256.254C237.697 256.483 237.62 256.737 237.62 257.017C237.62 257.237 237.677 257.384 237.79 257.458C237.907 257.526 238.115 257.504 238.414 257.392L238.869 257.22C239.075 257.143 239.249 257.106 239.39 257.108C239.532 257.111 239.645 257.146 239.73 257.213C239.819 257.279 239.881 257.373 239.918 257.497C239.954 257.62 239.972 257.762 239.972 257.92C239.972 258.373 239.843 258.802 239.584 259.208C239.33 259.612 238.966 259.95 238.493 260.223ZM243.983 256.319L243.953 256.336C243.917 256.45 243.874 256.566 243.826 256.683C243.777 256.799 243.714 256.915 243.638 257.029C243.565 257.136 243.476 257.241 243.371 257.344C243.266 257.447 243.141 257.54 242.995 257.624C242.534 257.89 242.191 257.874 241.965 257.575C241.742 257.274 241.631 256.722 241.631 255.92C241.631 255.08 241.754 254.371 242.001 253.795C242.247 253.219 242.627 252.782 243.141 252.486C243.339 252.372 243.51 252.303 243.656 252.28C243.801 252.256 243.925 252.267 244.026 252.311C244.131 252.353 244.218 252.42 244.286 252.511C244.355 252.597 244.412 252.693 244.456 252.798L244.02 253.281C243.983 253.194 243.941 253.118 243.892 253.053C243.848 252.981 243.791 252.929 243.723 252.899C243.658 252.862 243.579 252.849 243.486 252.861C243.393 252.872 243.284 252.914 243.159 252.987C242.819 253.183 242.569 253.474 242.407 253.862C242.249 254.247 242.171 254.684 242.171 255.174V255.93C242.171 256.177 242.187 256.394 242.219 256.581C242.251 256.763 242.304 256.908 242.377 257.015C242.454 257.12 242.551 257.181 242.668 257.197C242.789 257.206 242.936 257.161 243.11 257.061C243.385 256.902 243.599 256.683 243.753 256.403C243.906 256.123 243.983 255.831 243.983 255.528V255.024L243.092 255.538V255.069L244.456 254.282V256.697L243.983 256.97V256.319ZM247.721 254.896C247.499 255.024 247.299 255.097 247.121 255.116C246.943 255.13 246.792 255.094 246.666 255.008C246.545 254.914 246.45 254.771 246.381 254.577C246.317 254.381 246.284 254.138 246.284 253.849C246.284 253.485 246.331 253.118 246.424 252.747C246.521 252.369 246.642 252.007 246.788 251.662C246.937 251.309 247.103 250.98 247.285 250.675C247.467 250.364 247.644 250.096 247.818 249.87L248.473 249.492C248.243 249.816 248.036 250.122 247.855 250.409C247.677 250.693 247.519 250.976 247.382 251.256C247.244 251.531 247.129 251.81 247.036 252.092C246.943 252.37 246.866 252.668 246.806 252.988L246.836 252.985C246.937 252.726 247.071 252.483 247.236 252.257C247.402 252.026 247.616 251.834 247.879 251.683C248.065 251.575 248.234 251.512 248.388 251.494C248.542 251.475 248.675 251.498 248.788 251.564C248.901 251.629 248.988 251.737 249.049 251.889C249.113 252.038 249.146 252.227 249.146 252.456C249.146 252.694 249.111 252.933 249.043 253.174C248.974 253.409 248.877 253.636 248.752 253.853C248.631 254.063 248.481 254.259 248.303 254.441C248.129 254.62 247.935 254.772 247.721 254.896ZM247.715 254.402C248.006 254.234 248.23 254.014 248.388 253.741C248.55 253.465 248.631 253.162 248.631 252.831V252.775C248.631 252.443 248.55 252.233 248.388 252.145C248.23 252.054 248.006 252.092 247.715 252.26C247.424 252.428 247.198 252.65 247.036 252.925C246.879 253.198 246.8 253.5 246.8 253.832V253.888C246.8 254.219 246.879 254.43 247.036 254.521C247.198 254.61 247.424 254.57 247.715 254.402ZM252.308 252.247C251.928 252.467 251.617 252.567 251.374 252.548C251.132 252.525 250.932 252.433 250.774 252.272L251.144 251.708C251.31 251.851 251.483 251.928 251.665 251.939C251.851 251.949 252.071 251.88 252.326 251.733C252.633 251.556 252.868 251.339 253.029 251.082C253.191 250.825 253.272 250.55 253.272 250.256C253.272 250.018 253.213 249.867 253.096 249.804C252.979 249.737 252.775 249.759 252.484 249.871L252.011 250.053C251.805 250.13 251.631 250.167 251.49 250.165C251.352 250.16 251.241 250.124 251.156 250.056C251.071 249.984 251.011 249.888 250.974 249.769C250.938 249.646 250.92 249.507 250.92 249.353C250.92 248.905 251.047 248.493 251.302 248.117C251.556 247.742 251.9 247.429 252.332 247.179C252.672 246.983 252.957 246.884 253.187 246.882C253.421 246.877 253.609 246.953 253.751 247.109L253.393 247.673C253.276 247.563 253.134 247.5 252.969 247.484C252.803 247.468 252.589 247.535 252.326 247.687C252.039 247.853 251.819 248.05 251.665 248.278C251.512 248.507 251.435 248.761 251.435 249.041C251.435 249.261 251.492 249.408 251.605 249.482C251.722 249.55 251.93 249.528 252.229 249.416L252.684 249.244C252.89 249.167 253.064 249.13 253.205 249.132C253.347 249.135 253.46 249.17 253.545 249.237C253.634 249.303 253.696 249.397 253.733 249.521C253.769 249.645 253.787 249.786 253.787 249.944C253.787 250.397 253.658 250.826 253.399 251.232C253.144 251.636 252.781 251.974 252.308 252.247ZM255.682 245.329L256.864 244.647C257.382 244.348 257.768 244.331 258.022 244.594C258.277 244.858 258.404 245.393 258.404 246.201C258.404 247.008 258.277 247.691 258.022 248.248C257.768 248.806 257.382 249.234 256.864 249.533L255.682 250.215V245.329ZM256.84 249.036C257.18 248.84 257.434 248.557 257.604 248.189C257.778 247.818 257.865 247.385 257.865 246.89V246.134C257.865 245.64 257.778 245.307 257.604 245.137C257.434 244.964 257.18 244.976 256.84 245.172L256.191 245.546V249.41L256.84 249.036Z" fill="white"/>
<defs>
<radialGradient id="paint0_radial_221_2717" cx="0" cy="0" r="1" gradientUnits="userSpaceOnUse" gradientTransform="translate(77.1839 77.1839) rotate(90) scale(77.1839)">
<stop stop-color="#3CF288"/>
<stop offset="1" stop-color="#72E4CC"/>
</radialGradient>
<linearGradient id="paint1_linear_221_2717" x1="5.578" y1="77.5986" x2="70.9637" y2="134.667" gradientUnits="userSpaceOnUse">
<stop stop-color="white"/>
<stop offset="1" stop-color="#2F2F2F"/>
</linearGradient>
<linearGradient id="paint2_linear_221_2717" x1="75.8047" y1="0" x2="75.8047" y2="151.609" gradientUnits="userSpaceOnUse">
<stop stop-color="white"/>
<stop offset="1" stop-color="#999999"/>
</linearGradient>
<linearGradient id="paint3_linear_221_2717" x1="38.4868" y1="-3.87461" x2="68.8424" y2="152.957" gradientUnits="userSpaceOnUse">
<stop stop-color="white"/>
<stop offset="1" stop-color="#818181"/>
</linearGradient>
<linearGradient id="paint4_linear_221_2717" x1="75.8047" y1="0" x2="75.8047" y2="151.609" gradientUnits="userSpaceOnUse">
<stop stop-color="white"/>
<stop offset="1" stop-color="#999999"/>
</linearGradient>
</defs>
</svg>
