<svg width="20" height="20" viewBox="0 0 20 20" fill="none" xmlns="http://www.w3.org/2000/svg">
<g id="Media / Icon/Filled/newspaper">
<g id="Subtract">
<path fill-rule="evenodd" clip-rule="evenodd" d="M3.4375 2.5C2.57456 2.5 1.875 3.19955 1.875 4.0625V15C1.875 16.3807 2.99429 17.5 4.375 17.5H16.875C15.4943 17.5 14.375 16.3807 14.375 15V4.0625C14.375 3.19956 13.6754 2.5 12.8125 2.5H3.4375ZM10 8.125C9.65482 8.125 9.375 8.40482 9.375 8.75C9.375 9.09518 9.65482 9.375 10 9.375H11.25C11.5952 9.375 11.875 9.09518 11.875 8.75C11.875 8.40482 11.5952 8.125 11.25 8.125H10ZM9.375 6.25C9.375 5.90482 9.65482 5.625 10 5.625H11.25C11.5952 5.625 11.875 5.90482 11.875 6.25C11.875 6.59518 11.5952 6.875 11.25 6.875H10C9.65482 6.875 9.375 6.59518 9.375 6.25ZM5 10.625C4.65482 10.625 4.375 10.9048 4.375 11.25C4.375 11.5952 4.65482 11.875 5 11.875H11.25C11.5952 11.875 11.875 11.5952 11.875 11.25C11.875 10.9048 11.5952 10.625 11.25 10.625H5ZM4.375 13.75C4.375 13.4048 4.65482 13.125 5 13.125H11.25C11.5952 13.125 11.875 13.4048 11.875 13.75C11.875 14.0952 11.5952 14.375 11.25 14.375H5C4.65482 14.375 4.375 14.0952 4.375 13.75ZM5 5.625C4.65482 5.625 4.375 5.90482 4.375 6.25V8.75C4.375 9.09518 4.65482 9.375 5 9.375H7.5C7.84518 9.375 8.125 9.09518 8.125 8.75V6.25C8.125 5.90482 7.84518 5.625 7.5 5.625H5Z" fill="#1F2937"/>
<path d="M15.625 5.625H17.1875C17.7053 5.625 18.125 6.04473 18.125 6.5625V15C18.125 15.6904 17.5654 16.25 16.875 16.25C16.1846 16.25 15.625 15.6904 15.625 15V5.625Z" fill="#1F2937"/>
</g>
</g>
</svg>
