<svg width="35" height="36" viewBox="0 0 35 36" fill="none" xmlns="http://www.w3.org/2000/svg">
<path fill-rule="evenodd" clip-rule="evenodd" d="M30.0396 2.6875C29.4922 2.6875 28.957 2.84954 28.5015 3.1532L21.0947 8.09111C19.0949 9.42432 17.2867 11.0105 15.7122 12.8043C18.7966 14.215 21.285 16.7034 22.6957 19.7878C24.4895 18.2133 26.0757 16.4051 27.4089 14.4053L32.3468 6.99846C32.6505 6.54297 32.8125 6.00779 32.8125 5.46036C32.8125 3.92895 31.5711 2.6875 30.0396 2.6875ZM17.9368 23.1405C19.0342 22.5308 20.0851 21.8481 21.0829 21.0984C19.8527 18.0678 17.4322 15.6473 14.4016 14.4171C13.6519 15.4149 12.9692 16.4658 12.3595 17.5632L11.9533 18.2943C14.4857 19.0186 16.4814 21.0143 17.2057 23.5467L17.9368 23.1405ZM9.84374 20.1875C6.82341 20.1875 4.37499 22.6359 4.37499 25.6562C4.37499 26.8644 3.39562 27.8438 2.18749 27.8438C2.13796 27.8438 2.08866 27.8421 2.03969 27.8389C1.63696 27.8122 1.2523 28.0096 1.039 28.3522C0.825703 28.6948 0.818428 29.1271 1.02008 29.4767C2.34104 31.7669 4.81747 33.3125 7.65624 33.3125C11.8847 33.3125 15.3125 29.8847 15.3125 25.6562C15.3125 22.6359 12.8641 20.1875 9.84374 20.1875Z" fill="url(#paint0_linear_257_1703)"/>
<defs>
<linearGradient id="paint0_linear_257_1703" x1="1.80146" y1="2.6875" x2="38.1573" y2="25.308" gradientUnits="userSpaceOnUse">
<stop stop-color="#E6A940"/>
<stop offset="0.195469" stop-color="#FFFBE0"/>
<stop offset="0.360469" stop-color="#EDCB46"/>
<stop offset="0.650469" stop-color="#F9D998"/>
<stop offset="0.825469" stop-color="#816B36"/>
<stop offset="1" stop-color="#D0A72B"/>
</linearGradient>
</defs>
</svg>
