<svg width="21" height="20" viewBox="0 0 21 20" fill="none" xmlns="http://www.w3.org/2000/svg">
<path fill-rule="evenodd" clip-rule="evenodd" d="M3.9375 2.5C3.07456 2.5 2.375 3.19955 2.375 4.0625V15C2.375 16.3807 3.49429 17.5 4.875 17.5H17.375C15.9943 17.5 14.875 16.3807 14.875 15V4.0625C14.875 3.19956 14.1754 2.5 13.3125 2.5H3.9375ZM10.5 8.125C10.1548 8.125 9.875 8.40482 9.875 8.75C9.875 9.09518 10.1548 9.375 10.5 9.375H11.75C12.0952 9.375 12.375 9.09518 12.375 8.75C12.375 8.40482 12.0952 8.125 11.75 8.125H10.5ZM9.875 6.25C9.875 5.90482 10.1548 5.625 10.5 5.625H11.75C12.0952 5.625 12.375 5.90482 12.375 6.25C12.375 6.59518 12.0952 6.875 11.75 6.875H10.5C10.1548 6.875 9.875 6.59518 9.875 6.25ZM5.5 10.625C5.15482 10.625 4.875 10.9048 4.875 11.25C4.875 11.5952 5.15482 11.875 5.5 11.875H11.75C12.0952 11.875 12.375 11.5952 12.375 11.25C12.375 10.9048 12.0952 10.625 11.75 10.625H5.5ZM4.875 13.75C4.875 13.4048 5.15482 13.125 5.5 13.125H11.75C12.0952 13.125 12.375 13.4048 12.375 13.75C12.375 14.0952 12.0952 14.375 11.75 14.375H5.5C5.15482 14.375 4.875 14.0952 4.875 13.75ZM5.5 5.625C5.15482 5.625 4.875 5.90482 4.875 6.25V8.75C4.875 9.09518 5.15482 9.375 5.5 9.375H8C8.34518 9.375 8.625 9.09518 8.625 8.75V6.25C8.625 5.90482 8.34518 5.625 8 5.625H5.5Z" fill="#3DE792"/>
<path d="M16.125 5.625H17.6875C18.2053 5.625 18.625 6.04473 18.625 6.5625V15C18.625 15.6904 18.0654 16.25 17.375 16.25C16.6846 16.25 16.125 15.6904 16.125 15V5.625Z" fill="#3DE792"/>
</svg>
