<svg width="20" height="21" viewBox="0 0 20 21" fill="none" xmlns="http://www.w3.org/2000/svg">
<path d="M10 20.5C15.5228 20.5 20 16.0228 20 10.5C20 4.97715 15.5228 0.5 10 0.5C4.47715 0.5 0 4.97715 0 10.5C0 16.0228 4.47715 20.5 10 20.5Z" fill="#6F41D8" style="fill:#6F41D8;fill:color(display-p3 0.4353 0.2549 0.8471);fill-opacity:1;"/>
<path d="M13.1825 8.43313C12.9519 8.29875 12.6525 8.29875 12.3988 8.43313L10.5994 9.46688L9.37754 10.1406L7.57816 11.1737C7.34754 11.3087 7.04816 11.3087 6.79441 11.1737L5.36441 10.365C5.13379 10.2306 4.97254 9.98375 4.97254 9.71375V8.11875C4.97254 7.84937 5.11066 7.6025 5.36441 7.4675L6.77066 6.68125C7.00191 6.54625 7.30191 6.54625 7.55566 6.68125L8.96191 7.4675C9.19316 7.6025 9.35441 7.84937 9.35441 8.11875V9.1525L10.5763 8.45563V7.4225C10.5776 7.28831 10.5417 7.15639 10.4725 7.04141C10.4033 6.92642 10.3036 6.8329 10.1844 6.77125L7.57816 5.28875C7.34754 5.15375 7.04816 5.15375 6.79441 5.28875L4.14191 6.77125C4.02272 6.8329 3.92298 6.92642 3.85379 7.04141C3.7846 7.15639 3.74869 7.28831 3.75004 7.4225V10.41C3.75004 10.68 3.88816 10.9269 4.14191 11.0619L6.79441 12.5444C7.02504 12.6788 7.32504 12.6788 7.57816 12.5444L9.37754 11.5331L10.5994 10.8369L12.3988 9.82625C12.6294 9.69125 12.9288 9.69125 13.1825 9.82625L14.5894 10.6125C14.8207 10.7469 14.9813 10.9938 14.9813 11.2638V12.8588C14.9813 13.1281 14.8438 13.375 14.5894 13.51L13.1832 14.3188C12.9519 14.4538 12.6519 14.4538 12.3988 14.3188L10.9919 13.5325C10.7607 13.3975 10.5994 13.1506 10.5994 12.8812V11.8475L9.37754 12.5444V13.5775C9.37754 13.8469 9.51566 14.0944 9.76941 14.2288L12.4219 15.7112C12.6525 15.8462 12.9519 15.8462 13.2057 15.7112L15.8582 14.2288C16.0888 14.0944 16.25 13.8475 16.25 13.5775V10.59C16.2514 10.4558 16.2155 10.3239 16.1463 10.2089C16.0771 10.0939 15.9774 10.0004 15.8582 9.93875L13.1832 8.43313H13.1825Z" fill="white" style="fill:white;fill-opacity:1;"/>
</svg>
