<svg width="35" height="36" viewBox="0 0 35 36" fill="none" xmlns="http://www.w3.org/2000/svg">
<path d="M16.9842 9.30646C16.9842 8.81528 16.7269 8.37132 16.4293 7.98053C16.1238 7.57933 15.9469 7.10344 15.9469 6.59311C15.9469 5.16098 17.3401 4 19.0587 4C20.7772 4 22.1704 5.16098 22.1704 6.59311C22.1704 7.10344 21.9935 7.57933 21.688 7.98053C21.3905 8.37132 21.1332 8.81528 21.1332 9.30646C21.1332 9.7661 21.5172 10.133 21.9761 10.1056C24.6184 9.94797 27.2181 9.63333 29.7661 9.17099C30.0465 9.12011 30.3355 9.18684 30.5652 9.35552C30.7949 9.52419 30.9451 9.77995 30.9805 10.0627C31.2903 12.5376 31.4659 15.0538 31.4999 17.6038C31.5067 18.1104 31.0953 18.5213 30.5886 18.5214C30.0974 18.5214 29.6535 18.2641 29.2627 17.9666C28.8615 17.6611 28.3856 17.4842 27.8753 17.4842C26.4431 17.4842 25.2822 18.8774 25.2822 20.5959C25.2822 22.3145 26.4431 23.7077 27.8753 23.7077C28.3856 23.7077 28.8615 23.5308 29.2627 23.2253C29.6535 22.9277 30.0974 22.6704 30.5886 22.6704C31.0179 22.6704 31.3588 23.0323 31.3278 23.4605C31.1637 25.7266 30.8875 27.9619 30.5048 30.1609C30.4298 30.5921 30.092 30.9299 29.6608 31.0049C27.1449 31.4427 24.5815 31.7411 21.9789 31.8917C21.5183 31.9184 21.1332 31.5499 21.1332 31.0886C21.1332 30.5974 21.3905 30.1535 21.688 29.7627C21.9935 29.3615 22.1704 28.8856 22.1704 28.3753C22.1704 26.9431 20.7772 25.7822 19.0587 25.7822C17.3401 25.7822 15.9469 26.9431 15.9469 28.3753C15.9469 28.8856 16.1238 29.3615 16.4293 29.7627C16.7269 30.1535 16.9842 30.5974 16.9842 31.0886C16.9842 31.5887 16.5748 31.9925 16.0749 31.9784C13.8766 31.916 11.7044 31.7484 9.56323 31.4803C9.28045 31.4449 9.02469 31.2947 8.85602 31.065C8.68734 30.8353 8.62061 30.5463 8.6715 30.2659C9.07655 28.0338 9.36825 25.7619 9.54036 23.4564C9.57214 23.0307 9.23338 22.6704 8.80646 22.6704C8.31528 22.6704 7.87132 22.9277 7.48053 23.2253C7.07933 23.5308 6.60344 23.7077 6.09311 23.7077C4.66098 23.7077 3.5 22.3145 3.5 20.5959C3.5 18.8774 4.66098 17.4842 6.09311 17.4842C6.60344 17.4842 7.07933 17.6611 7.48053 17.9666C7.87132 18.2641 8.31528 18.5214 8.80646 18.5214C9.31314 18.5214 9.72455 18.1107 9.71758 17.604C9.6866 15.3522 9.54177 13.1281 9.28864 10.9375C9.25229 10.6229 9.36165 10.3089 9.58559 10.085C9.80953 9.86105 10.1235 9.75168 10.4381 9.78804C12.2945 10.0025 14.1748 10.1393 16.0757 10.1949C16.575 10.2095 16.9842 9.80605 16.9842 9.30646Z" fill="url(#paint0_linear_257_1710)" style=""/>
<defs>
<linearGradient id="paint0_linear_257_1710" x1="4.31328" y1="4" x2="36.9059" y2="23.4596" gradientUnits="userSpaceOnUse">
<stop stop-color="#E6A940" style="stop-color:#E6A940;stop-color:color(display-p3 0.9004 0.6620 0.2502);stop-opacity:1;"/>
<stop offset="0.195469" stop-color="#FFFBE0" style="stop-color:#FFFBE0;stop-color:color(display-p3 1.0000 0.9842 0.8770);stop-opacity:1;"/>
<stop offset="0.360469" stop-color="#EDCB46" style="stop-color:#EDCB46;stop-color:color(display-p3 0.9280 0.7976 0.2761);stop-opacity:1;"/>
<stop offset="0.650469" stop-color="#F9D998" style="stop-color:#F9D998;stop-color:color(display-p3 0.9769 0.8494 0.5945);stop-opacity:1;"/>
<stop offset="0.825469" stop-color="#816B36" style="stop-color:#816B36;stop-color:color(display-p3 0.5040 0.4202 0.2105);stop-opacity:1;"/>
<stop offset="1" stop-color="#D0A72B" style="stop-color:#D0A72B;stop-color:color(display-p3 0.8151 0.6533 0.1679);stop-opacity:1;"/>
</linearGradient>
</defs>
</svg>
