<svg width="35" height="35" viewBox="0 0 35 35" fill="none" xmlns="http://www.w3.org/2000/svg">
<g clip-path="url(#clip0_52_2105)">
<path d="M22.0925 19.1128V22.2802C22.0925 22.9166 21.1036 23.4695 19.6517 23.7483C18.9437 23.8791 18.2252 23.9434 17.5053 23.9405C14.9714 23.9405 12.9175 23.1975 12.9175 22.2802V19.1128C12.9175 20.0301 14.9714 20.7731 17.5053 20.7731C20.0392 20.7731 22.0925 20.0301 22.0925 19.1128Z" fill="#F6F8ED"/>
<path d="M22.0925 19.047V19.1128C22.0925 20.0301 20.0392 20.7731 17.5053 20.7731C14.9714 20.7731 12.9175 20.0301 12.9175 19.1128V15.9678C12.9175 16.8851 14.9714 17.6275 17.5053 17.6275C20.0392 17.6275 22.0925 16.8851 22.0925 15.9678V19.047Z" fill="#FF9597"/>
<path d="M22.0925 12.8218V15.9677C22.0925 16.885 20.0392 17.6273 17.5053 17.6273C14.9714 17.6273 12.9175 16.885 12.9175 15.9677V12.8218C12.9175 13.7385 14.9714 14.4821 17.5053 14.4821C20.0392 14.4821 22.0925 13.7385 22.0925 12.8218Z" fill="#F6F8ED"/>
<path d="M17.5053 11.1611C20.0384 11.1611 22.0925 11.905 22.0925 12.8217C22.0925 13.7384 20.0384 14.482 17.5053 14.482C14.9722 14.482 12.9175 13.7384 12.9175 12.8217C12.9175 11.905 14.9714 11.1611 17.5053 11.1611Z" fill="#FF9597"/>
<path d="M1.43851 7.80306C1.36456 6.962 1.41347 6.11425 1.58407 5.28746C1.81289 4.25689 2.26122 3.40244 2.91712 2.74741C3.83591 1.82805 5.12791 1.32382 6.75267 1.24871C7.53987 1.21931 8.32794 1.27287 9.10378 1.40854L9.30961 0.233855C8.44934 0.0836353 7.57539 0.0242462 6.7026 0.0571431C4.76692 0.146518 3.20941 0.768066 2.07461 1.90403C1.25481 2.72296 0.697891 3.77595 0.419577 5.0336L0.41783 5.04146C0.223069 5.98354 0.166882 6.9489 0.251016 7.90728L1.43851 7.80306Z" fill="#74C465"/>
<path d="M0.597656 10.1059C0.747003 10.7452 0.928954 11.3764 1.14206 11.9973L2.27045 11.6116C2.07045 11.0291 1.89985 10.4369 1.75924 9.83691L0.597656 10.1059Z" fill="#74C465"/>
<path d="M4.05414 15.5945C3.6946 14.9392 3.36534 14.2804 3.07509 13.6367L1.98804 14.127C2.2911 14.7989 2.63433 15.4854 3.00842 16.1677L4.05414 15.5945Z" fill="#74C465"/>
<path d="M8.71006 22.1605C8.65824 22.1014 8.60642 22.0423 8.55518 21.9829L7.65503 22.7646C7.70772 22.8257 7.761 22.8866 7.81456 22.9474C8.10976 23.2836 8.42505 23.6313 8.7514 23.9809C8.89376 24.1331 9.03786 24.2851 9.18372 24.4365L10.0437 23.6109C9.90163 23.463 9.76131 23.3148 9.62244 23.1666C9.30424 22.8263 8.9974 22.4877 8.71006 22.1605Z" fill="#74C465"/>
<path d="M6.21401 21.0133L7.15579 20.2817C7.06904 20.1702 6.98345 20.0584 6.89815 19.9463C6.53541 19.4695 6.18402 18.985 5.85476 18.5059L4.8728 19.1824C5.21283 19.6765 5.57528 20.1763 5.94909 20.6677C6.03642 20.7833 6.12463 20.8983 6.21401 21.0133Z" fill="#74C465"/>
<path d="M10.1987 25.458C11.3248 26.5575 12.51 27.5948 13.7493 28.5654C15.4299 29.8877 17.2238 31.0595 19.11 32.0673C20.2113 32.654 21.3531 33.162 22.5261 33.5876L21.4375 33.8994L21.7656 35.0455L24.7922 34.1792L24.8108 34.1739C24.9636 34.1311 25.0932 34.0292 25.1706 33.8906C25.2483 33.7521 25.2673 33.5882 25.2236 33.4356L24.4283 30.6589L23.2818 30.9873L23.7872 32.7515C22.3636 32.3011 20.9848 31.7197 19.669 31.0141C17.8451 30.0394 16.1109 28.906 14.4855 27.6274C13.2803 26.6836 12.1274 25.6746 11.0319 24.605L10.1987 25.458Z" fill="#74C465"/>
<path d="M34.6264 25.6525C34.3828 24.1322 33.8797 22.4961 33.1312 20.7896L32.0392 21.2687C32.7472 22.8824 33.2215 24.4207 33.4488 25.8408C33.8753 28.5078 33.4066 30.6115 32.0934 31.9244C31.4433 32.5748 30.5973 33.0211 29.5798 33.2505C28.758 33.4354 27.8246 33.4796 26.8051 33.3818C26.555 33.3579 26.2962 33.3247 26.0357 33.2837L25.8494 34.461C26.1335 34.5058 26.4168 34.5422 26.6913 34.5687C27.0802 34.606 27.459 34.6246 27.8275 34.6246C28.5047 34.6287 29.1804 34.5579 29.8418 34.4135C31.0835 34.1335 32.1248 33.5798 32.9368 32.7675C34.5312 31.173 35.1155 28.7128 34.6264 25.6525Z" fill="#74C465"/>
<path d="M31.7365 18.0288L30.7004 18.6192C30.9884 19.1246 31.2594 19.632 31.5048 20.1272L32.5729 19.5974C32.317 19.0812 32.0355 18.5537 31.7365 18.0288Z" fill="#74C465"/>
<path d="M28.968 13.8838L28.021 14.6084C28.4647 15.1886 28.8987 15.7895 29.311 16.3941L30.2964 15.7225C29.8717 15.0998 29.4251 14.4815 28.968 13.8838Z" fill="#74C465"/>
<path d="M26.0206 10.438L25.158 11.2613C25.6631 11.7905 26.16 12.3402 26.6351 12.8957L27.5414 12.1207C27.052 11.5486 26.5402 10.9824 26.0206 10.438Z" fill="#74C465"/>
<path d="M10.6417 1.42224L11.2446 4.24147L12.4108 3.99227L12.0257 2.19109C13.12 2.57916 14.1846 3.04641 15.2111 3.58965C17.0115 4.53987 18.725 5.64614 20.332 6.89564C21.0904 7.48051 21.8537 8.11487 22.6007 8.78096C23.008 9.14457 23.4252 9.53235 23.8412 9.93439C24.0144 10.1012 24.1955 10.2788 24.3789 10.4622L25.222 9.6191C25.0334 9.43045 24.847 9.24734 24.6692 9.07586C24.2427 8.66393 23.8138 8.26538 23.3946 7.89099C22.6264 7.20627 21.8412 6.55357 21.0627 5.95328C20.3049 5.36404 19.5198 4.80567 18.7151 4.27699C19.1725 4.01905 19.6316 3.7748 20.0816 3.55122L19.5512 2.48309C19.0164 2.74888 18.4703 3.04117 17.9279 3.3518L18.307 4.01294C17.4802 3.4863 16.6339 2.99401 15.7684 2.53578C14.9983 2.12879 14.2074 1.76198 13.3989 1.43708L14.4499 1.21234L14.2004 0.0463867L11.0993 0.709566C10.7931 0.777688 10.5904 1.06968 10.6344 1.38031C10.6361 1.39429 10.6388 1.40826 10.6417 1.42224Z" fill="#74C465"/>
<path d="M0.188085 25.7471C0.0375741 26.607 -0.0218151 27.4807 0.011373 28.3532C0.100748 30.2895 0.722005 31.847 1.85768 32.9826C2.67835 33.8033 3.73164 34.3597 4.9954 34.6377C5.65305 34.7742 6.32322 34.8432 6.99513 34.8429C7.28363 34.8429 7.57243 34.8304 7.86151 34.8051L7.75729 33.6173C6.91711 33.6915 6.07052 33.6423 5.2446 33.4714C4.21374 33.2447 3.35783 32.7966 2.70077 32.1396C1.78198 31.2205 1.27776 29.9282 1.20294 28.3031C1.17325 27.5162 1.22681 26.7284 1.36248 25.9526L0.188085 25.7471Z" fill="#74C465"/>
<path d="M10.0603 34.4581C10.6993 34.3088 11.3304 34.1271 11.9511 33.914L11.5657 32.7856C10.9831 32.9856 10.391 33.1562 9.79126 33.2969L10.0603 34.4581Z" fill="#74C465"/>
<path d="M14.0808 33.0678C14.7524 32.765 15.4392 32.4218 16.1216 32.0477L15.5487 31.002C14.8928 31.3615 14.2342 31.6908 13.5906 31.9807L14.0808 33.0678Z" fill="#74C465"/>
<path d="M18.4602 29.2012L19.1365 30.1832C19.6361 29.8391 20.1362 29.4766 20.6218 29.1069C20.7371 29.0193 20.8524 28.9308 20.9674 28.8414L20.2352 27.8999C20.124 27.9867 20.0122 28.0725 19.8998 28.1575C19.4288 28.5165 18.9443 28.8679 18.4602 29.2012Z" fill="#74C465"/>
<path d="M21.9375 26.5007L22.7189 27.4015C22.7797 27.3488 22.8406 27.2955 22.902 27.2416C23.2359 26.9482 23.5829 26.6332 23.9349 26.3054C24.0874 26.1627 24.2394 26.0183 24.3908 25.8722L23.5649 25.0122C23.417 25.1537 23.2691 25.2952 23.1212 25.4338C22.7786 25.7531 22.4397 26.0603 22.1151 26.3458C22.056 26.3977 21.9966 26.4492 21.9375 26.5007Z" fill="#74C465"/>
<path d="M25.7949 1.60703C28.4619 1.18082 30.5652 1.64924 31.8785 2.9625C32.5289 3.61258 32.9751 4.45887 33.2046 5.47693C33.3894 6.29848 33.4337 7.23182 33.3359 8.25075C33.312 8.50083 33.2788 8.75964 33.2375 9.02019L34.4153 9.20651C34.4602 8.92208 34.4966 8.63882 34.5228 8.36487C34.6328 7.21989 34.5804 6.1602 34.3679 5.21492C34.0881 3.97299 33.5344 2.93135 32.7219 2.11911C31.1271 0.52405 28.6671 -0.0602341 25.6065 0.429435C24.0863 0.672814 22.4502 1.17588 20.7439 1.92464L21.2228 3.01665C22.8368 2.30864 24.3751 1.8344 25.7949 1.60703Z" fill="#74C465"/>
<path d="M12.8496 8.42062L12.0743 7.51465C11.5022 8.00403 10.936 8.51582 10.3916 9.03548L11.2152 9.89807C11.7442 9.39268 12.2941 8.89603 12.8496 8.42062Z" fill="#74C465"/>
<path d="M16.3482 5.74551L15.6769 4.75977C15.0547 5.18364 14.4361 5.63052 13.8381 6.08787L14.5624 7.03518C15.1432 6.59093 15.7441 6.15687 16.3482 5.74551Z" fill="#74C465"/>
<path d="M34.1333 10.2634L34.128 10.2447C34.0849 10.0922 33.983 9.96293 33.8445 9.88578C33.7062 9.80834 33.5426 9.78942 33.39 9.83308L30.6133 10.6276L30.9411 11.774L32.7053 11.2692C32.2546 12.6925 31.6733 14.0713 30.9679 15.3871C29.9935 17.211 28.8604 18.9452 27.5815 20.5703C26.6374 21.7758 25.6284 22.929 24.5591 24.0248L25.4121 24.8577C26.5116 23.7313 27.5486 22.5459 28.5192 21.3065C29.8418 19.6262 31.0136 17.8323 32.0212 15.9461C32.6078 14.8445 33.1158 13.7027 33.5417 12.5298L33.8535 13.6186L34.9999 13.2908L34.1333 10.2634Z" fill="#74C465"/>
<path d="M1.25067 24.427C1.27832 24.427 1.30598 24.4253 1.33364 24.4215C1.3479 24.4195 1.36217 24.4168 1.37614 24.4139L4.19567 23.811L3.94618 22.6451L2.145 23.0302C2.53277 21.9356 3.00032 20.871 3.54384 19.8445C4.49407 18.0444 5.60034 16.3306 6.84955 14.7233C7.43471 13.9649 8.06906 13.2016 8.73428 12.4552C9.10837 12.0368 9.49615 11.6196 9.888 11.2141C10.0449 11.0511 10.2129 10.8805 10.4161 10.6776L9.57271 9.83447C9.36398 10.0432 9.19163 10.2185 9.02977 10.3864C8.62802 10.8025 8.22947 11.231 7.84461 11.6613C7.16018 12.4293 6.50748 13.2147 5.90689 13.9935C4.61576 15.6552 3.47223 17.4264 2.48969 19.2875C2.0824 20.0576 1.71559 20.8482 1.39099 21.6567L1.16624 20.606L0 20.8549L0.663179 23.956C0.724024 24.2314 0.968567 24.4276 1.25067 24.427Z" fill="#74C465"/>
<path d="M12.3577 12.8219V22.2802C12.3577 22.7847 12.6409 23.4957 14.0765 24.015C15.0063 24.3516 16.2215 24.5367 17.5123 24.5367H17.5568C18.3027 24.5364 19.0471 24.4683 19.7804 24.3338C21.6393 23.9769 22.717 23.2284 22.717 22.2799V12.8219C22.717 12.3174 22.4014 11.6071 20.9656 11.0871C20.0355 10.7506 18.8043 10.5654 17.512 10.5654C16.2197 10.5654 15.0098 10.7509 14.0797 11.0871C12.6444 11.6068 12.3577 12.3174 12.3577 12.8219ZM21.5246 22.2802C21.5246 22.392 21.0419 22.877 19.558 23.162C18.8832 23.2861 18.1985 23.3472 17.5123 23.3443C16.3542 23.3443 15.289 23.1845 14.4858 22.8936C13.7006 22.6095 13.5501 22.3245 13.5501 22.2802V20.6159C13.7198 20.7058 13.8957 20.7833 14.0765 20.8476C15.0063 21.1841 16.2215 21.3693 17.5146 21.3693C18.8075 21.3693 20.041 21.1839 20.9708 20.8476C21.1746 20.774 21.301 20.6962 21.5246 20.6159V22.2802ZM21.5246 19.047V19.1128C21.5246 19.1573 21.3452 19.4424 20.5604 19.7265C19.7577 20.017 18.6707 20.1769 17.5123 20.1769C16.3539 20.1769 15.2887 20.017 14.4855 19.7262C13.7006 19.4421 13.5501 19.1571 13.5501 19.1128V17.4703C13.7198 17.5605 13.8957 17.638 14.0767 17.7023C15.0063 18.0383 16.2215 18.224 17.5146 18.224C18.8075 18.224 20.041 18.0386 20.9705 17.7023C21.1743 17.6284 21.301 17.5509 21.5246 17.4706V19.047ZM21.5246 15.9678C21.5246 16.0121 21.3452 16.2971 20.5606 16.5809C19.7577 16.8714 18.6707 17.0313 17.5123 17.0313C16.3539 17.0313 15.2887 16.8712 14.4858 16.5809C13.7006 16.2971 13.5501 16.0121 13.5501 15.9678V14.3244C13.7195 14.4147 13.8957 14.4921 14.0765 14.5564C15.0066 14.8933 16.2217 15.0781 17.5146 15.0781C18.8072 15.0781 20.0404 14.8927 20.9705 14.5564C21.1743 14.4828 21.301 14.4051 21.5246 14.3247V15.9678ZM14.4639 12.2085C15.2674 11.9177 16.3475 11.7576 17.5053 11.7576C18.6634 11.7576 19.7429 11.9177 20.5461 12.2085C21.3312 12.4927 21.4963 12.7777 21.4963 12.8219C21.4963 12.8662 21.3312 13.1509 20.5461 13.4353C19.7429 13.7259 18.6631 13.886 17.5053 13.886C16.3475 13.886 15.2674 13.7262 14.4639 13.4353C13.6788 13.1509 13.5137 12.8662 13.5137 12.8219C13.5137 12.7777 13.6788 12.4927 14.4639 12.2085Z" fill="#74C465"/>
</g>
<defs>
<clipPath id="clip0_52_2105">
<rect width="35" height="35" fill="white"/>
</clipPath>
</defs>
</svg>
