<svg width="21" height="21" viewBox="0 0 21 21" fill="none" xmlns="http://www.w3.org/2000/svg">
<g id="Media / Icon/Filled/sparkles">
<g id="Vector">
<path fill-rule="evenodd" clip-rule="evenodd" d="M8 4.25C8.27905 4.25 8.52429 4.43499 8.60095 4.7033L9.27862 7.07512C9.57523 8.11327 10.3867 8.92477 11.4249 9.22138L13.7967 9.89905C14.065 9.97571 14.25 10.2209 14.25 10.5C14.25 10.7791 14.065 11.0243 13.7967 11.101L11.4249 11.7786C10.3867 12.0752 9.57523 12.8867 9.27862 13.9249L8.60095 16.2967C8.52429 16.565 8.27905 16.75 8 16.75C7.72095 16.75 7.47571 16.565 7.39905 16.2967L6.72138 13.9249C6.42477 12.8867 5.61327 12.0752 4.57512 11.7786L2.2033 11.101C1.93499 11.0243 1.75 10.7791 1.75 10.5C1.75 10.2209 1.93499 9.97571 2.2033 9.89905L4.57512 9.22138C5.61327 8.92477 6.42477 8.11327 6.72138 7.07512L7.39905 4.7033C7.47571 4.43499 7.72095 4.25 8 4.25Z" fill="white"/>
<path fill-rule="evenodd" clip-rule="evenodd" d="M15.5 1.75C15.7868 1.75 16.0368 1.94519 16.1063 2.22342L16.3221 3.0863C16.518 3.87005 17.13 4.482 17.9137 4.67794L18.7766 4.89366C19.0548 4.96322 19.25 5.21321 19.25 5.5C19.25 5.78679 19.0548 6.03678 18.7766 6.10634L17.9137 6.32206C17.13 6.518 16.518 7.12995 16.3221 7.9137L16.1063 8.77658C16.0368 9.05481 15.7868 9.25 15.5 9.25C15.2132 9.25 14.9632 9.05481 14.8937 8.77658L14.6779 7.9137C14.482 7.12995 13.87 6.518 13.0863 6.32206L12.2234 6.10634C11.9452 6.03678 11.75 5.78679 11.75 5.5C11.75 5.21321 11.9452 4.96322 12.2234 4.89366L13.0863 4.67794C13.87 4.482 14.482 3.87005 14.6779 3.0863L14.8937 2.22342C14.9632 1.94519 15.2132 1.75 15.5 1.75Z" fill="white"/>
<path fill-rule="evenodd" clip-rule="evenodd" d="M14.25 13C14.519 13 14.7579 13.1721 14.8429 13.4274L15.1715 14.413C15.2959 14.7862 15.5888 15.0791 15.962 15.2035L16.9476 15.5321C17.2029 15.6171 17.375 15.856 17.375 16.125C17.375 16.394 17.2029 16.6329 16.9476 16.7179L15.962 17.0465C15.5888 17.1709 15.2959 17.4638 15.1715 17.837L14.8429 18.8226C14.7579 19.0779 14.519 19.25 14.25 19.25C13.981 19.25 13.7421 19.0779 13.6571 18.8226L13.3285 17.837C13.2041 17.4638 12.9112 17.1709 12.538 17.0465L11.5524 16.7179C11.2971 16.6329 11.125 16.394 11.125 16.125C11.125 15.856 11.2971 15.6171 11.5524 15.5321L12.538 15.2035C12.9112 15.0791 13.2041 14.7862 13.3285 14.413L13.6571 13.4274C13.7421 13.1721 13.981 13 14.25 13Z" fill="white"/>
</g>
</g>
</svg>
