<svg width="14" height="15" viewBox="0 0 14 15" fill="none" xmlns="http://www.w3.org/2000/svg">
<path d="M6.10456 1.44672C6.38641 0.579285 7.61359 0.579285 7.89544 1.44672L8.90246 4.546C9.0285 4.93393 9.39 5.19658 9.79789 5.19658H13.0567C13.9687 5.19658 14.348 6.3637 13.6101 6.8998L10.9737 8.81526C10.6437 9.05502 10.5056 9.47999 10.6317 9.86791L11.6387 12.9672C11.9205 13.8346 10.9277 14.556 10.1898 14.0198L7.55341 12.1044C7.22342 11.8646 6.77658 11.8646 6.44659 12.1044L3.81018 14.0198C3.0723 14.556 2.07949 13.8346 2.36133 12.9672L3.36835 9.86791C3.4944 9.47999 3.35631 9.05502 3.02632 8.81526L0.389912 6.8998C-0.347968 6.3637 0.0312524 5.19658 0.943323 5.19658H4.20211C4.61 5.19658 4.9715 4.93393 5.09754 4.546L6.10456 1.44672Z" fill="#1F2937"/>
</svg>
