<svg width="16" height="16" viewBox="0 0 16 16" fill="none" xmlns="http://www.w3.org/2000/svg">
<g clip-path="url(#clip0_52_2274)">
<path d="M8 16C12.4193 16 16 12.4193 16 8C16 3.58067 12.4193 0 8 0C3.58067 0 0 3.58067 0 8C0 12.4193 3.58067 16 8 16ZM3.66067 7.82667L11.374 4.85267C11.732 4.72333 12.0447 4.94 11.9287 5.48133L11.9293 5.48067L10.616 11.668C10.5187 12.1067 10.258 12.2133 9.89333 12.0067L7.89333 10.5327L6.92867 11.462C6.822 11.5687 6.732 11.6587 6.52533 11.6587L6.66733 9.62333L10.374 6.27467C10.5353 6.13267 10.338 6.05267 10.1253 6.194L5.54467 9.078L3.57 8.462C3.14133 8.326 3.132 8.03333 3.66067 7.82667Z" fill="#74C465"/>
</g>
<defs>
<clipPath id="clip0_52_2274">
<rect width="16" height="16" fill="white"/>
</clipPath>
</defs>
</svg>
