<svg width="21" height="24" viewBox="0 0 21 24" fill="none" xmlns="http://www.w3.org/2000/svg">
<g id="textAreaGrip">
<path id="icon" d="M18 7.5C18.8297 7.5 19.5 8.17031 19.5 9C19.5 9.82969 18.8297 10.5 18 10.5C17.1703 10.5 16.5 9.82969 16.5 9C16.5 8.17031 17.1703 7.5 18 7.5ZM10.5 7.5C11.3297 7.5 12 8.17031 12 9C12 9.82969 11.3297 10.5 10.5 10.5C9.67031 10.5 9 9.82969 9 9C9 8.17031 9.67031 7.5 10.5 7.5ZM3 10.5C2.17172 10.5 1.5 9.82969 1.5 9C1.5 8.17031 2.17172 7.5 3 7.5C3.82828 7.5 4.5 8.17031 4.5 9C4.5 9.82969 3.82828 10.5 3 10.5ZM18 13.5C18.8297 13.5 19.5 14.1703 19.5 15C19.5 15.8297 18.8297 16.5 18 16.5C17.1703 16.5 16.5 15.8297 16.5 15C16.5 14.1703 17.1703 13.5 18 13.5ZM10.5 16.5C9.67031 16.5 9 15.8297 9 15C9 14.1703 9.67031 13.5 10.5 13.5C11.3297 13.5 12 14.1703 12 15C12 15.8297 11.3297 16.5 10.5 16.5ZM3 13.5C3.82828 13.5 4.5 14.1703 4.5 15C4.5 15.8297 3.82828 16.5 3 16.5C2.17172 16.5 1.5 15.8297 1.5 15C1.5 14.1703 2.17172 13.5 3 13.5Z" fill="black"/>
</g>
</svg>
