<svg width="25" height="24" viewBox="0 0 25 24" fill="none" xmlns="http://www.w3.org/2000/svg">
<path fill-rule="evenodd" clip-rule="evenodd" d="M19.5 2H14.5V3H13.5V4V5H12.5V6H11.5V7H12.5V8H9.5V7H6.5V6H4.5V5H3.5V4H2.5V3H1.5V4V5V6V7V8H2.5V9H3.5V10H1.5V11V12H2.5V13H4.5V14H2.5V15H4.5V16H5.5V17H7.5V18H5.5V19H0.5V20H2.5V21H5.5V22H10.5V21H13.5V20H15.5V19H16.5V18H17.5V17H18.5V16H19.5V15H20.5V14V13H21.5V12V11V10H22.5V9V8V7V6H23.5V5H24.5V4H23.5V3H24.5V2H22.5V3H21.5V4H20.5V3H19.5V2ZM23.5 4V5H22.5V4H23.5Z" fill="#F6F8ED"/>
</svg>
