<svg width="65" height="64" viewBox="0 0 65 64" fill="none" xmlns="http://www.w3.org/2000/svg">
<g clip-path="url(#clip0_122_2088)">
<g clip-path="url(#clip1_122_2088)">
<path d="M63.5499 39.7498C62.026 45.8947 58.7136 51.4495 54.0318 55.7113C49.35 59.9731 43.5092 62.7504 37.2485 63.6917C30.9878 64.633 24.5886 63.696 18.8606 60.9994C13.1326 58.3027 8.33318 53.9676 5.06971 48.5424C1.80623 43.1173 0.225352 36.8461 0.527099 30.5222C0.828846 24.1983 2.99966 18.1061 6.76486 13.0164C10.5301 7.92661 15.7204 4.06811 21.6792 1.9291C27.6379 -0.20992 34.0973 -0.53332 40.2399 0.999819C48.4661 3.05301 55.5413 8.28693 59.9118 15.5523C64.2822 22.8177 65.5907 31.5205 63.5499 39.7498Z" fill="#F5D4E5"/>
<g opacity="0.24">
<path d="M32.5 63.9998C29.889 63.9815 27.2899 63.6457 24.76 62.9998C16.5474 60.9355 9.48782 55.7001 5.12799 48.4406C0.768164 41.1811 -0.53645 32.4894 1.49997 24.2698C3.03264 18.1312 6.35067 12.5847 11.0347 8.33129C15.7188 4.07788 21.5586 1.30849 27.8161 0.373126C34.0737 -0.562242 40.4681 0.378396 46.1912 3.07616C51.9143 5.77392 56.7092 10.1077 59.97 15.5298C62.8863 20.388 64.4604 25.9334 64.5314 31.5993C64.6023 37.2651 63.1675 42.8482 60.3737 47.7779C57.5799 52.7075 53.5272 56.8069 48.6299 59.657C43.7325 62.5072 38.1663 64.0058 32.5 63.9998ZM32.5 5.99984C26.7005 6.00434 21.0689 7.94772 16.5009 11.5209C11.933 15.0941 8.69077 20.092 7.28997 25.7198C6.33855 29.0724 6.0708 32.582 6.50265 36.04C6.93449 39.4981 8.05712 42.834 9.8038 45.8496C11.5505 48.8652 13.8856 51.4989 16.6703 53.5941C19.455 55.6894 22.6325 57.2034 26.014 58.0462C29.3954 58.8891 32.9118 59.0436 36.3542 58.5005C39.7965 57.9574 43.0946 56.7278 46.0523 54.8848C49.01 53.0418 51.567 50.623 53.5714 47.7722C55.5758 44.9214 56.9866 41.6967 57.72 38.2898C59.3861 31.6012 58.328 24.5247 54.7783 18.6159C51.2285 12.7071 45.4777 8.44982 38.79 6.77984C36.7324 6.26732 34.6204 6.00542 32.5 5.99984Z" fill="white"/>
</g>
<g opacity="0.3">
<path d="M62.59 21.1298L0.910027 37.1299C-0.363579 29.2616 1.34506 21.2013 5.70152 14.5266C10.058 7.85186 16.7486 3.0432 24.4639 1.04184C32.1792 -0.959531 40.3636 -0.00953126 47.4153 3.70589C54.467 7.42132 59.8783 13.6347 62.59 21.1298Z" fill="white"/>
</g>
<path d="M57.72 38.2899C56.4769 43.2804 53.7817 47.7901 49.9753 51.2486C46.1688 54.707 41.4222 56.959 36.3358 57.7195C31.2494 58.48 26.0517 57.715 21.4002 55.5212C16.7486 53.3274 12.8521 49.8033 10.2037 45.3947C7.55516 40.9862 6.27361 35.8912 6.5211 30.7542C6.76859 25.6172 8.534 20.669 11.594 16.5355C14.6541 12.4019 18.8713 9.26877 23.7122 7.53227C28.5531 5.79578 33.8003 5.53396 38.79 6.77995C45.4777 8.44993 51.2285 12.7073 54.7783 18.616C58.328 24.5248 59.3862 31.6013 57.72 38.2899Z" fill="#F5D4E5"/>
<path d="M25.5698 16.9997H25.2998C25.9934 16.9496 26.6907 17.0001 27.3698 17.1497C29.1621 17.6449 30.7514 18.6951 31.9098 20.1497L32.3098 20.6197H32.8798C35.2695 20.2196 37.7241 20.5291 39.9398 21.5097C40.4975 21.7617 41.03 22.0665 41.5298 22.4197C41.6108 22.6189 41.6678 22.827 41.6998 23.0397C41.8975 23.8533 41.8273 24.7091 41.4998 25.4797C41.3988 25.6229 41.357 25.7995 41.3831 25.9728C41.4092 26.1461 41.5011 26.3026 41.6398 26.4097C41.7516 26.4882 41.8834 26.5333 42.0198 26.5397C42.5598 26.5397 43.0998 25.7197 43.3798 24.5397V24.0697L43.5698 24.2897C44.6714 25.4763 45.4165 26.9492 45.7198 28.5397V28.8797L45.6198 28.4597C45.3306 28.0053 44.949 27.6169 44.4998 27.3197C43.3794 26.7266 42.1138 26.4631 40.8498 26.5597C39.4953 26.526 38.1509 26.3176 36.8498 25.9397C35.0498 25.3497 34.1098 24.5597 31.9198 21.7197C31.2724 20.8444 30.5604 20.0187 29.7898 19.2497C28.6637 18.0628 27.1829 17.2733 25.5698 16.9997Z" fill="#FF1280"/>
<path d="M41.99 19.7998C41.9805 19.1564 42.1102 18.5185 42.3699 17.9298C42.4266 17.7917 42.4934 17.658 42.57 17.5298V17.8698C42.4299 18.5021 42.4299 19.1574 42.57 19.7898C42.72 20.7898 42.7899 20.9298 43.8499 22.0198C44.3499 22.5098 44.92 23.1498 45.1399 23.4198L45.5099 23.9098L45.1399 23.5498C44.5244 22.9967 43.8543 22.5075 43.1399 22.0898H42.97C42.8 22.0898 42.97 22.3098 42.97 22.9498C42.9901 23.7261 42.8292 24.4965 42.5 25.1998C42.28 25.4698 42.3 25.5398 42.5 25.1998C42.628 24.7586 42.6721 24.2973 42.63 23.8398C42.63 21.9198 42.4 21.3698 41.07 20.6798L39.79 19.9998L39.2 19.7298C39.8339 19.8488 40.4539 20.0331 41.0499 20.2798C41.8099 20.6098 41.9399 20.6098 42.0499 20.6098C42.0892 20.3386 42.0687 20.0622 41.99 19.7998Z" fill="#FF1280"/>
<path d="M26.4998 23.0899C25.5403 21.7007 25.0594 20.0368 25.1298 18.3499V17.8999H25.3498C25.8407 18.0198 26.3144 18.2012 26.7598 18.4399C27.6498 18.9599 28.0398 19.6999 28.4098 21.4399C28.4499 21.9064 28.5577 22.3645 28.7298 22.7999C28.9897 23.3945 29.3044 23.9636 29.6698 24.4999C29.9198 24.8299 29.6698 25.0099 29.1998 24.9899C28.0945 24.7151 27.1316 24.0376 26.4998 23.0899Z" fill="#FF1280"/>
<path d="M40.8699 32.6899C36.5099 30.9299 34.95 29.4999 34.95 26.8199V26.1499L35.32 26.4199C36.7074 27.3091 38.3124 27.8003 39.9599 27.8399C41.1085 27.9613 42.2434 28.1889 43.3499 28.5199C44.5417 28.8346 45.6176 29.4856 46.4493 30.3953C47.2809 31.305 47.8331 32.4348 48.04 33.6499C48.1799 34.5679 48.1799 35.5019 48.04 36.4199C47.8984 36.9776 47.6724 37.5104 47.3699 37.9999V37.7299C47.3349 37.2519 47.2024 36.7862 46.9806 36.3614C46.7587 35.9366 46.4522 35.5617 46.08 35.2599C44.4989 34.1185 42.7379 33.2498 40.8699 32.6899Z" fill="#FF1280"/>
<path d="M37.7898 33.4299C37.7366 33.1122 37.6631 32.7982 37.5698 32.4899V32.1499L37.7598 32.3699C38.0849 32.7499 38.3359 33.1874 38.4998 33.6599C38.639 34.054 38.6902 34.4739 38.6498 34.8899C38.6804 35.2992 38.6294 35.7105 38.4998 36.0999C38.2866 36.6588 37.9439 37.1592 37.4998 37.5599C36.6147 38.406 35.4613 38.9155 34.2398 38.9999L32.5598 39.1499C31.2874 39.1583 30.0246 39.371 28.8198 39.7799H28.4998C28.8696 39.5092 29.2688 39.2811 29.6898 39.0999C30.7457 38.6488 31.86 38.3492 32.9998 38.2099C33.6753 38.1306 34.3439 38.0002 34.9998 37.8199C35.932 37.5737 36.7371 36.985 37.2543 36.1712C37.7715 35.3574 37.9627 34.3785 37.7898 33.4299Z" fill="#FF1280"/>
<path d="M39.7899 36.9099C39.2304 35.8106 39.0883 34.5459 39.3899 33.3499C39.3899 33.2299 39.3899 33.1299 39.5199 33.1299C39.6346 33.1605 39.743 33.2113 39.8399 33.2799C40.0899 33.4499 40.6499 33.7699 42.0599 34.5399C43.3701 35.1389 44.5597 35.9727 45.5699 36.9999C46.193 37.7739 46.5909 38.7046 46.7199 39.6899C46.8599 40.5576 46.8599 41.4422 46.7199 42.3099C46.5317 43.2502 46.1383 44.1375 45.5679 44.9084C44.9975 45.6793 44.2641 46.3149 43.4199 46.7699C43.2745 46.8653 43.1162 46.9394 42.9499 46.9899C43.002 46.8306 43.0689 46.6766 43.1499 46.5299C43.417 46.0029 43.5743 45.4271 43.6121 44.8375C43.6499 44.2478 43.5675 43.6567 43.3699 43.0999C42.9096 41.9738 42.3117 40.909 41.5899 39.9299C40.9009 38.979 40.2985 37.9683 39.7899 36.9099Z" fill="#FF1280"/>
<path d="M23.3499 43.7197C24.9191 42.3712 26.8163 41.4605 28.8499 41.0797C29.789 40.9103 30.7508 40.9103 31.6899 41.0797C32.8023 41.3349 33.7939 41.963 34.4999 42.8597C35.062 43.7683 35.4044 44.7955 35.4999 45.8597C35.5231 46.3099 35.5969 46.756 35.7199 47.1897C35.8267 47.8789 36.1825 48.5051 36.7199 48.9497C37.1934 49.1864 37.7155 49.3097 38.2449 49.3097C38.7743 49.3097 39.2964 49.1864 39.7699 48.9497C39.8925 48.9297 40.0174 48.9297 40.1399 48.9497C39.8434 49.1867 39.5292 49.4007 39.1999 49.5897C38.7151 49.8502 38.17 49.9779 37.6199 49.9597C37.0655 49.9425 36.5253 49.7802 36.0533 49.4889C35.5812 49.1976 35.1939 48.7875 34.9299 48.2997C34.6438 47.8375 34.3963 47.3525 34.1899 46.8497C33.4199 45.0697 33.0199 44.5297 32.1099 43.9297C31.7483 43.6975 31.3366 43.5546 30.9089 43.5129C30.4812 43.4712 30.0496 43.5317 29.6499 43.6897C29.4137 43.7936 29.205 43.9512 29.0403 44.1499C28.8757 44.3486 28.7596 44.583 28.7014 44.8344C28.6431 45.0858 28.6443 45.3474 28.7048 45.5982C28.7653 45.8491 28.8835 46.0824 29.0499 46.2797C29.3964 46.622 29.8336 46.858 30.3099 46.9597C30.6597 46.9943 31.0094 46.8933 31.2867 46.6774C31.564 46.4615 31.7478 46.1472 31.7999 45.7997V45.6197C31.8177 45.3811 31.7542 45.1436 31.6198 44.9457C31.4855 44.7479 31.2882 44.6012 31.0599 44.5297C30.3799 44.2297 29.6099 44.5297 29.6299 45.2697C29.619 45.3976 29.6516 45.5254 29.7224 45.6325C29.7931 45.7395 29.898 45.8196 30.0199 45.8597C29.8145 45.7991 29.6409 45.6606 29.5362 45.4738C29.4316 45.2869 29.4042 45.0665 29.4599 44.8597C29.5094 44.6896 29.6108 44.5393 29.7499 44.4297C30.0746 44.1753 30.4864 44.0589 30.8962 44.1057C31.306 44.1525 31.6809 44.3587 31.9399 44.6797C31.999 44.7592 32.0525 44.8427 32.0999 44.9297C32.2602 45.4168 32.2602 45.9425 32.0999 46.4297C31.9173 46.9053 31.56 47.2934 31.1009 47.5145C30.6419 47.7357 30.1158 47.7733 29.6299 47.6197C28.8646 47.4085 28.1877 46.9561 27.6999 46.3297C27.158 45.7096 26.4913 45.211 25.7435 44.8663C24.9956 44.5217 24.1834 44.3388 23.3599 44.3297H22.9299L23.3499 43.7197Z" fill="#FF1280"/>
<path fill-rule="evenodd" clip-rule="evenodd" d="M25.1998 24.7098C25.5898 25.2598 25.3998 25.5798 24.8598 25.8698C24.4672 26.0674 24.0385 26.1831 23.5998 26.2098C23.1919 26.2016 22.8009 26.0452 22.4998 25.7698C22.2998 25.5698 21.4398 24.3098 19.4998 21.2698C18.0198 18.9498 16.7598 17.1498 16.7398 17.1498C17.5142 18.7445 18.379 20.2937 19.3298 21.7898C20.1848 23.1466 20.9595 24.5523 21.6498 25.9998C21.6498 26.2898 21.6498 26.4398 21.2098 26.8298C20.5346 27.6852 20.1619 28.7402 20.1498 29.8298C19.8457 31.6886 18.9844 33.4113 17.6798 34.7698C17.1201 35.3685 16.6456 36.0415 16.2698 36.7698C15.9806 37.3078 15.8294 37.9091 15.8298 38.5198C15.7787 39.2571 15.8703 39.9973 16.0998 40.6998C16.359 41.4348 16.7227 42.1286 17.1798 42.7598C17.5436 43.2439 17.818 43.7892 17.9898 44.3698C17.9898 44.5398 17.9898 44.5398 18.8298 44.3698C20.4438 44.0874 21.9431 43.3482 23.1498 42.2398C23.395 42.037 23.5855 41.7762 23.7043 41.4811C23.823 41.186 23.8662 40.8659 23.8298 40.5498C23.8611 40.2386 23.8094 39.9246 23.6798 39.6398C23.3168 38.9997 22.7792 38.476 22.1298 38.1298C21.6587 37.8822 21.2496 37.5315 20.9327 37.1038C20.6159 36.6762 20.3996 36.1826 20.2998 35.6598C20.2604 34.8241 20.4617 33.9945 20.8798 33.2698C21.4854 32.206 21.8282 31.0129 21.8798 29.7898C21.8387 29.5096 21.8575 29.2239 21.9351 28.9515C22.0127 28.6791 22.1472 28.4263 22.3298 28.2098C22.6355 27.887 23.0555 27.6967 23.4998 27.6798C24.4086 27.6309 25.2747 27.2788 25.9598 26.6798C26.1952 26.485 26.3845 26.2405 26.5141 25.9639C26.6438 25.6872 26.7106 25.3853 26.7098 25.0798V24.5598L26.4098 24.2598C25.4098 23.0798 15.5798 12.3198 15.5798 12.3198C15.5798 12.3198 24.8098 24.1698 25.1998 24.7098ZM18.4998 39.5998C18.6063 39.3963 18.6345 39.1609 18.5793 38.9379C18.524 38.715 18.389 38.52 18.1998 38.3898C17.8298 38.1398 17.2598 38.2398 17.2598 38.5898C17.2603 38.64 17.2771 38.6887 17.3078 38.7284C17.3385 38.7681 17.3814 38.7967 17.4298 38.8098C17.6298 38.8098 17.6498 39.0098 17.4298 39.2498C17.3917 39.2879 17.3615 39.3331 17.3409 39.3829C17.3203 39.4326 17.3097 39.486 17.3097 39.5398C17.3097 39.5937 17.3203 39.647 17.3409 39.6968C17.3615 39.7465 17.3917 39.7918 17.4298 39.8298C17.5513 39.9489 17.7147 40.0156 17.8848 40.0156C18.055 40.0156 18.2183 39.9489 18.3398 39.8298C18.4068 39.7636 18.461 39.6856 18.4998 39.5998Z" fill="#FF1280"/>
<path fill-rule="evenodd" clip-rule="evenodd" d="M27.4998 28C27.2564 28.08 27.0329 28.2111 26.8443 28.3844C26.6556 28.5577 26.5061 28.7692 26.4058 29.0049C26.3054 29.2406 26.2566 29.495 26.2624 29.7511C26.2683 30.0072 26.3288 30.2592 26.4398 30.49C26.6498 30.79 26.8698 30.89 27.4998 30.89C28.7298 30.89 29.7698 30.35 29.9698 29.71C29.9732 29.3783 29.8807 29.0526 29.7032 28.7723C29.5258 28.4919 29.2711 28.2689 28.9698 28.13C28.5089 27.9203 27.9903 27.8745 27.4998 28ZM28.9298 29.08C29.0005 28.9746 29.0275 28.8458 29.0051 28.7208C28.9827 28.5958 28.9127 28.4844 28.8098 28.41C28.7787 28.3864 28.7452 28.3663 28.7098 28.35C28.1198 27.98 27.1998 28.35 27.1998 28.87C27.1998 29.39 27.6698 29.46 28.1198 29.46C28.4254 29.441 28.7119 29.3049 28.9198 29.08H28.9298Z" fill="#FF1280"/>
</g>
</g>
<defs>
<clipPath id="clip0_122_2088">
<rect width="64.01" height="64" fill="white" transform="translate(0.5)"/>
</clipPath>
<clipPath id="clip1_122_2088">
<rect width="64.01" height="64" fill="white" transform="translate(0.5)"/>
</clipPath>
</defs>
</svg>
