<svg width="64" height="64" viewBox="0 0 64 64" fill="none" xmlns="http://www.w3.org/2000/svg">
<path d="M63 39.74C61.4751 45.8868 58.1606 51.4429 53.4762 55.7048C48.7917 59.9668 42.948 62.7429 36.6848 63.6816C30.4216 64.6204 24.0208 63.6796 18.2926 60.9784C12.5645 58.2772 7.76665 53.937 4.50664 48.5074C1.24663 43.0777 -0.328959 36.8029 -0.0206391 30.4773C0.287681 24.1517 2.46605 18.0598 6.23864 12.973C10.0112 7.88613 15.2084 4.03311 21.1721 1.90176C27.1358 -0.229596 33.5978 -0.543432 39.74 0.999986C47.9548 3.06422 55.0161 8.30116 59.3762 15.563C63.7363 22.8248 65.0394 31.519 63 39.74Z" fill="#2859E6"/>
<g opacity="0.24">
<path d="M31.9999 64C27.1441 63.9921 22.3537 62.8791 17.9918 60.7455C13.6298 58.6119 9.81057 55.5136 6.82344 51.6853C3.83631 47.8569 1.7596 43.399 0.750645 38.6491C-0.258314 33.8992 -0.173067 28.982 0.999929 24.27C3.06198 16.0534 8.29802 8.98964 15.5601 4.62753C22.8221 0.265425 31.5176 -1.03909 39.7399 1.00001C47.2746 2.92859 53.849 7.53527 58.2341 13.9588C62.6191 20.3824 64.5146 28.1831 63.5662 35.9027C62.6178 43.6222 58.8904 50.7322 53.0809 55.9033C47.2713 61.0743 39.7774 63.9526 31.9999 64ZM31.9999 6.00001C26.2004 6.00451 20.5689 7.94788 16.0009 11.5211C11.4329 15.0943 8.19073 20.0922 6.78993 25.72C5.36929 32.3193 6.57102 39.2125 10.141 44.9417C13.711 50.671 19.3693 54.7872 25.9194 56.4198C32.4695 58.0525 39.3978 57.0736 45.2391 53.6902C51.0805 50.3067 55.377 44.7841 57.2199 38.29C58.8861 31.6014 57.828 24.5248 54.2782 18.6161C50.7285 12.7073 44.9776 8.44999 38.2899 6.78001C36.2324 6.26749 34.1204 6.00559 31.9999 6.00001Z" fill="white"/>
</g>
<g opacity="0.3">
<path d="M62.09 21.1298L0.410027 37.1299C-0.863579 29.2616 0.845064 21.2013 5.20152 14.5266C9.55798 7.85186 16.2486 3.0432 23.9639 1.04184C31.6792 -0.959531 39.8636 -0.00953126 46.9153 3.70589C53.967 7.42132 59.3783 13.6347 62.09 21.1298Z" fill="white"/>
</g>
<path d="M57.22 38.2899C55.9769 43.2804 53.2817 47.7901 49.4753 51.2486C45.6688 54.707 40.9222 56.959 35.8358 57.7195C30.7494 58.48 25.5517 57.715 20.9002 55.5212C16.2486 53.3274 12.3521 49.8033 9.70365 45.3947C7.05516 40.9862 5.77361 35.8912 6.0211 30.7542C6.26859 25.6172 8.034 20.669 11.094 16.5355C14.1541 12.4019 18.3713 9.26877 23.2122 7.53227C28.0531 5.79578 33.3003 5.53396 38.29 6.77995C44.9777 8.44993 50.7285 12.7073 54.2783 18.616C57.828 24.5248 58.8862 31.6013 57.22 38.2899Z" fill="#2859E6"/>
<path d="M39.2601 35.8896C39.2601 32.0596 36.9801 30.7396 32.3901 30.2096C29.1301 29.7596 28.4701 28.8996 28.4701 27.3496C28.4701 25.7996 29.5701 24.8296 31.7501 24.8296C32.5299 24.709 33.327 24.8771 33.9916 25.3024C34.6563 25.7277 35.1429 26.381 35.3601 27.1396C35.4167 27.2999 35.5206 27.4392 35.6581 27.5392C35.7956 27.6392 35.9602 27.6951 36.1301 27.6996H37.8501C38.0483 27.6997 38.2386 27.6223 38.3806 27.4841C38.5225 27.3459 38.6049 27.1577 38.6101 26.9596V26.9096C38.402 25.7252 37.8073 24.6431 36.9189 23.8325C36.0305 23.022 34.8986 22.5286 33.7001 22.4296V19.7096C33.7001 19.2796 33.3701 18.9496 32.8201 18.8296H31.1001C30.6701 18.8296 30.3501 19.1596 30.2401 19.7096V22.2296C28.8376 22.2838 27.507 22.8645 26.5136 23.8561C25.5202 24.8476 24.9369 26.1772 24.8801 27.5796C24.8801 31.1796 27.0701 32.5796 31.6501 33.1596C34.7101 33.6896 35.7101 34.3596 35.7101 36.0996C35.7101 37.8396 34.1801 39.0496 32.1001 39.0496C29.2501 39.0496 28.2701 37.8496 27.9401 36.2196C27.9078 36.0375 27.8134 35.8723 27.6731 35.752C27.5327 35.6317 27.355 35.5637 27.1701 35.5596H25.3801C25.2829 35.5583 25.1865 35.5761 25.0962 35.6121C25.0059 35.648 24.9236 35.7015 24.8539 35.7692C24.7843 35.837 24.7287 35.9179 24.6903 36.0072C24.6519 36.0964 24.6314 36.1924 24.6301 36.2896V36.4196C24.823 37.8424 25.5131 39.1511 26.5783 40.1138C27.6436 41.0765 29.0151 41.6312 30.4501 41.6796V44.3196C30.4501 44.7496 30.7801 45.0696 31.3301 45.1796H33.0001C33.2264 45.168 33.4407 45.0743 33.6027 44.9159C33.7647 44.7576 33.8634 44.5455 33.8801 44.3196V41.6896C35.3405 41.5583 36.7023 40.8969 37.7082 39.8301C38.7142 38.7633 39.2947 37.3651 39.3401 35.8996L39.2601 35.8896Z" fill="white"/>
<path d="M26.4401 47.2996C23.2729 46.1604 20.5344 44.0714 18.5986 41.3179C16.6628 38.5644 15.624 35.2805 15.624 31.9146C15.624 28.5487 16.6628 25.2649 18.5986 22.5114C20.5344 19.7578 23.2729 17.6689 26.4401 16.5296C26.6468 16.4333 26.8195 16.2766 26.9355 16.0803C27.0515 15.884 27.1054 15.6571 27.0901 15.4296V13.9996C27.0974 13.8045 27.0366 13.6129 26.9179 13.4577C26.7993 13.3026 26.6303 13.1937 26.4401 13.1496C26.2801 13.1285 26.1183 13.1717 25.9901 13.2696C22.0341 14.5506 18.5859 17.0523 16.1405 20.4154C13.6952 23.7785 12.3785 27.8301 12.3796 31.9883C12.3808 36.1464 13.6996 40.1973 16.1467 43.5591C18.5939 46.9209 22.0435 49.4208 26.0001 50.6996C26.0762 50.7446 26.1604 50.774 26.2479 50.7863C26.3354 50.7986 26.4245 50.7934 26.51 50.7711C26.5955 50.7488 26.6758 50.7098 26.7462 50.6563C26.8165 50.6029 26.8757 50.536 26.9201 50.4596C26.9546 50.3928 26.9814 50.3224 27.0001 50.2496C27.1001 50.1496 27.1001 50.0496 27.1001 49.8196V48.2896C27.0689 48.0865 26.9936 47.8926 26.8796 47.7216C26.7656 47.5506 26.6156 47.4066 26.4401 47.2996ZM38.0001 13.1996C37.9267 13.1543 37.8451 13.124 37.7599 13.1105C37.6748 13.097 37.5878 13.1007 37.504 13.1211C37.4202 13.1416 37.3414 13.1785 37.2721 13.2298C37.2027 13.281 37.1442 13.3456 37.1001 13.4196C37.0575 13.4825 37.0301 13.5544 37.0201 13.6296C36.9101 13.7496 36.9101 13.8496 36.9101 14.0696V15.5996C36.9308 15.8181 36.9999 16.0293 37.1123 16.2178C37.2247 16.4063 37.3777 16.5675 37.5601 16.6896C40.707 17.8407 43.4243 19.931 45.3441 22.6774C47.2639 25.4238 48.2935 28.6937 48.2935 32.0446C48.2935 35.3955 47.2639 38.6655 45.3441 41.4119C43.4243 44.1583 40.707 46.2485 37.5601 47.3996C37.3507 47.4925 37.1755 47.6484 37.059 47.8456C36.9425 48.0428 36.8904 48.2714 36.9101 48.4996V49.9996C36.8975 50.1993 36.9558 50.3971 37.0747 50.5581C37.1936 50.7191 37.3655 50.8329 37.5601 50.8796C37.7162 50.8915 37.8716 50.8491 38.0001 50.7596C41.9693 49.4744 45.4292 46.9646 47.8832 43.5906C50.3372 40.2165 51.659 36.1517 51.659 31.9796C51.659 27.8075 50.3372 23.7427 47.8832 20.3687C45.4292 16.9946 41.9693 14.4849 38.0001 13.1996Z" fill="white"/>
</svg>
