<svg width="529" height="656" viewBox="0 0 529 656" fill="none" xmlns="http://www.w3.org/2000/svg">
<g filter="url(#filter0_d_52_4850)">
<path d="M10 573V65C10 29.6538 38.6538 1 74 1H216.059C233.049 1 249.342 7.75574 261.347 19.7784L267.654 26.0946C279.659 38.1172 295.951 44.873 312.941 44.873H455C490.346 44.873 519 73.5267 519 108.873V573C519 608.346 490.346 637 455 637H74C38.6538 637 10 608.346 10 573Z" fill="#1E4890"/>
<path d="M10 573V65C10 29.6538 38.6538 1 74 1H216.059C233.049 1 249.342 7.75574 261.347 19.7784L267.654 26.0946C279.659 38.1172 295.951 44.873 312.941 44.873H455C490.346 44.873 519 73.5267 519 108.873V573C519 608.346 490.346 637 455 637H74C38.6538 637 10 608.346 10 573Z" stroke="url(#paint0_radial_52_4850)" stroke-width="2"/>
</g>
<defs>
<filter id="filter0_d_52_4850" x="0.5" y="0" width="528" height="655.5" filterUnits="userSpaceOnUse" color-interpolation-filters="sRGB">
<feFlood flood-opacity="0" result="BackgroundImageFix"/>
<feColorMatrix in="SourceAlpha" type="matrix" values="0 0 0 0 0 0 0 0 0 0 0 0 0 0 0 0 0 0 127 0" result="hardAlpha"/>
<feOffset dy="9"/>
<feGaussianBlur stdDeviation="4.25"/>
<feComposite in2="hardAlpha" operator="out"/>
<feColorMatrix type="matrix" values="0 0 0 0 0.0931337 0 0 0 0 0.164138 0 0 0 0 0.445199 0 0 0 1 0"/>
<feBlend mode="normal" in2="BackgroundImageFix" result="effect1_dropShadow_52_4850"/>
<feBlend mode="normal" in="SourceGraphic" in2="effect1_dropShadow_52_4850" result="shape"/>
</filter>
<radialGradient id="paint0_radial_52_4850" cx="0" cy="0" r="1" gradientUnits="userSpaceOnUse" gradientTransform="translate(264.5 19.1714) rotate(90) scale(617.829 494.457)">
<stop stop-color="#4D2AFF"/>
<stop offset="0.32" stop-color="#4D2CA9"/>
<stop offset="0.74" stop-color="#271484"/>
<stop offset="1" stop-color="#1F1FE5"/>
</radialGradient>
</defs>
</svg>
