<svg width="25" height="25" viewBox="0 0 25 25" fill="none" xmlns="http://www.w3.org/2000/svg">
<path d="M22.6977 15.4817H2.30054C2.04663 15.4817 1.79976 15.4389 1.56812 15.3574V24.2676C1.56812 24.6721 1.89604 25 2.30054 25H22.6977C23.1021 25 23.4301 24.6721 23.4301 24.2676V15.3574C23.1985 15.4389 22.9516 15.4817 22.6977 15.4817Z" fill="#ECECEC"/>
<path d="M2.30053 14.0169H22.6976C23.1623 14.0266 23.5304 13.5553 23.4082 13.1068L21.8392 6.83082C21.7577 6.50474 21.4647 6.27603 21.1287 6.27603H19.4555V9.41407C20.4262 9.4501 20.4255 10.8432 19.4555 10.8789H5.49061C4.51986 10.8429 4.5206 9.44976 5.49061 9.41407H5.54267V6.27603H3.86957C3.53349 6.27603 3.24052 6.50479 3.15902 6.83082L1.58998 13.1069C1.53529 13.3256 1.58446 13.5575 1.72323 13.7353C1.86205 13.913 2.07499 14.0169 2.30053 14.0169Z" fill="#ECECEC"/>
<path d="M17.9907 0.732422C17.9907 0.32793 17.6627 0 17.2583 0H7.73999C7.3355 0 7.00757 0.32793 7.00757 0.732422V9.41406H17.9907V0.732422ZM15.3706 3.65591L12.2325 6.79395C11.9465 7.07998 11.4828 7.07998 11.1967 6.79395L9.62773 5.22495C9.3417 4.93896 9.3417 4.4752 9.62773 4.18916C9.91377 3.90317 10.3775 3.90317 10.6635 4.18916L11.7146 5.24023L14.3348 2.62012C14.6209 2.33413 15.0846 2.33403 15.3706 2.62012C15.6566 2.90615 15.6566 3.36992 15.3706 3.65591Z" fill="#ECECEC"/>
</svg>
