<svg width="25" height="25" viewBox="0 0 25 25" fill="none" xmlns="http://www.w3.org/2000/svg">
<path fill-rule="evenodd" clip-rule="evenodd" d="M12.4873 12.2319C14.7485 12.2319 16.5884 10.3926 16.5884 8.13135C16.5884 5.87012 14.7485 4.03027 12.4873 4.03027C10.2261 4.03027 8.38672 5.87012 8.38672 8.13135C8.38672 10.3926 10.2261 12.2319 12.4873 12.2319ZM7.46924 4.58154V1.75098L4.63818 4.58154H7.46924ZM12.4873 3.44434C15.0718 3.44434 17.1743 5.54688 17.1743 8.13135C17.1743 10.7153 15.0718 12.8179 12.4873 12.8179C9.90332 12.8179 7.80078 10.7153 7.80078 8.13135C7.80078 5.54688 9.90332 3.44434 12.4873 3.44434ZM19.0464 16.3052C19.208 16.3052 19.3394 16.4365 19.3394 16.5981C19.3394 16.7603 19.208 16.8911 19.0464 16.8911H5.92822C5.7666 16.8911 5.63525 16.7603 5.63525 16.5981C5.63525 16.4365 5.7666 16.3052 5.92822 16.3052H19.0464ZM19.0464 18.6558C19.208 18.6558 19.3394 18.7866 19.3394 18.9487C19.3394 19.1104 19.208 19.2417 19.0464 19.2417H5.92822C5.7666 19.2417 5.63525 19.1104 5.63525 18.9487C5.63525 18.7866 5.7666 18.6558 5.92822 18.6558H19.0464ZM19.0464 21.0059C19.208 21.0059 19.3394 21.1367 19.3394 21.2988C19.3394 21.4604 19.208 21.5918 19.0464 21.5918H5.92822C5.7666 21.5918 5.63525 21.4604 5.63525 21.2988C5.63525 21.1367 5.7666 21.0059 5.92822 21.0059H19.0464ZM8.18311 13.9551H16.792C16.9536 13.9551 17.085 14.0864 17.085 14.248C17.085 14.4102 16.9536 14.541 16.792 14.541H8.18311C8.021 14.541 7.89014 14.4102 7.89014 14.248C7.89014 14.0864 8.021 13.9551 8.18311 13.9551ZM4.22412 23.6997V5.16748H7.76221C7.92383 5.16748 8.05518 5.03662 8.05518 4.87451V1.33643H20.751V23.6997H4.22412ZM13.0581 8.26904C13.5596 8.26904 13.9673 8.67676 13.9673 9.17773C13.9673 9.6792 13.5596 10.0869 13.0581 10.0869H11.5649V8.26904H13.0581ZM11.5649 7.68311V6.17529H13.0034C13.4194 6.17529 13.7573 6.51367 13.7573 6.9292C13.7573 7.33398 13.4282 7.67236 13.0234 7.68262C13.022 7.68262 13.021 7.68262 13.02 7.68311H11.5649ZM13.8853 7.93311C14.2876 8.20117 14.5532 8.65918 14.5532 9.17773C14.5532 9.98486 13.9106 10.644 13.1108 10.6719V11.1519C13.1108 11.314 12.9795 11.4448 12.8179 11.4448C12.6558 11.4448 12.5249 11.314 12.5249 11.1519V10.6729H11.9648V11.1519C11.9648 11.314 11.834 11.4448 11.6719 11.4448C11.5103 11.4448 11.3789 11.314 11.3789 11.1519V10.6729H10.7144C10.5527 10.6729 10.4214 10.542 10.4214 10.3799C10.4214 10.2183 10.5527 10.0869 10.7144 10.0869H10.979V6.17529H10.7144C10.5527 6.17529 10.4214 6.04443 10.4214 5.88232C10.4214 5.7207 10.5527 5.58936 10.7144 5.58936H11.3789V5.11035C11.3789 4.94873 11.5103 4.81738 11.6719 4.81738C11.834 4.81738 11.9648 4.94873 11.9648 5.11035V5.58936H12.5249V5.11035C12.5249 4.94873 12.6558 4.81738 12.8179 4.81738C12.9795 4.81738 13.1108 4.94873 13.1108 5.11035V5.59424C13.7993 5.64893 14.3433 6.22656 14.3433 6.9292C14.3433 7.32617 14.165 7.68604 13.8853 7.93311Z" fill="black"/>
</svg>
