<svg width="15" height="16" viewBox="0 0 15 16" fill="none" xmlns="http://www.w3.org/2000/svg">
<g clip-path="url(#clip0_52_2271)">
<path d="M8.0016 7.72681L11.3772 12.8769H9.99182L7.2373 8.67442V8.67416L6.8329 8.05724L3.61517 3.14771H5.0005L7.5972 7.10989L8.0016 7.72681Z" fill="#74C465"/>
<path d="M13.3792 0H1.62078C0.725672 0 0 0.774051 0 1.72883V14.2712C0 15.2259 0.725672 16 1.62078 16H13.3792C14.2743 16 15 15.2259 15 14.2712V1.72883C15 0.774051 14.2743 0 13.3792 0ZM9.56748 13.5683L6.78007 9.24114L3.29022 13.5683H2.38826L6.37958 8.61966L2.38826 2.42347H5.43252L8.072 6.52101L11.3766 2.42347H12.2786L8.47262 7.14262H8.47237L12.6117 13.5683H9.56748Z" fill="#74C465"/>
</g>
<defs>
<clipPath id="clip0_52_2271">
<rect width="15" height="16" fill="white"/>
</clipPath>
</defs>
</svg>
