<svg width="64" height="64" viewBox="0 0 64 64" fill="none" xmlns="http://www.w3.org/2000/svg">
<g clip-path="url(#clip0_122_2243)">
<path d="M63.0499 39.7498C61.526 45.8947 58.2136 51.4495 53.5318 55.7113C48.85 59.9731 43.0092 62.7504 36.7485 63.6917C30.4878 64.633 24.0886 63.696 18.3606 60.9994C12.6326 58.3027 7.83318 53.9676 4.56971 48.5424C1.30623 43.1173 -0.274648 36.8461 0.0270991 30.5222C0.328846 24.1983 2.49966 18.1061 6.26486 13.0164C10.0301 7.92661 15.2204 4.06811 21.1792 1.9291C27.1379 -0.20992 33.5973 -0.53332 39.7399 0.999819C47.9661 3.05301 55.0413 8.28693 59.4118 15.5523C63.7822 22.8177 65.0907 31.5205 63.0499 39.7498Z" fill="#24292E"/>
<g opacity="0.24">
<path d="M31.9997 63.9998C29.3887 63.9815 26.7897 63.6457 24.2597 62.9998C16.0471 60.9355 8.98757 55.7001 4.62775 48.4406C0.26792 41.1811 -1.03669 32.4894 0.999725 24.2698C2.53239 18.1312 5.85042 12.5847 10.5345 8.33129C15.2185 4.07788 21.0584 1.30849 27.3159 0.373126C33.5735 -0.562242 39.9678 0.378396 45.691 3.07616C51.4141 5.77392 56.209 10.1077 59.4697 15.5298C62.3861 20.388 63.9602 25.9334 64.0311 31.5993C64.1021 37.2651 62.6673 42.8482 59.8735 47.7779C57.0796 52.7075 53.0269 56.8069 48.1296 59.657C43.2323 62.5072 37.666 64.0058 31.9997 63.9998ZM31.9997 5.99984C26.2002 6.00434 20.5687 7.94772 16.0007 11.5209C11.4327 15.0941 8.19053 20.092 6.78973 25.7198C5.8383 29.0724 5.57056 32.582 6.0024 36.04C6.43425 39.4981 7.55687 42.834 9.30355 45.8496C11.0502 48.8652 13.3853 51.4989 16.17 53.5941C18.9548 55.6894 22.1323 57.2034 25.5137 58.0462C28.8952 58.8891 32.4116 59.0436 35.8539 58.5005C39.2963 57.9574 42.5943 56.7278 45.552 54.8848C48.5097 53.0418 51.0668 50.623 53.0711 47.7722C55.0755 44.9214 56.4863 41.6967 57.2197 38.2898C58.8859 31.6012 57.8278 24.5247 54.278 18.6159C50.7283 12.7071 44.9774 8.44982 38.2897 6.77984C36.2322 6.26732 34.1202 6.00542 31.9997 5.99984Z" fill="white"/>
</g>
<g opacity="0.3">
<path d="M62.0898 21.1298L0.409783 37.1299C-0.863823 29.2616 0.84482 21.2013 5.20128 14.5266C9.55774 7.85186 16.2484 3.0432 23.9637 1.04184C31.6789 -0.959531 39.8634 -0.00953126 46.9151 3.70589C53.9668 7.42132 59.3781 13.6347 62.0898 21.1298Z" fill="white"/>
</g>
<path d="M57.2198 38.2899C55.9766 43.2804 53.2814 47.7901 49.475 51.2486C45.6686 54.707 40.922 56.959 35.8356 57.7195C30.7492 58.48 25.5515 57.715 20.8999 55.5212C16.2484 53.3274 12.3519 49.8033 9.70341 45.3947C7.05491 40.9862 5.77336 35.8912 6.02085 30.7542C6.26834 25.6172 8.03376 20.669 11.0938 16.5355C14.1538 12.4019 18.371 9.26877 23.2119 7.53227C28.0529 5.79578 33.3 5.53396 38.2898 6.77995C44.9775 8.44993 50.7283 12.7073 54.2781 18.616C57.8278 24.5248 58.8859 31.6013 57.2198 38.2899Z" fill="#24292E"/>
<path d="M37.7999 28.5898L46.6299 19.8398H42.3799L35.6699 26.4898C34.6944 27.4553 33.3774 27.9969 32.0049 27.9969C30.6324 27.9969 29.3154 27.4553 28.3399 26.4898L21.6299 19.8398H17.3799L26.2099 28.5898C27.7563 30.1087 29.8373 30.9598 32.0049 30.9598C34.1725 30.9598 36.2534 30.1087 37.7999 28.5898Z" fill="white"/>
<path d="M37.7998 35.3599C36.2559 33.8362 34.174 32.9819 32.0048 32.9819C29.8357 32.9819 27.7538 33.8362 26.2098 35.3599L17.3198 44.1599H21.5698L28.3398 37.4599C29.3178 36.4992 30.6339 35.961 32.0048 35.961C33.3757 35.961 34.6918 36.4992 35.6698 37.4599L42.4398 44.1599H46.6898L37.7998 35.3599Z" fill="white"/>
</g>
<defs>
<clipPath id="clip0_122_2243">
<rect width="64.01" height="64" fill="white"/>
</clipPath>
</defs>
</svg>
