<svg width="131" height="85" viewBox="0 0 131 85" fill="none" xmlns="http://www.w3.org/2000/svg">
<g id="logo 1">
<path id="Vector" d="M14.9332 29.1678V40.7475H13.7615V31.5006L9.64349 40.7475H8.78976L4.67178 31.5341V40.7475H3.5V29.1678H4.73874L9.20825 39.2036L13.6778 29.1678H14.9332ZM18.7632 29.9734V34.3535H23.1992V35.3269H18.7632V39.7742H23.7014V40.7475H17.5914V29H23.7014V29.9734H18.7632ZM34.8322 40.7475H33.6604L27.1821 30.8796V40.7475H26.0103V29.0168H27.1821L33.6604 38.8679V29.0168H34.8322V40.7475ZM44.3328 29.0168V29.9902H41.0852V40.7475H39.9135V29.9902H36.6492V29.0168H44.3328ZM52.9626 37.9617H47.6394L46.6183 40.7475H45.3795L49.6482 29.1678H50.9706L55.2225 40.7475H53.9838L52.9626 37.9617ZM52.6111 36.9883L50.301 30.6447L47.9909 36.9883H52.6111ZM58.2749 39.791H62.4766V40.7475H57.1031V29.0168H58.2749V39.791ZM82.9378 29.0168L79.6234 40.7475H78.3177L75.3715 30.7453L72.3583 40.7475L71.0861 40.7643L67.8386 29.0168H69.0941L71.7724 39.3043L74.7688 29.0168H76.0745L78.9873 39.3043L81.6824 29.0168H82.9378ZM85.9021 29.9734V34.3535H90.3381V35.3269H85.9021V39.7742H90.8403V40.7475H84.7303V29H90.8403V29.9734H85.9021ZM99.9287 37.9617H94.6056L93.5844 40.7475H92.3457L96.614 29.1678H97.9371L102.189 40.7475H100.95L99.9287 37.9617ZM99.5767 36.9883L97.2675 30.6447L94.9571 36.9883H99.5767ZM105.241 39.791H109.442V40.7475H104.07V29.0168H105.241V39.791ZM117.961 29.0168V29.9902H114.714V40.7475H113.543V29.9902H110.278V29.0168H117.961ZM128.5 29.0168V40.7475H127.328V35.2598H120.983V40.7475H119.811V29.0168H120.983V34.2864H127.328V29.0168H128.5ZM30.9902 53.9861H26.8053L26.1692 55.9161H22.7208L27.0229 44.0846H30.8061L35.0914 55.9161H31.6263L30.9902 53.9861ZM30.17 51.4688L28.8977 47.6425L27.6423 51.4688H30.17ZM35.7591 49.9752C35.7591 48.8116 35.999 47.7767 36.4789 46.8705C36.9699 45.953 37.6619 45.2426 38.5546 44.7391C39.4474 44.2245 40.4741 43.9671 41.6348 43.9671C43.1079 43.9671 44.3466 44.3643 45.351 45.1587C46.3554 45.9419 47.0026 47.0103 47.2928 48.3641H43.7607C43.5487 47.9166 43.2529 47.5753 42.8735 47.3404C42.5052 47.1054 42.0756 46.9879 41.5845 46.9879C40.8257 46.9879 40.2175 47.2621 39.7599 47.8103C39.3135 48.3473 39.0903 49.0689 39.0903 49.9752C39.0903 50.8926 39.3135 51.6254 39.7599 52.1737C40.2175 52.7107 40.8257 52.9792 41.5845 52.9792C42.0756 52.9792 42.5052 52.8617 42.8735 52.6268C43.2529 52.3918 43.5487 52.0506 43.7607 51.6031H47.2928C47.0026 52.9568 46.3554 54.0309 45.351 54.8252C44.3466 55.6084 43.1079 56 41.6348 56C40.4741 56 39.4474 55.7483 38.5546 55.2448C37.6619 54.7301 36.9699 54.0197 36.4789 53.1135C35.999 52.196 35.7591 51.1499 35.7591 49.9752ZM56.3124 53.9861H52.1275L51.4914 55.9161H48.043L52.3451 44.0846H56.1283L60.4136 55.9161H56.9485L56.3124 53.9861ZM55.4922 51.4688L54.2199 47.6425L52.9645 51.4688H55.4922ZM66.1533 44.0846C67.3921 44.0846 68.4746 44.3364 69.4008 44.8398C70.3383 45.3321 71.0581 46.0258 71.5603 46.9208C72.0625 47.8159 72.3136 48.8396 72.3136 49.992C72.3136 51.1332 72.0569 52.1513 71.5435 53.0463C71.0413 53.9414 70.3215 54.6462 69.3841 55.1609C68.4578 55.6644 67.3809 55.9161 66.1533 55.9161H61.483V44.0846H66.1533ZM65.9022 53.0128C66.862 53.0128 67.6153 52.7498 68.1621 52.224C68.7089 51.6982 68.9824 50.9541 68.9824 49.992C68.9824 49.0186 68.7089 48.269 68.1621 47.7432C67.6153 47.2061 66.862 46.9376 65.9022 46.9376H64.7639V53.0128H65.9022ZM77.0736 46.7194V48.6494H80.84V51.1499H77.0736V53.2813H81.3422V55.9161H73.7926V44.0846H81.3422V46.7194H77.0736ZM96.7406 44.0846V55.9161H93.4593V49.3878L91.2329 55.9161H88.4876L86.2445 49.3375V55.9161H82.9635V44.0846H86.9308L89.8937 51.7709L92.7897 44.0846H96.7406ZM109.338 44.0846L105.187 52.1569V55.9161H101.889V52.1569L97.7375 44.0846H101.487L103.563 48.6494L105.638 44.0846H109.338Z" fill="white"/>
</g>
</svg>
