<svg width="21" height="20" viewBox="0 0 21 20" fill="none" xmlns="http://www.w3.org/2000/svg">
<g id="Media / Icon/Filled/sparkles">
<g id="Vector">
<path fill-rule="evenodd" clip-rule="evenodd" d="M8 3.75C8.27905 3.75 8.52429 3.93499 8.60095 4.2033L9.27862 6.57512C9.57523 7.61327 10.3867 8.42477 11.4249 8.72138L13.7967 9.39905C14.065 9.47571 14.25 9.72095 14.25 10C14.25 10.2791 14.065 10.5243 13.7967 10.601L11.4249 11.2786C10.3867 11.5752 9.57523 12.3867 9.27862 13.4249L8.60095 15.7967C8.52429 16.065 8.27905 16.25 8 16.25C7.72095 16.25 7.47571 16.065 7.39905 15.7967L6.72138 13.4249C6.42477 12.3867 5.61327 11.5752 4.57512 11.2786L2.2033 10.601C1.93499 10.5243 1.75 10.2791 1.75 10C1.75 9.72095 1.93499 9.47571 2.2033 9.39905L4.57512 8.72138C5.61327 8.42477 6.42477 7.61327 6.72138 6.57512L7.39905 4.2033C7.47571 3.93499 7.72095 3.75 8 3.75Z" fill="#242423"/>
<path fill-rule="evenodd" clip-rule="evenodd" d="M15.5 1.25C15.7868 1.25 16.0368 1.44519 16.1063 1.72342L16.3221 2.5863C16.518 3.37005 17.13 3.982 17.9137 4.17794L18.7766 4.39366C19.0548 4.46322 19.25 4.71321 19.25 5C19.25 5.28679 19.0548 5.53678 18.7766 5.60634L17.9137 5.82206C17.13 6.018 16.518 6.62995 16.3221 7.4137L16.1063 8.27658C16.0368 8.55481 15.7868 8.75 15.5 8.75C15.2132 8.75 14.9632 8.55481 14.8937 8.27658L14.6779 7.4137C14.482 6.62995 13.87 6.018 13.0863 5.82206L12.2234 5.60634C11.9452 5.53678 11.75 5.28679 11.75 5C11.75 4.71321 11.9452 4.46322 12.2234 4.39366L13.0863 4.17794C13.87 3.982 14.482 3.37005 14.6779 2.5863L14.8937 1.72342C14.9632 1.44519 15.2132 1.25 15.5 1.25Z" fill="#242423"/>
<path fill-rule="evenodd" clip-rule="evenodd" d="M14.25 12.5C14.519 12.5 14.7579 12.6721 14.8429 12.9274L15.1715 13.913C15.2959 14.2862 15.5888 14.5791 15.962 14.7035L16.9476 15.0321C17.2029 15.1171 17.375 15.356 17.375 15.625C17.375 15.894 17.2029 16.1329 16.9476 16.2179L15.962 16.5465C15.5888 16.6709 15.2959 16.9638 15.1715 17.337L14.8429 18.3226C14.7579 18.5779 14.519 18.75 14.25 18.75C13.981 18.75 13.7421 18.5779 13.6571 18.3226L13.3285 17.337C13.2041 16.9638 12.9112 16.6709 12.538 16.5465L11.5524 16.2179C11.2971 16.1329 11.125 15.894 11.125 15.625C11.125 15.356 11.2971 15.1171 11.5524 15.0321L12.538 14.7035C12.9112 14.5791 13.2041 14.2862 13.3285 13.913L13.6571 12.9274C13.7421 12.6721 13.981 12.5 14.25 12.5Z" fill="#242423"/>
</g>
</g>
</svg>
